%
M48
M72
T01C0.0130
T02C0.0400
T03C0.0591
%
T01
X1580Y5310
X1880Y6310
X1530Y6660
X2030Y7660
X1630Y8660
X2630Y8760
X3480Y10460
X3780Y7860
X4080Y6510
X3580Y5710
X5530Y6860
X5530Y8460
X6530Y10060
T02
X780Y760
X1780Y760
X2780Y760
X3780Y760
X5780Y760
X6780Y760
T03
X5280Y3360
X5280Y4360
X6280Y4610
X6280Y3610
X3780Y3360
X3780Y4360
X2780Y4610
X2780Y3610
M30
