G75*
%MOIN*%
%OFA0B0*%
%FSLAX24Y24*%
%IPPOS*%
%LPD*%
%AMOC8*
5,1,8,0,0,1.08239X$1,22.5*
%
%ADD10C,0.0040*%
%ADD11C,0.0030*%
%ADD12C,0.0060*%
%ADD13C,0.0080*%
D10*
X000550Y001487D02*
X000627Y001410D01*
X000550Y001487D02*
X000550Y001640D01*
X000627Y001717D01*
X000703Y001717D01*
X000780Y001640D01*
X000780Y001487D01*
X000857Y001410D01*
X000934Y001410D01*
X001010Y001487D01*
X001010Y001640D01*
X000934Y001717D01*
X000934Y001870D02*
X000627Y001870D01*
X000550Y001947D01*
X000550Y002101D01*
X000627Y002177D01*
X000703Y002331D02*
X001010Y002638D01*
X001010Y002331D02*
X000550Y002331D01*
X000780Y002408D02*
X000550Y002638D01*
X000934Y002177D02*
X001010Y002101D01*
X001010Y001947D01*
X000934Y001870D01*
X001550Y001870D02*
X001550Y002024D01*
X001550Y001947D02*
X002010Y001947D01*
X002010Y001870D02*
X002010Y002024D01*
X001934Y002177D02*
X001857Y002177D01*
X001780Y002254D01*
X001780Y002408D01*
X001703Y002484D01*
X001627Y002484D01*
X001550Y002408D01*
X001550Y002254D01*
X001627Y002177D01*
X001627Y002638D02*
X001550Y002714D01*
X001550Y002868D01*
X001627Y002945D01*
X001934Y002945D01*
X002010Y002868D01*
X002010Y002714D01*
X001934Y002638D01*
X001627Y002638D01*
X001934Y002484D02*
X002010Y002408D01*
X002010Y002254D01*
X001934Y002177D01*
X002010Y001717D02*
X001550Y001717D01*
X001550Y001410D02*
X002010Y001410D01*
X001857Y001563D01*
X002010Y001717D01*
X002550Y001667D02*
X003010Y001667D01*
X002857Y001513D01*
X003010Y001360D01*
X002550Y001360D01*
X002627Y001820D02*
X002550Y001897D01*
X002550Y002051D01*
X002627Y002127D01*
X002934Y002127D01*
X003010Y002051D01*
X003010Y001897D01*
X002934Y001820D01*
X002627Y001820D01*
X002627Y002281D02*
X002550Y002358D01*
X002550Y002511D01*
X002627Y002588D01*
X002703Y002588D01*
X002780Y002511D01*
X002780Y002358D01*
X002857Y002281D01*
X002934Y002281D01*
X003010Y002358D01*
X003010Y002511D01*
X002934Y002588D01*
X003010Y002741D02*
X003010Y002895D01*
X003010Y002818D02*
X002550Y002818D01*
X002550Y002741D02*
X002550Y002895D01*
X003550Y002101D02*
X003550Y001947D01*
X003627Y001870D01*
X003627Y001717D02*
X003550Y001640D01*
X003550Y001487D01*
X003627Y001410D01*
X003934Y001410D01*
X004010Y001487D01*
X004010Y001640D01*
X003934Y001717D01*
X003934Y001870D02*
X003857Y001870D01*
X003780Y001947D01*
X003780Y002101D01*
X003703Y002177D01*
X003627Y002177D01*
X003550Y002101D01*
X003934Y002177D02*
X004010Y002101D01*
X004010Y001947D01*
X003934Y001870D01*
X004090Y002311D02*
X004090Y001390D01*
X004550Y001410D02*
X004550Y001640D01*
X004627Y001717D01*
X004934Y001717D01*
X005010Y001640D01*
X005010Y001410D01*
X004550Y001410D01*
X004550Y001870D02*
X004550Y002177D01*
X004550Y002484D02*
X005010Y002484D01*
X005010Y002331D02*
X005010Y002638D01*
X005090Y002771D02*
X005090Y001390D01*
X005010Y001870D02*
X004550Y001870D01*
X004780Y001870D02*
X004780Y002024D01*
X005010Y002177D02*
X005010Y001870D01*
X005550Y001870D02*
X005550Y002024D01*
X005550Y001947D02*
X006010Y001947D01*
X006010Y001870D02*
X006010Y002024D01*
X006010Y002177D02*
X005550Y002484D01*
X006010Y002484D01*
X006010Y002177D02*
X005550Y002177D01*
X005703Y001717D02*
X006010Y001717D01*
X006010Y001410D02*
X005703Y001410D01*
X005550Y001563D01*
X005703Y001717D01*
X005769Y002815D02*
X005582Y002815D01*
X005474Y002955D02*
X005287Y002955D01*
X005180Y003002D02*
X005180Y003049D01*
X005133Y003095D01*
X005040Y003095D01*
X004993Y003049D01*
X005040Y002955D02*
X004993Y002908D01*
X004993Y002862D01*
X005040Y002815D01*
X005133Y002815D01*
X005180Y002862D01*
X005133Y002955D02*
X005040Y002955D01*
X005133Y002955D02*
X005180Y003002D01*
X005334Y003095D02*
X005334Y002815D01*
X005474Y002955D02*
X005334Y003095D01*
X005582Y003049D02*
X005582Y003002D01*
X005769Y002815D01*
X005877Y002862D02*
X005877Y002908D01*
X005923Y002955D01*
X006017Y002955D01*
X006064Y003002D01*
X006064Y003049D01*
X006017Y003095D01*
X005923Y003095D01*
X005877Y003049D01*
X005877Y003002D01*
X005923Y002955D01*
X006017Y002955D02*
X006064Y002908D01*
X006064Y002862D01*
X006017Y002815D01*
X005923Y002815D01*
X005877Y002862D01*
X005769Y003049D02*
X005722Y003095D01*
X005629Y003095D01*
X005582Y003049D01*
X006171Y002815D02*
X006358Y002815D01*
X006265Y002815D02*
X006265Y003095D01*
X006358Y003002D01*
X006466Y003049D02*
X006466Y002955D01*
X006513Y002908D01*
X006653Y002908D01*
X006653Y002815D02*
X006653Y003095D01*
X006513Y003095D01*
X006466Y003049D01*
X006761Y003049D02*
X006807Y003095D01*
X006901Y003095D01*
X006948Y003049D01*
X006948Y002862D01*
X006901Y002815D01*
X006807Y002815D01*
X006761Y002862D01*
X006627Y002638D02*
X006934Y002638D01*
X007010Y002561D01*
X007010Y002331D01*
X006550Y002331D01*
X006550Y002561D01*
X006627Y002638D01*
X006550Y002177D02*
X007010Y002177D01*
X007010Y001870D02*
X006550Y002177D01*
X006550Y001870D02*
X007010Y001870D01*
X006934Y001717D02*
X007010Y001640D01*
X007010Y001487D01*
X006934Y001410D01*
X006627Y001410D01*
X006550Y001487D01*
X006550Y001640D01*
X006627Y001717D01*
X006780Y001717D01*
X006780Y001563D01*
X007055Y002815D02*
X007055Y003095D01*
X007149Y003002D01*
X007242Y003095D01*
X007242Y002815D01*
X007087Y004510D02*
X007180Y004603D01*
X006900Y004603D01*
X006900Y004510D02*
X006900Y004697D01*
X006947Y004805D02*
X007134Y004991D01*
X006947Y004991D01*
X006900Y004945D01*
X006900Y004851D01*
X006947Y004805D01*
X007134Y004805D01*
X007180Y004851D01*
X007180Y004945D01*
X007134Y004991D01*
X007180Y005099D02*
X006900Y005099D01*
X006993Y005099D02*
X007180Y005286D01*
X007040Y005146D02*
X006900Y005286D01*
X006330Y005295D02*
X006284Y005341D01*
X006097Y005155D01*
X006050Y005201D01*
X006050Y005295D01*
X006097Y005341D01*
X006284Y005341D01*
X006330Y005295D02*
X006330Y005201D01*
X006284Y005155D01*
X006097Y005155D01*
X006050Y005047D02*
X006050Y004860D01*
X006050Y004953D02*
X006330Y004953D01*
X006237Y004860D01*
X006190Y005449D02*
X006097Y005449D01*
X006050Y005496D01*
X006050Y005589D01*
X006097Y005636D01*
X006143Y005636D01*
X006190Y005589D01*
X006190Y005449D01*
X006284Y005543D01*
X006330Y005636D01*
X005230Y005089D02*
X005090Y004949D01*
X005090Y005136D01*
X004950Y005089D02*
X005230Y005089D01*
X005184Y004841D02*
X004997Y004655D01*
X004950Y004701D01*
X004950Y004795D01*
X004997Y004841D01*
X005184Y004841D01*
X005230Y004795D01*
X005230Y004701D01*
X005184Y004655D01*
X004997Y004655D01*
X004950Y004547D02*
X004950Y004360D01*
X004950Y004453D02*
X005230Y004453D01*
X005137Y004360D01*
X004560Y005960D02*
X004560Y006007D01*
X004373Y006194D01*
X004373Y006240D01*
X004560Y006240D01*
X004265Y006100D02*
X004079Y006100D01*
X003971Y006100D02*
X003784Y006100D01*
X003784Y006240D02*
X003784Y005960D01*
X003676Y006007D02*
X003629Y005960D01*
X003536Y005960D01*
X003489Y006007D01*
X003381Y006100D02*
X003195Y006100D01*
X003241Y005960D02*
X003241Y006240D01*
X003381Y006100D01*
X003489Y006194D02*
X003536Y006240D01*
X003629Y006240D01*
X003676Y006194D01*
X003676Y006007D01*
X003971Y005960D02*
X003971Y006240D01*
X004125Y006240D02*
X004125Y005960D01*
X004265Y006100D02*
X004125Y006240D01*
X003087Y006194D02*
X003087Y006007D01*
X002900Y006194D01*
X002900Y006007D01*
X002947Y005960D01*
X003040Y005960D01*
X003087Y006007D01*
X003087Y006194D02*
X003040Y006240D01*
X002947Y006240D01*
X002900Y006194D01*
X002792Y006240D02*
X002792Y006100D01*
X002699Y006147D01*
X002652Y006147D01*
X002605Y006100D01*
X002605Y006007D01*
X002652Y005960D01*
X002745Y005960D01*
X002792Y006007D01*
X002792Y006240D02*
X002605Y006240D01*
X002497Y006194D02*
X002497Y006007D01*
X002311Y006194D01*
X002311Y006007D01*
X002357Y005960D01*
X002451Y005960D01*
X002497Y006007D01*
X002497Y006194D02*
X002451Y006240D01*
X002357Y006240D01*
X002311Y006194D01*
D11*
X002414Y006490D02*
X002167Y006490D01*
X002045Y006428D02*
X001921Y006428D01*
X001983Y006366D02*
X001983Y006613D01*
X002045Y006675D01*
X001800Y006613D02*
X001800Y006490D01*
X001738Y006428D01*
X001615Y006428D01*
X001553Y006490D01*
X001553Y006613D01*
X001615Y006675D01*
X001738Y006675D01*
X001800Y006613D01*
X001432Y006613D02*
X001432Y006490D01*
X001370Y006428D01*
X001185Y006428D01*
X001185Y006305D02*
X001185Y006675D01*
X001370Y006675D01*
X001432Y006613D01*
X002535Y006428D02*
X002659Y006428D01*
X002597Y006366D02*
X002597Y006613D01*
X002659Y006675D01*
X002781Y006675D02*
X002781Y006305D01*
X002842Y006428D02*
X002781Y006490D01*
X002842Y006428D02*
X002966Y006428D01*
X003028Y006490D01*
X003028Y006675D01*
X003149Y006613D02*
X003149Y006490D01*
X003211Y006428D01*
X003334Y006428D01*
X003396Y006490D01*
X003396Y006613D01*
X003334Y006675D01*
X003211Y006675D01*
X003149Y006613D01*
X003517Y006613D02*
X003517Y006428D01*
X003517Y006613D02*
X003579Y006675D01*
X003764Y006675D01*
X003764Y006428D01*
X003886Y006490D02*
X003886Y006613D01*
X003947Y006675D01*
X004133Y006675D01*
X004133Y006737D02*
X004133Y006428D01*
X003947Y006428D01*
X003886Y006490D01*
X004009Y006798D02*
X004071Y006798D01*
X004133Y006737D01*
X004254Y006675D02*
X004254Y006305D01*
X004316Y006428D02*
X004254Y006490D01*
X004316Y006428D02*
X004439Y006428D01*
X004501Y006490D01*
X004501Y006675D01*
X004684Y006613D02*
X004746Y006675D01*
X004684Y006613D02*
X004684Y006366D01*
X004622Y006428D02*
X004746Y006428D01*
X004868Y006490D02*
X004930Y006428D01*
X005115Y006428D01*
X005053Y006552D02*
X004930Y006552D01*
X004868Y006490D01*
X004868Y006675D02*
X005053Y006675D01*
X005115Y006613D01*
X005053Y006552D01*
X005236Y006613D02*
X005298Y006613D01*
X005298Y006675D01*
X005236Y006675D01*
X005236Y006613D01*
X005420Y006613D02*
X005420Y006490D01*
X005482Y006428D01*
X005667Y006428D01*
X005789Y006490D02*
X005789Y006613D01*
X005850Y006675D01*
X005974Y006675D01*
X006036Y006613D01*
X006036Y006490D01*
X005974Y006428D01*
X005850Y006428D01*
X005789Y006490D01*
X005667Y006675D02*
X005482Y006675D01*
X005420Y006613D01*
X006157Y006675D02*
X006157Y006428D01*
X006219Y006428D01*
X006280Y006490D01*
X006342Y006428D01*
X006404Y006490D01*
X006404Y006675D01*
X006280Y006675D02*
X006280Y006490D01*
D12*
X000280Y000490D02*
X000530Y000240D01*
X001030Y000240D01*
X001280Y000490D01*
X001530Y000240D01*
X002030Y000240D01*
X002280Y000490D01*
X002280Y000990D01*
X002030Y001240D01*
X001530Y001240D01*
X001280Y000990D01*
X001030Y001240D01*
X000530Y001240D01*
X000280Y000990D01*
X000280Y000490D01*
X001280Y000490D02*
X001280Y000990D01*
X002280Y000990D02*
X002530Y001240D01*
X003030Y001240D01*
X003280Y000990D01*
X003530Y001240D01*
X004030Y001240D01*
X004280Y000990D01*
X004530Y001240D01*
X005030Y001240D01*
X005280Y000990D01*
X005280Y000490D01*
X005030Y000240D01*
X004530Y000240D01*
X004280Y000490D01*
X004280Y000990D01*
X004280Y000490D02*
X004030Y000240D01*
X003530Y000240D01*
X003280Y000490D01*
X003280Y000990D01*
X003280Y000490D02*
X003030Y000240D01*
X002530Y000240D01*
X002280Y000490D01*
X005280Y000490D02*
X005530Y000240D01*
X006030Y000240D01*
X006280Y000490D01*
X006530Y000240D01*
X007030Y000240D01*
X007280Y000490D01*
X007280Y000990D01*
X007030Y001240D01*
X006530Y001240D01*
X006280Y000990D01*
X006030Y001240D01*
X005530Y001240D01*
X005280Y000990D01*
X005280Y000490D01*
X006280Y000490D02*
X006280Y000990D01*
D13*
X006249Y003180D02*
X005911Y003180D01*
X005761Y003634D02*
X005761Y003846D01*
X005911Y004300D02*
X006249Y004300D01*
X004650Y004230D02*
X004650Y003834D01*
X004651Y003834D02*
X004646Y003814D01*
X004638Y003795D01*
X004627Y003777D01*
X004614Y003761D01*
X004598Y003748D01*
X004581Y003737D01*
X004562Y003729D01*
X004542Y003724D01*
X004521Y003722D01*
X004500Y003723D01*
X004500Y003724D02*
X000621Y003724D01*
X000620Y003723D02*
X000600Y003728D01*
X000581Y003736D01*
X000563Y003747D01*
X000547Y003760D01*
X000534Y003776D01*
X000523Y003793D01*
X000515Y003812D01*
X000510Y003832D01*
X000508Y003853D01*
X000509Y003874D01*
X000510Y003874D02*
X000510Y005106D01*
X000512Y005129D01*
X000517Y005152D01*
X000526Y005174D01*
X000539Y005194D01*
X000554Y005212D01*
X000572Y005227D01*
X000592Y005240D01*
X000614Y005249D01*
X000637Y005254D01*
X000660Y005256D01*
X004500Y005256D01*
X004500Y005257D02*
X004524Y005252D01*
X004547Y005244D01*
X004568Y005233D01*
X004588Y005219D01*
X004606Y005202D01*
X004621Y005183D01*
X004634Y005162D01*
X004643Y005140D01*
X004649Y005116D01*
X004651Y005092D01*
X004650Y005067D01*
X004650Y005062D02*
X004650Y004730D01*
X004630Y004730D02*
X004600Y004728D01*
X004570Y004723D01*
X004541Y004714D01*
X004514Y004701D01*
X004488Y004686D01*
X004464Y004667D01*
X004443Y004646D01*
X004424Y004622D01*
X004409Y004596D01*
X004396Y004569D01*
X004387Y004540D01*
X004382Y004510D01*
X004380Y004480D01*
X004382Y004450D01*
X004387Y004420D01*
X004396Y004391D01*
X004409Y004364D01*
X004424Y004338D01*
X004443Y004314D01*
X004464Y004293D01*
X004488Y004274D01*
X004514Y004259D01*
X004541Y004246D01*
X004570Y004237D01*
X004600Y004232D01*
X004630Y004230D01*
M02*
