%
M48
M72
T01C0.0130
T02C0.0400
%
T01
X2980Y4790
X2897Y5173
X3880Y6140
X4180Y5840
X4330Y4840
X5130Y6240
X4780Y6840
X6230Y5090
X6130Y3790
X830Y5290
X830Y6240
T02
X780Y740
X780Y1790
X1780Y1790
X1780Y740
X2780Y740
X2780Y1790
X3780Y1790
X3780Y740
X4780Y740
X4780Y1790
X5780Y1790
X5780Y740
X6780Y740
X6780Y1790
M30
