G75*
%MOIN*%
%OFA0B0*%
%FSLAX24Y24*%
%IPPOS*%
%LPD*%
%AMOC8*
5,1,8,0,0,1.08239X$1,22.5*
%
%ADD10C,0.0040*%
%ADD11C,0.0030*%
%ADD12C,0.0050*%
D10*
X000600Y001430D02*
X000600Y001660D01*
X000676Y001737D01*
X000983Y001737D01*
X001060Y001660D01*
X001060Y001430D01*
X000600Y001430D01*
X000753Y001890D02*
X000600Y002044D01*
X001060Y002044D01*
X001060Y002197D02*
X001060Y001890D01*
X000983Y002351D02*
X001060Y002428D01*
X001060Y002581D01*
X000983Y002658D01*
X000907Y002658D01*
X000830Y002581D01*
X000830Y002504D01*
X000830Y002581D02*
X000753Y002658D01*
X000676Y002658D01*
X000600Y002581D01*
X000600Y002428D01*
X000676Y002351D01*
X001022Y003380D02*
X001176Y003533D01*
X001176Y003840D01*
X001329Y003764D02*
X001329Y003457D01*
X001406Y003380D01*
X001559Y003380D01*
X001636Y003457D01*
X001790Y003457D02*
X001866Y003380D01*
X002020Y003380D01*
X002097Y003457D01*
X002097Y003764D02*
X002020Y003840D01*
X001866Y003840D01*
X001790Y003764D01*
X001790Y003457D01*
X001636Y003764D02*
X001559Y003840D01*
X001406Y003840D01*
X001329Y003764D01*
X001022Y003380D02*
X000869Y003533D01*
X000869Y003840D01*
X000946Y004280D02*
X000869Y004357D01*
X000869Y004664D01*
X000946Y004740D01*
X001099Y004740D01*
X001176Y004664D01*
X001176Y004510D02*
X001022Y004510D01*
X001176Y004510D02*
X001176Y004357D01*
X001099Y004280D01*
X000946Y004280D01*
X001329Y004280D02*
X001329Y004740D01*
X001636Y004280D01*
X001636Y004740D01*
X001790Y004740D02*
X002020Y004740D01*
X002097Y004664D01*
X002097Y004357D01*
X002020Y004280D01*
X001790Y004280D01*
X001790Y004740D01*
X000860Y005657D02*
X000783Y005580D01*
X000630Y005580D01*
X000553Y005657D01*
X000553Y005810D01*
X000630Y005887D01*
X000707Y005887D01*
X000707Y005580D01*
X000860Y005657D02*
X000860Y005810D01*
X000783Y006040D02*
X000630Y006040D01*
X000553Y006117D01*
X000553Y006271D01*
X000630Y006347D01*
X000707Y006347D01*
X000707Y006040D01*
X000783Y006040D02*
X000860Y006117D01*
X000860Y006271D01*
X000860Y006501D02*
X000783Y006501D01*
X000476Y006808D01*
X000400Y006808D01*
X000400Y006501D01*
X000630Y006961D02*
X000553Y007038D01*
X000553Y007191D01*
X000630Y007268D01*
X000707Y007268D01*
X000707Y006961D01*
X000783Y006961D02*
X000630Y006961D01*
X000783Y006961D02*
X000860Y007038D01*
X000860Y007191D01*
X000783Y007422D02*
X000630Y007422D01*
X000553Y007498D01*
X000553Y007652D01*
X000630Y007728D01*
X000707Y007728D01*
X000707Y007422D01*
X000783Y007422D02*
X000860Y007498D01*
X000860Y007652D01*
X000860Y008342D02*
X000553Y008342D01*
X000553Y008419D01*
X000630Y008496D01*
X000553Y008573D01*
X000630Y008649D01*
X000860Y008649D01*
X000860Y008496D02*
X000630Y008496D01*
X000553Y008803D02*
X000553Y008879D01*
X000860Y008879D01*
X000860Y008803D02*
X000860Y008956D01*
X000783Y009110D02*
X000860Y009186D01*
X000860Y009417D01*
X000860Y009570D02*
X000553Y009570D01*
X000553Y009724D02*
X000553Y009800D01*
X000553Y009724D02*
X000707Y009570D01*
X000553Y009417D02*
X000553Y009186D01*
X000630Y009110D01*
X000783Y009110D01*
X000400Y008879D02*
X000323Y008879D01*
X000630Y009954D02*
X000553Y010030D01*
X000553Y010184D01*
X000630Y010261D01*
X000783Y010261D01*
X000860Y010184D01*
X000860Y010030D01*
X000783Y009954D01*
X000630Y009954D01*
X000553Y010414D02*
X000476Y010414D01*
X000400Y010491D01*
X000400Y010644D01*
X000476Y010721D01*
X000400Y010875D02*
X000400Y011105D01*
X000476Y011181D01*
X000783Y011181D01*
X000860Y011105D01*
X000860Y010875D01*
X000400Y010875D01*
X000630Y010644D02*
X000630Y010491D01*
X000553Y010414D01*
X000630Y010644D02*
X000707Y010721D01*
X000783Y010721D01*
X000860Y010644D01*
X000860Y010491D01*
X000783Y010414D01*
X000860Y006808D02*
X000860Y006501D01*
X001626Y002658D02*
X001550Y002581D01*
X001550Y002428D01*
X001626Y002351D01*
X001626Y002658D02*
X001703Y002658D01*
X002010Y002351D01*
X002010Y002658D01*
X002010Y002197D02*
X002010Y001890D01*
X002010Y002044D02*
X001550Y002044D01*
X001703Y001890D01*
X001626Y001737D02*
X001550Y001660D01*
X001550Y001430D01*
X002010Y001430D01*
X002010Y001660D01*
X001933Y001737D01*
X001626Y001737D01*
X002550Y001660D02*
X002550Y001430D01*
X003010Y001430D01*
X003010Y001660D01*
X002933Y001737D01*
X002626Y001737D01*
X002550Y001660D01*
X002703Y001890D02*
X002550Y002044D01*
X003010Y002044D01*
X003010Y002197D02*
X003010Y001890D01*
X003010Y002351D02*
X003010Y002658D01*
X003010Y002504D02*
X002550Y002504D01*
X002703Y002351D01*
X003550Y002428D02*
X003550Y002581D01*
X003626Y002658D01*
X003933Y002351D01*
X004010Y002428D01*
X004010Y002581D01*
X003933Y002658D01*
X003626Y002658D01*
X003550Y002428D02*
X003626Y002351D01*
X003933Y002351D01*
X004010Y002197D02*
X004010Y001890D01*
X004010Y002044D02*
X003550Y002044D01*
X003703Y001890D01*
X003626Y001737D02*
X003550Y001660D01*
X003550Y001430D01*
X004010Y001430D01*
X004010Y001660D01*
X003933Y001737D01*
X003626Y001737D01*
X004550Y001660D02*
X004550Y001430D01*
X005010Y001430D01*
X005010Y001660D01*
X004933Y001737D01*
X004626Y001737D01*
X004550Y001660D01*
X004626Y001890D02*
X004703Y001890D01*
X004780Y001967D01*
X004780Y002197D01*
X004933Y002197D02*
X004626Y002197D01*
X004550Y002121D01*
X004550Y001967D01*
X004626Y001890D01*
X004933Y001890D02*
X005010Y001967D01*
X005010Y002121D01*
X004933Y002197D01*
X005550Y002197D02*
X006010Y002504D01*
X005550Y002504D01*
X005550Y002197D02*
X006010Y002197D01*
X006010Y002044D02*
X006010Y001890D01*
X006010Y001967D02*
X005550Y001967D01*
X005550Y001890D02*
X005550Y002044D01*
X005550Y001737D02*
X005857Y001737D01*
X006010Y001583D01*
X005857Y001430D01*
X005550Y001430D01*
X006550Y001507D02*
X006626Y001430D01*
X006933Y001430D01*
X007010Y001507D01*
X007010Y001660D01*
X006933Y001737D01*
X006780Y001737D01*
X006780Y001583D01*
X006626Y001737D02*
X006550Y001660D01*
X006550Y001507D01*
X006550Y001890D02*
X007010Y002197D01*
X006550Y002197D01*
X006550Y002351D02*
X006550Y002581D01*
X006626Y002658D01*
X006933Y002658D01*
X007010Y002581D01*
X007010Y002351D01*
X006550Y002351D01*
X006550Y001890D02*
X007010Y001890D01*
D11*
X006980Y007025D02*
X006795Y007025D01*
X006795Y007272D01*
X006795Y007393D02*
X007042Y007393D01*
X007165Y007517D01*
X007042Y007640D01*
X006795Y007640D01*
X006980Y007272D02*
X007103Y007272D01*
X007165Y007210D01*
X007165Y007087D01*
X007103Y007025D01*
X006980Y007025D02*
X006918Y007148D01*
X006918Y007210D01*
X006980Y007272D01*
X006918Y008130D02*
X006856Y008130D01*
X006795Y008192D01*
X006795Y008315D01*
X006856Y008377D01*
X006918Y008498D02*
X006795Y008622D01*
X006918Y008745D01*
X007165Y008745D01*
X007165Y008867D02*
X006795Y008867D01*
X006795Y009113D01*
X006795Y009235D02*
X007165Y009235D01*
X007165Y009482D01*
X006980Y009358D02*
X006980Y009235D01*
X006795Y009235D02*
X006795Y009482D01*
X006980Y008990D02*
X006980Y008867D01*
X006980Y008745D02*
X006980Y008498D01*
X006918Y008498D02*
X007165Y008498D01*
X007103Y008377D02*
X007165Y008315D01*
X007165Y008192D01*
X007103Y008130D01*
X006980Y008192D02*
X006980Y008315D01*
X007042Y008377D01*
X007103Y008377D01*
X006980Y008192D02*
X006918Y008130D01*
X006218Y011425D02*
X006465Y011610D01*
X006218Y011795D01*
X005728Y011733D02*
X005728Y011548D01*
X005728Y011733D02*
X005667Y011795D01*
X005481Y011795D01*
X005481Y011548D01*
X005360Y011548D02*
X005175Y011548D01*
X005113Y011610D01*
X005113Y011795D01*
X004992Y011795D02*
X004868Y011795D01*
X004930Y011795D02*
X004930Y011425D01*
X004992Y011425D01*
X004746Y011610D02*
X004746Y011733D01*
X004684Y011795D01*
X004561Y011795D01*
X004499Y011733D01*
X004499Y011610D01*
X004561Y011548D01*
X004684Y011548D01*
X004746Y011610D01*
X004378Y011610D02*
X004378Y011733D01*
X004316Y011795D01*
X004131Y011795D01*
X004010Y011795D02*
X004010Y011425D01*
X004131Y011548D02*
X004316Y011548D01*
X004378Y011610D01*
X004010Y011672D02*
X003824Y011548D01*
X004010Y011672D02*
X003824Y011795D01*
X002966Y011795D02*
X002843Y011795D01*
X002904Y011795D02*
X002904Y011425D01*
X002966Y011425D01*
X002720Y011610D02*
X002720Y011733D01*
X002659Y011795D01*
X002535Y011795D01*
X002474Y011733D01*
X002474Y011610D01*
X002535Y011548D01*
X002659Y011548D01*
X002720Y011610D01*
X002352Y011610D02*
X002352Y011733D01*
X002290Y011795D01*
X002105Y011795D01*
X001984Y011795D02*
X001984Y011425D01*
X002105Y011548D02*
X002290Y011548D01*
X002352Y011610D01*
X001984Y011672D02*
X001799Y011548D01*
X001984Y011672D02*
X001799Y011795D01*
X001309Y011795D02*
X001062Y011610D01*
X001309Y011425D01*
X005360Y011548D02*
X005360Y011795D01*
D12*
X005139Y011034D02*
X002974Y011034D01*
X001950Y011034D02*
X001045Y011034D01*
X001025Y011034D02*
X001025Y005660D01*
X001950Y005660D01*
X002974Y005660D02*
X005139Y005660D01*
X006321Y005660D02*
X006714Y005660D01*
X006714Y005857D01*
X006517Y005857D01*
X006461Y006077D01*
X006410Y006298D01*
X006364Y006521D01*
X006324Y006744D01*
X006289Y006969D01*
X006260Y007194D01*
X006235Y007420D01*
X006216Y007646D01*
X006203Y007873D01*
X006195Y008100D01*
X006192Y008327D01*
X006195Y008554D01*
X006203Y008781D01*
X006216Y009008D01*
X006235Y009234D01*
X006260Y009460D01*
X006289Y009685D01*
X006324Y009910D01*
X006364Y010133D01*
X006410Y010356D01*
X006461Y010577D01*
X006517Y010797D01*
X006517Y010798D02*
X006714Y010798D01*
X006714Y011034D01*
X006321Y011034D01*
M02*
