G75*
%MOIN*%
%OFA0B0*%
%FSLAX24Y24*%
%IPPOS*%
%LPD*%
%AMOC8*
5,1,8,0,0,1.08239X$1,22.5*
%
%ADD10C,0.0040*%
%ADD11C,0.0030*%
%ADD12C,0.0100*%
%ADD13C,0.0050*%
D10*
X000550Y001410D02*
X000550Y001640D01*
X000626Y001717D01*
X000933Y001717D01*
X001010Y001640D01*
X001010Y001410D01*
X000550Y001410D01*
X000703Y001870D02*
X000550Y002024D01*
X001010Y002024D01*
X001010Y002177D02*
X001010Y001870D01*
X000933Y002331D02*
X001010Y002408D01*
X001010Y002561D01*
X000933Y002638D01*
X000857Y002638D01*
X000780Y002561D01*
X000780Y002484D01*
X000780Y002561D02*
X000703Y002638D01*
X000626Y002638D01*
X000550Y002561D01*
X000550Y002408D01*
X000626Y002331D01*
X001550Y002408D02*
X001626Y002331D01*
X001550Y002408D02*
X001550Y002561D01*
X001626Y002638D01*
X001703Y002638D01*
X002010Y002331D01*
X002010Y002638D01*
X002010Y002177D02*
X002010Y001870D01*
X002010Y002024D02*
X001550Y002024D01*
X001703Y001870D01*
X001626Y001717D02*
X001550Y001640D01*
X001550Y001410D01*
X002010Y001410D01*
X002010Y001640D01*
X001933Y001717D01*
X001626Y001717D01*
X002550Y001640D02*
X002550Y001410D01*
X003010Y001410D01*
X003010Y001640D01*
X002933Y001717D01*
X002626Y001717D01*
X002550Y001640D01*
X002703Y001870D02*
X002550Y002024D01*
X003010Y002024D01*
X003010Y002177D02*
X003010Y001870D01*
X003010Y002331D02*
X003010Y002638D01*
X003010Y002484D02*
X002550Y002484D01*
X002703Y002331D01*
X003380Y003560D02*
X003567Y003560D01*
X003675Y003607D02*
X003861Y003794D01*
X003815Y003840D01*
X003721Y003840D01*
X003675Y003794D01*
X003675Y003607D01*
X003721Y003560D01*
X003815Y003560D01*
X003861Y003607D01*
X003861Y003794D01*
X003969Y003700D02*
X004156Y003700D01*
X004109Y003560D02*
X004109Y003840D01*
X003969Y003700D01*
X003473Y003840D02*
X003473Y003560D01*
X003380Y003747D02*
X003473Y003840D01*
X003626Y002638D02*
X003550Y002561D01*
X003550Y002408D01*
X003626Y002331D01*
X003933Y002331D01*
X003626Y002638D01*
X003933Y002638D01*
X004010Y002561D01*
X004010Y002408D01*
X003933Y002331D01*
X004010Y002177D02*
X004010Y001870D01*
X004010Y002024D02*
X003550Y002024D01*
X003703Y001870D01*
X003626Y001717D02*
X003550Y001640D01*
X003550Y001410D01*
X004010Y001410D01*
X004010Y001640D01*
X003933Y001717D01*
X003626Y001717D01*
X004550Y001640D02*
X004550Y001410D01*
X005010Y001410D01*
X005010Y001640D01*
X004933Y001717D01*
X004626Y001717D01*
X004550Y001640D01*
X004626Y001870D02*
X004703Y001870D01*
X004780Y001947D01*
X004780Y002177D01*
X004933Y002177D02*
X004626Y002177D01*
X004550Y002101D01*
X004550Y001947D01*
X004626Y001870D01*
X004933Y001870D02*
X005010Y001947D01*
X005010Y002101D01*
X004933Y002177D01*
X005550Y002177D02*
X006010Y002484D01*
X005550Y002484D01*
X005550Y002177D02*
X006010Y002177D01*
X006010Y002024D02*
X006010Y001870D01*
X006010Y001947D02*
X005550Y001947D01*
X005550Y001870D02*
X005550Y002024D01*
X005550Y001717D02*
X005857Y001717D01*
X006010Y001563D01*
X005857Y001410D01*
X005550Y001410D01*
X006550Y001487D02*
X006626Y001410D01*
X006933Y001410D01*
X007010Y001487D01*
X007010Y001640D01*
X006933Y001717D01*
X006780Y001717D01*
X006780Y001563D01*
X006626Y001717D02*
X006550Y001640D01*
X006550Y001487D01*
X006550Y001870D02*
X007010Y002177D01*
X006550Y002177D01*
X006550Y002331D02*
X006550Y002561D01*
X006626Y002638D01*
X006933Y002638D01*
X007010Y002561D01*
X007010Y002331D01*
X006550Y002331D01*
X006550Y001870D02*
X007010Y001870D01*
X005446Y006260D02*
X005140Y006260D01*
X005140Y006336D01*
X005446Y006643D01*
X005446Y006720D01*
X005140Y006720D01*
X004986Y006643D02*
X004986Y006490D01*
X004909Y006413D01*
X004756Y006413D01*
X004679Y006490D01*
X004679Y006567D01*
X004986Y006567D01*
X004986Y006643D02*
X004909Y006720D01*
X004756Y006720D01*
X004526Y006643D02*
X004526Y006490D01*
X004449Y006413D01*
X004295Y006413D01*
X004219Y006490D01*
X004219Y006567D01*
X004526Y006567D01*
X004526Y006643D02*
X004449Y006720D01*
X004295Y006720D01*
X004065Y006720D02*
X004065Y006260D01*
X003912Y006413D01*
X003758Y006260D01*
X003758Y006720D01*
X003605Y006720D02*
X003451Y006720D01*
X003528Y006720D02*
X003528Y006413D01*
X003605Y006413D01*
X003528Y006260D02*
X003528Y006183D01*
X003221Y006413D02*
X003298Y006490D01*
X003298Y006643D01*
X003221Y006720D01*
X002991Y006720D01*
X002838Y006720D02*
X002838Y006413D01*
X002838Y006567D02*
X002684Y006413D01*
X002607Y006413D01*
X002454Y006490D02*
X002454Y006643D01*
X002377Y006720D01*
X002224Y006720D01*
X002147Y006643D01*
X002147Y006490D01*
X002224Y006413D01*
X002377Y006413D01*
X002454Y006490D01*
X001994Y006413D02*
X001994Y006336D01*
X001917Y006260D01*
X001763Y006260D01*
X001687Y006336D01*
X001763Y006490D02*
X001687Y006567D01*
X001687Y006643D01*
X001763Y006720D01*
X001917Y006720D01*
X001994Y006643D01*
X001917Y006490D02*
X001763Y006490D01*
X001917Y006490D02*
X001994Y006413D01*
X001533Y006260D02*
X001303Y006260D01*
X001226Y006336D01*
X001226Y006643D01*
X001303Y006720D01*
X001533Y006720D01*
X001533Y006260D01*
X000660Y006309D02*
X000473Y006309D01*
X000380Y006216D01*
X000473Y006123D01*
X000660Y006123D01*
X000613Y006015D02*
X000567Y006015D01*
X000520Y005968D01*
X000520Y005875D01*
X000473Y005828D01*
X000426Y005828D01*
X000380Y005875D01*
X000380Y005968D01*
X000426Y006015D01*
X000520Y006123D02*
X000520Y006309D01*
X000613Y006015D02*
X000660Y005968D01*
X000660Y005875D01*
X000613Y005828D01*
X000520Y005720D02*
X000520Y005533D01*
X000426Y005425D02*
X000380Y005425D01*
X000426Y005425D02*
X000520Y005332D01*
X000660Y005332D01*
X000520Y005332D02*
X000426Y005239D01*
X000380Y005239D01*
X000426Y005131D02*
X000473Y005131D01*
X000520Y005084D01*
X000520Y004944D01*
X000520Y004836D02*
X000520Y004649D01*
X000426Y004541D02*
X000380Y004495D01*
X000380Y004401D01*
X000426Y004355D01*
X000613Y004355D01*
X000660Y004401D01*
X000660Y004495D01*
X000613Y004541D01*
X000613Y004247D02*
X000660Y004200D01*
X000660Y004107D01*
X000613Y004060D01*
X000426Y004060D01*
X000380Y004107D01*
X000380Y004200D01*
X000426Y004247D01*
X000380Y004944D02*
X000380Y005084D01*
X000426Y005131D01*
X000520Y005084D02*
X000567Y005131D01*
X000613Y005131D01*
X000660Y005084D01*
X000660Y004944D01*
X000380Y004944D01*
X002991Y006413D02*
X003221Y006413D01*
X005600Y006490D02*
X005600Y006567D01*
X005907Y006567D01*
X005907Y006643D02*
X005830Y006720D01*
X005677Y006720D01*
X005600Y006490D02*
X005677Y006413D01*
X005830Y006413D01*
X005907Y006490D01*
X005907Y006643D01*
X006060Y006567D02*
X006060Y006490D01*
X006137Y006413D01*
X006291Y006413D01*
X006367Y006490D01*
X006367Y006643D01*
X006291Y006720D01*
X006137Y006720D01*
X006060Y006567D02*
X006367Y006567D01*
D11*
X006795Y006312D02*
X006795Y006065D01*
X007165Y006065D01*
X007165Y006312D01*
X006980Y006188D02*
X006980Y006065D01*
X006980Y005820D02*
X006980Y005697D01*
X006980Y005575D02*
X006980Y005328D01*
X006918Y005328D02*
X006795Y005452D01*
X006918Y005575D01*
X007165Y005575D01*
X007165Y005697D02*
X006795Y005697D01*
X006795Y005943D01*
X006918Y005328D02*
X007165Y005328D01*
X007103Y005207D02*
X007165Y005145D01*
X007165Y005022D01*
X007103Y004960D01*
X006980Y005022D02*
X006980Y005145D01*
X007042Y005207D01*
X007103Y005207D01*
X006980Y005022D02*
X006918Y004960D01*
X006856Y004960D01*
X006795Y005022D01*
X006795Y005145D01*
X006856Y005207D01*
X006795Y004470D02*
X007042Y004470D01*
X007165Y004347D01*
X007042Y004223D01*
X006795Y004223D01*
X006795Y004102D02*
X006795Y003855D01*
X006980Y003855D01*
X006918Y003978D01*
X006918Y004040D01*
X006980Y004102D01*
X007103Y004102D01*
X007165Y004040D01*
X007165Y003917D01*
X007103Y003855D01*
X007169Y003325D02*
X006984Y003325D01*
X006984Y002955D01*
X007169Y002955D01*
X007231Y003017D01*
X007231Y003078D01*
X007169Y003140D01*
X006984Y003140D01*
X006863Y003140D02*
X006616Y003140D01*
X006801Y003325D01*
X006801Y002955D01*
X006493Y002955D02*
X006432Y002955D01*
X006432Y003017D01*
X006493Y003017D01*
X006493Y002955D01*
X006310Y003017D02*
X006248Y002955D01*
X006125Y002955D01*
X006063Y003017D01*
X006310Y003264D01*
X006310Y003017D01*
X006310Y003264D02*
X006248Y003325D01*
X006125Y003325D01*
X006063Y003264D01*
X006063Y003017D01*
X005942Y002955D02*
X005818Y003078D01*
X005880Y003078D02*
X005695Y003078D01*
X005695Y002955D02*
X005695Y003325D01*
X005880Y003325D01*
X005942Y003264D01*
X005942Y003140D01*
X005880Y003078D01*
X007169Y003140D02*
X007231Y003202D01*
X007231Y003264D01*
X007169Y003325D01*
D12*
X001971Y002978D02*
X001817Y003167D01*
X001856Y003243D01*
X001597Y003350D01*
X001575Y003310D01*
X001546Y003274D01*
X001510Y003245D01*
X001470Y003223D01*
X001426Y003210D01*
X001380Y003206D01*
X001330Y003211D01*
X001282Y003227D01*
X001239Y003253D01*
X001202Y003288D01*
X001173Y003330D01*
X001154Y003376D01*
X001146Y003426D01*
X001149Y003477D01*
X001162Y003525D01*
X001185Y003570D01*
X001218Y003609D01*
X001258Y003640D01*
X001303Y003661D01*
X001352Y003673D01*
X001403Y003673D01*
X001452Y003663D01*
X001499Y003642D01*
X001539Y003612D01*
X001572Y003574D01*
X001597Y003530D01*
X001856Y003637D01*
X001817Y003713D01*
X001971Y003902D01*
X001842Y004031D01*
X001653Y003877D01*
X001577Y003916D01*
X001496Y003942D01*
X001471Y004184D01*
X001289Y004184D01*
X001264Y003942D01*
X001183Y003916D01*
X001107Y003877D01*
X000918Y004031D01*
X000789Y003902D01*
X000943Y003713D01*
X000904Y003637D01*
X000878Y003556D01*
X000636Y003531D01*
X000636Y003349D01*
X000878Y003324D01*
X000904Y003243D01*
X000943Y003167D01*
X000789Y002978D01*
X000918Y002849D01*
X001107Y003003D01*
X001183Y002964D01*
X001264Y002938D01*
X001289Y002696D01*
X001471Y002696D01*
X001496Y002938D01*
X001577Y002964D01*
X001653Y003003D01*
X001842Y002849D01*
X001971Y002978D01*
X001956Y002997D02*
X001661Y002997D01*
X001641Y002997D02*
X001119Y002997D01*
X001099Y002997D02*
X000804Y002997D01*
X000869Y002898D02*
X000978Y002898D01*
X000884Y003095D02*
X001876Y003095D01*
X001831Y003194D02*
X000929Y003194D01*
X000888Y003292D02*
X001199Y003292D01*
X001152Y003391D02*
X000636Y003391D01*
X000636Y003489D02*
X001152Y003489D01*
X001200Y003588D02*
X000888Y003588D01*
X000929Y003686D02*
X001831Y003686D01*
X001875Y003785D02*
X000885Y003785D01*
X000804Y003883D02*
X001100Y003883D01*
X001118Y003883D02*
X001642Y003883D01*
X001660Y003883D02*
X001956Y003883D01*
X001891Y003982D02*
X001781Y003982D01*
X001736Y003588D02*
X001561Y003588D01*
X001560Y003292D02*
X001737Y003292D01*
X001782Y002898D02*
X001891Y002898D01*
X001492Y002898D02*
X001268Y002898D01*
X001278Y002800D02*
X001482Y002800D01*
X001472Y002701D02*
X001288Y002701D01*
X001268Y003982D02*
X001492Y003982D01*
X001482Y004080D02*
X001278Y004080D01*
X001288Y004179D02*
X001472Y004179D01*
X000979Y003982D02*
X000869Y003982D01*
D13*
X001618Y004275D02*
X001618Y004727D01*
X001618Y004275D02*
X002248Y004275D01*
X002425Y004176D02*
X002425Y003940D01*
X005299Y003940D01*
X005299Y004176D01*
X005712Y004275D02*
X006106Y004275D01*
X006106Y004570D01*
X006106Y005160D02*
X006106Y005594D01*
X005634Y006086D02*
X002169Y006086D01*
M02*
