G75*
%MOIN*%
%OFA0B0*%
%FSLAX24Y24*%
%IPPOS*%
%LPD*%
%AMOC8*
5,1,8,0,0,1.08239X$1,22.5*
%
%ADD10OC8,0.0600*%
%ADD11R,0.0272X0.0390*%
%ADD12R,0.0250X0.0500*%
%ADD13R,0.0394X0.0433*%
%ADD14R,0.0236X0.0472*%
%ADD15C,0.0100*%
%ADD16C,0.0270*%
D10*
X000780Y000740D03*
X000780Y001790D03*
X001780Y001790D03*
X001780Y000740D03*
X002780Y000740D03*
X002780Y001790D03*
X003780Y001790D03*
X003780Y000740D03*
X004780Y000740D03*
X004780Y001790D03*
X005780Y001790D03*
X005780Y000740D03*
X006780Y000740D03*
X006780Y001790D03*
D11*
X006604Y005378D03*
X006230Y005378D03*
X005856Y005378D03*
X005856Y006402D03*
X006604Y006402D03*
D12*
X006130Y004290D03*
X005780Y004290D03*
X005430Y004290D03*
D13*
X004930Y005305D03*
X004930Y005975D03*
X005895Y007040D03*
X006565Y007040D03*
D14*
X004330Y006642D03*
X003830Y006642D03*
X003330Y006642D03*
X002830Y006642D03*
X002330Y006642D03*
X001830Y006642D03*
X001330Y006642D03*
X000830Y006642D03*
X000830Y004438D03*
X001330Y004438D03*
X001830Y004438D03*
X002330Y004438D03*
X002830Y004438D03*
X003330Y004438D03*
X003830Y004438D03*
X004330Y004438D03*
D15*
X004330Y004840D01*
X004395Y004905D01*
X004930Y005305D01*
X005480Y005190D02*
X004780Y004490D01*
X004780Y001790D01*
X004780Y000740D01*
X003780Y000740D02*
X003780Y001790D01*
X003780Y003140D01*
X003330Y003590D01*
X003330Y004438D01*
X002980Y004790D02*
X002830Y004640D01*
X002830Y004438D01*
X002980Y005090D02*
X002897Y005173D01*
X002980Y005090D02*
X003430Y005090D01*
X003830Y004740D01*
X003830Y004438D01*
X004180Y005840D02*
X002230Y005840D01*
X001830Y005440D01*
X001830Y004438D01*
X002330Y004438D02*
X002330Y003740D01*
X002780Y003290D01*
X002780Y001790D01*
X002780Y000740D01*
X001780Y000740D02*
X001780Y001790D01*
X001780Y003390D01*
X001580Y003590D01*
X001580Y005490D01*
X002130Y006040D01*
X003780Y006040D01*
X003880Y006140D01*
X003330Y006240D02*
X003330Y006642D01*
X003330Y006240D02*
X001830Y006240D01*
X001830Y006642D01*
X001830Y006240D02*
X000830Y006240D01*
X000830Y006642D01*
X000830Y005290D02*
X000830Y004438D01*
X001330Y004438D02*
X001330Y003590D01*
X000780Y003040D01*
X000780Y001790D01*
X000780Y000740D01*
X004780Y006840D02*
X005080Y006840D01*
X005480Y006290D01*
X005480Y005190D01*
X005530Y004740D02*
X006330Y004740D01*
X006604Y005014D01*
X006604Y005378D01*
X006230Y005378D02*
X006230Y005090D01*
X005856Y005378D02*
X005856Y005766D01*
X006230Y006140D01*
X006230Y006690D01*
X005895Y007025D01*
X005895Y007040D01*
X006565Y007040D02*
X006604Y007001D01*
X006604Y006402D01*
X006880Y006126D01*
X006880Y004790D01*
X006380Y004290D01*
X006130Y004290D01*
X006130Y003790D01*
X005780Y004290D02*
X005780Y001790D01*
X005780Y000740D01*
X005430Y004290D02*
X005430Y004640D01*
X005530Y004740D01*
X004930Y005975D02*
X004880Y005990D01*
X005130Y006240D01*
D16*
X005130Y006240D03*
X004780Y006840D03*
X004180Y005840D03*
X003880Y006140D03*
X004330Y004840D03*
X002980Y004790D03*
X002897Y005173D03*
X000830Y005290D03*
X000830Y006240D03*
X006130Y003790D03*
X006230Y005090D03*
M02*
