G75*
%MOIN*%
%OFA0B0*%
%FSLAX24Y24*%
%IPPOS*%
%LPD*%
%AMOC8*
5,1,8,0,0,1.08239X$1,22.5*
%
%ADD10C,0.0040*%
%ADD11C,0.0030*%
%ADD12C,0.0100*%
%ADD13C,0.0050*%
D10*
X000550Y002460D02*
X000550Y002690D01*
X000626Y002767D01*
X000933Y002767D01*
X001010Y002690D01*
X001010Y002460D01*
X000550Y002460D01*
X000703Y002920D02*
X000550Y003074D01*
X001010Y003074D01*
X001010Y003227D02*
X001010Y002920D01*
X000933Y003381D02*
X001010Y003458D01*
X001010Y003611D01*
X000933Y003688D01*
X000857Y003688D01*
X000780Y003611D01*
X000780Y003534D01*
X000780Y003611D02*
X000703Y003688D01*
X000626Y003688D01*
X000550Y003611D01*
X000550Y003458D01*
X000626Y003381D01*
X001550Y003458D02*
X001626Y003381D01*
X001550Y003458D02*
X001550Y003611D01*
X001626Y003688D01*
X001703Y003688D01*
X002010Y003381D01*
X002010Y003688D01*
X002010Y003227D02*
X002010Y002920D01*
X002010Y003074D02*
X001550Y003074D01*
X001703Y002920D01*
X001626Y002767D02*
X001550Y002690D01*
X001550Y002460D01*
X002010Y002460D01*
X002010Y002690D01*
X001933Y002767D01*
X001626Y002767D01*
X002550Y002690D02*
X002550Y002460D01*
X003010Y002460D01*
X003010Y002690D01*
X002933Y002767D01*
X002626Y002767D01*
X002550Y002690D01*
X002703Y002920D02*
X002550Y003074D01*
X003010Y003074D01*
X003010Y003227D02*
X003010Y002920D01*
X003010Y003381D02*
X003010Y003688D01*
X003010Y003534D02*
X002550Y003534D01*
X002703Y003381D01*
X002723Y004560D02*
X002723Y004840D01*
X002630Y004747D01*
X002630Y004560D02*
X002817Y004560D01*
X002925Y004607D02*
X003111Y004794D01*
X003111Y004607D01*
X003065Y004560D01*
X002971Y004560D01*
X002925Y004607D01*
X002925Y004794D01*
X002971Y004840D01*
X003065Y004840D01*
X003111Y004794D01*
X003219Y004700D02*
X003406Y004700D01*
X003359Y004560D02*
X003359Y004840D01*
X003219Y004700D01*
X003626Y003688D02*
X003933Y003381D01*
X004010Y003458D01*
X004010Y003611D01*
X003933Y003688D01*
X003626Y003688D01*
X003550Y003611D01*
X003550Y003458D01*
X003626Y003381D01*
X003933Y003381D01*
X004010Y003227D02*
X004010Y002920D01*
X004010Y003074D02*
X003550Y003074D01*
X003703Y002920D01*
X003626Y002767D02*
X003550Y002690D01*
X003550Y002460D01*
X004010Y002460D01*
X004010Y002690D01*
X003933Y002767D01*
X003626Y002767D01*
X004550Y002690D02*
X004550Y002460D01*
X005010Y002460D01*
X005010Y002690D01*
X004933Y002767D01*
X004626Y002767D01*
X004550Y002690D01*
X004626Y002920D02*
X004550Y002997D01*
X004550Y003151D01*
X004626Y003227D01*
X004933Y003227D01*
X005010Y003151D01*
X005010Y002997D01*
X004933Y002920D01*
X004780Y002997D02*
X004780Y003227D01*
X004780Y002997D02*
X004703Y002920D01*
X004626Y002920D01*
X005550Y002920D02*
X005550Y003074D01*
X005550Y002997D02*
X006010Y002997D01*
X006010Y002920D02*
X006010Y003074D01*
X006010Y003227D02*
X005550Y003227D01*
X006010Y003534D01*
X005550Y003534D01*
X005550Y002767D02*
X005857Y002767D01*
X006010Y002613D01*
X005857Y002460D01*
X005550Y002460D01*
X006550Y002537D02*
X006626Y002460D01*
X006933Y002460D01*
X007010Y002537D01*
X007010Y002690D01*
X006933Y002767D01*
X006780Y002767D01*
X006780Y002613D01*
X006626Y002767D02*
X006550Y002690D01*
X006550Y002537D01*
X006550Y002920D02*
X007010Y003227D01*
X006550Y003227D01*
X006550Y003381D02*
X006550Y003611D01*
X006626Y003688D01*
X006933Y003688D01*
X007010Y003611D01*
X007010Y003381D01*
X006550Y003381D01*
X006550Y002920D02*
X007010Y002920D01*
X005379Y004610D02*
X005426Y004657D01*
X005426Y004703D01*
X005379Y004750D01*
X005239Y004750D01*
X005239Y004657D01*
X005286Y004610D01*
X005379Y004610D01*
X005239Y004750D02*
X005333Y004844D01*
X005426Y004890D01*
X005131Y004844D02*
X005131Y004657D01*
X005085Y004610D01*
X004991Y004610D01*
X004945Y004657D01*
X005131Y004844D01*
X005085Y004890D01*
X004991Y004890D01*
X004945Y004844D01*
X004945Y004657D01*
X004837Y004610D02*
X004650Y004610D01*
X004743Y004610D02*
X004743Y004890D01*
X004650Y004797D01*
X003528Y007233D02*
X003528Y007310D01*
X003528Y007463D02*
X003528Y007770D01*
X003605Y007770D02*
X003451Y007770D01*
X003298Y007693D02*
X003298Y007540D01*
X003221Y007463D01*
X002991Y007463D01*
X002838Y007463D02*
X002838Y007770D01*
X002838Y007617D02*
X002684Y007463D01*
X002607Y007463D01*
X002454Y007540D02*
X002454Y007693D01*
X002377Y007770D01*
X002224Y007770D01*
X002147Y007693D01*
X002147Y007540D01*
X002224Y007463D01*
X002377Y007463D01*
X002454Y007540D01*
X001994Y007463D02*
X001917Y007540D01*
X001763Y007540D01*
X001687Y007617D01*
X001687Y007693D01*
X001763Y007770D01*
X001917Y007770D01*
X001994Y007693D01*
X001994Y007463D02*
X001994Y007386D01*
X001917Y007310D01*
X001763Y007310D01*
X001687Y007386D01*
X001533Y007310D02*
X001303Y007310D01*
X001226Y007386D01*
X001226Y007693D01*
X001303Y007770D01*
X001533Y007770D01*
X001533Y007310D01*
X000660Y007359D02*
X000473Y007359D01*
X000380Y007266D01*
X000473Y007173D01*
X000660Y007173D01*
X000613Y007065D02*
X000567Y007065D01*
X000520Y007018D01*
X000520Y006925D01*
X000473Y006878D01*
X000426Y006878D01*
X000380Y006925D01*
X000380Y007018D01*
X000426Y007065D01*
X000520Y007173D02*
X000520Y007359D01*
X000613Y007065D02*
X000660Y007018D01*
X000660Y006925D01*
X000613Y006878D01*
X000520Y006770D02*
X000520Y006583D01*
X000426Y006475D02*
X000380Y006475D01*
X000426Y006475D02*
X000520Y006382D01*
X000660Y006382D01*
X000613Y006181D02*
X000567Y006181D01*
X000520Y006134D01*
X000520Y005994D01*
X000520Y005886D02*
X000520Y005699D01*
X000426Y005591D02*
X000380Y005545D01*
X000380Y005451D01*
X000426Y005405D01*
X000613Y005405D01*
X000660Y005451D01*
X000660Y005545D01*
X000613Y005591D01*
X000613Y005297D02*
X000660Y005250D01*
X000660Y005157D01*
X000613Y005110D01*
X000426Y005110D01*
X000380Y005157D01*
X000380Y005250D01*
X000426Y005297D01*
X000380Y005994D02*
X000380Y006134D01*
X000426Y006181D01*
X000473Y006181D01*
X000520Y006134D01*
X000660Y005994D02*
X000380Y005994D01*
X000660Y005994D02*
X000660Y006134D01*
X000613Y006181D01*
X000426Y006289D02*
X000520Y006382D01*
X000426Y006289D02*
X000380Y006289D01*
X002991Y007770D02*
X003221Y007770D01*
X003298Y007693D01*
X003528Y007463D02*
X003605Y007463D01*
X003758Y007310D02*
X003758Y007770D01*
X003912Y007463D02*
X003758Y007310D01*
X003912Y007463D02*
X004065Y007310D01*
X004065Y007770D01*
X004219Y007617D02*
X004219Y007540D01*
X004295Y007463D01*
X004449Y007463D01*
X004526Y007540D01*
X004526Y007693D01*
X004449Y007770D01*
X004295Y007770D01*
X004219Y007617D02*
X004526Y007617D01*
X004679Y007617D02*
X004679Y007540D01*
X004756Y007463D01*
X004909Y007463D01*
X004986Y007540D01*
X004986Y007693D01*
X004909Y007770D01*
X004756Y007770D01*
X004679Y007617D02*
X004986Y007617D01*
X005140Y007770D02*
X005446Y007770D01*
X005446Y007693D01*
X005140Y007386D01*
X005140Y007310D01*
X005446Y007310D01*
X005600Y007540D02*
X005600Y007617D01*
X005907Y007617D01*
X005907Y007693D02*
X005907Y007540D01*
X005830Y007463D01*
X005677Y007463D01*
X005600Y007540D01*
X005677Y007770D02*
X005830Y007770D01*
X005907Y007693D01*
X006060Y007617D02*
X006060Y007540D01*
X006137Y007463D01*
X006291Y007463D01*
X006367Y007540D01*
X006367Y007693D01*
X006291Y007770D01*
X006137Y007770D01*
X006060Y007617D02*
X006367Y007617D01*
D11*
X006795Y007362D02*
X006795Y007115D01*
X007165Y007115D01*
X007165Y007362D01*
X006980Y007238D02*
X006980Y007115D01*
X006980Y006870D02*
X006980Y006747D01*
X006980Y006625D02*
X006980Y006378D01*
X006918Y006378D02*
X006795Y006502D01*
X006918Y006625D01*
X007165Y006625D01*
X007165Y006747D02*
X006795Y006747D01*
X006795Y006993D01*
X006918Y006378D02*
X007165Y006378D01*
X007103Y006257D02*
X007165Y006195D01*
X007165Y006072D01*
X007103Y006010D01*
X006980Y006072D02*
X006980Y006195D01*
X007042Y006257D01*
X007103Y006257D01*
X006980Y006072D02*
X006918Y006010D01*
X006856Y006010D01*
X006795Y006072D01*
X006795Y006195D01*
X006856Y006257D01*
X006795Y005520D02*
X007042Y005520D01*
X007165Y005397D01*
X007042Y005273D01*
X006795Y005273D01*
X006795Y005152D02*
X006795Y004905D01*
X006980Y004905D01*
X006918Y005028D01*
X006918Y005090D01*
X006980Y005152D01*
X007103Y005152D01*
X007165Y005090D01*
X007165Y004967D01*
X007103Y004905D01*
X007169Y004375D02*
X006984Y004375D01*
X006984Y004005D01*
X007169Y004005D01*
X007231Y004067D01*
X007231Y004128D01*
X007169Y004190D01*
X006984Y004190D01*
X006863Y004128D02*
X006863Y004067D01*
X006801Y004005D01*
X006678Y004005D01*
X006616Y004067D01*
X006493Y004067D02*
X006493Y004005D01*
X006432Y004005D01*
X006432Y004067D01*
X006493Y004067D01*
X006310Y004067D02*
X006310Y004314D01*
X006063Y004067D01*
X006125Y004005D01*
X006248Y004005D01*
X006310Y004067D01*
X006310Y004314D02*
X006248Y004375D01*
X006125Y004375D01*
X006063Y004314D01*
X006063Y004067D01*
X005942Y004005D02*
X005818Y004128D01*
X005880Y004128D02*
X005695Y004128D01*
X005695Y004005D02*
X005695Y004375D01*
X005880Y004375D01*
X005942Y004314D01*
X005942Y004190D01*
X005880Y004128D01*
X006616Y004314D02*
X006678Y004375D01*
X006801Y004375D01*
X006863Y004314D01*
X006863Y004252D01*
X006801Y004190D01*
X006863Y004128D01*
X006801Y004190D02*
X006739Y004190D01*
X007169Y004190D02*
X007231Y004252D01*
X007231Y004314D01*
X007169Y004375D01*
D12*
X001971Y004028D02*
X001817Y004217D01*
X001856Y004293D01*
X001597Y004400D01*
X001575Y004360D01*
X001546Y004324D01*
X001510Y004295D01*
X001470Y004273D01*
X001426Y004260D01*
X001380Y004256D01*
X001330Y004261D01*
X001282Y004277D01*
X001239Y004303D01*
X001202Y004338D01*
X001173Y004380D01*
X001154Y004426D01*
X001146Y004476D01*
X001149Y004527D01*
X001162Y004575D01*
X001185Y004620D01*
X001218Y004659D01*
X001258Y004690D01*
X001303Y004711D01*
X001352Y004723D01*
X001403Y004723D01*
X001452Y004713D01*
X001499Y004692D01*
X001539Y004662D01*
X001572Y004624D01*
X001597Y004580D01*
X001856Y004687D01*
X001817Y004763D01*
X001971Y004952D01*
X001842Y005081D01*
X001653Y004927D01*
X001577Y004966D01*
X001496Y004992D01*
X001471Y005234D01*
X001289Y005234D01*
X001264Y004992D01*
X001183Y004966D01*
X001107Y004927D01*
X000918Y005081D01*
X000789Y004952D01*
X000943Y004763D01*
X000904Y004687D01*
X000878Y004606D01*
X000636Y004581D01*
X000636Y004399D01*
X000878Y004374D01*
X000904Y004293D01*
X000943Y004217D01*
X000789Y004028D01*
X000918Y003899D01*
X001107Y004053D01*
X001183Y004014D01*
X001264Y003988D01*
X001289Y003746D01*
X001471Y003746D01*
X001496Y003988D01*
X001577Y004014D01*
X001653Y004053D01*
X001842Y003899D01*
X001971Y004028D01*
X001924Y003982D02*
X001741Y003982D01*
X001848Y004179D02*
X000912Y004179D01*
X000912Y004277D02*
X001282Y004277D01*
X001176Y004376D02*
X000863Y004376D01*
X000898Y004671D02*
X001233Y004671D01*
X001161Y004573D02*
X000636Y004573D01*
X000636Y004474D02*
X001146Y004474D01*
X000938Y004770D02*
X001822Y004770D01*
X001817Y004671D02*
X001527Y004671D01*
X001583Y004376D02*
X001656Y004376D01*
X001476Y004277D02*
X001848Y004277D01*
X001929Y004080D02*
X000831Y004080D01*
X000836Y003982D02*
X001019Y003982D01*
X001265Y003982D02*
X001495Y003982D01*
X001485Y003883D02*
X001275Y003883D01*
X001285Y003785D02*
X001475Y003785D01*
X001903Y004868D02*
X000857Y004868D01*
X000804Y004967D02*
X001059Y004967D01*
X000938Y005065D02*
X000902Y005065D01*
X001183Y004967D02*
X001577Y004967D01*
X001489Y005065D02*
X001271Y005065D01*
X001281Y005164D02*
X001479Y005164D01*
X001701Y004967D02*
X001956Y004967D01*
X001858Y005065D02*
X001822Y005065D01*
D13*
X001618Y005325D02*
X001618Y005777D01*
X001618Y005325D02*
X002248Y005325D01*
X002425Y005226D02*
X002425Y004990D01*
X005299Y004990D01*
X005299Y005226D01*
X005712Y005325D02*
X006106Y005325D01*
X006106Y005620D01*
X006106Y006210D02*
X006106Y006644D01*
X005634Y007136D02*
X002169Y007136D01*
M02*
