G75*
%MOIN*%
%OFA0B0*%
%FSLAX24Y24*%
%IPPOS*%
%LPD*%
%AMOC8*
5,1,8,0,0,1.08239X$1,22.5*
%
%ADD10OC8,0.0660*%
%ADD11R,0.0450X0.0332*%
%ADD12R,0.0454X0.0493*%
%ADD13R,0.0532X0.0296*%
%ADD14R,0.0493X0.0454*%
%ADD15R,0.0532X0.0336*%
%ADD16R,0.0296X0.0532*%
%ADD17R,0.0532X0.0710*%
%ADD18R,0.0414X0.0690*%
%ADD19R,0.0532X0.0552*%
D10*
X000780Y000740D03*
X000780Y001740D03*
X000780Y002740D03*
X000780Y003740D03*
X000780Y004740D03*
X000780Y005740D03*
X000780Y006740D03*
X001830Y006740D03*
X001830Y005740D03*
X001830Y004740D03*
X001830Y003740D03*
X001830Y002740D03*
X001830Y001740D03*
X001830Y000740D03*
D11*
X005929Y006131D03*
X005929Y006505D03*
X005929Y006879D03*
X006952Y006879D03*
X006952Y006131D03*
D12*
X007809Y006170D03*
X007809Y006840D03*
X005101Y006840D03*
X005101Y006170D03*
D13*
X004878Y004290D03*
X004878Y003790D03*
X004878Y003290D03*
X004878Y002790D03*
X004878Y002290D03*
X004878Y001790D03*
X004878Y001290D03*
X004878Y000790D03*
X007082Y000790D03*
X007082Y001290D03*
X007082Y001790D03*
X007082Y002290D03*
X007082Y002790D03*
X007082Y003290D03*
X007082Y003790D03*
X007082Y004290D03*
X008506Y002156D03*
D14*
X005537Y005051D03*
X004867Y005051D03*
D15*
X008506Y005188D03*
X008506Y004755D03*
X008506Y004321D03*
X008506Y003888D03*
X008506Y003455D03*
X008506Y003022D03*
X008506Y002589D03*
D16*
X009585Y005955D03*
D17*
X009132Y005867D03*
D18*
X010038Y005867D03*
D19*
X009979Y001694D03*
X008959Y001694D03*
M02*
