%
M48
M72
T01C0.0130
T02C0.0400
T03C0.0591
%
T01
X1930Y5610
X1880Y6310
X1530Y6660
X1530Y7660
X2530Y8260
X2730Y8960
X2580Y9960
X4030Y7860
X3980Y6660
X2580Y5710
X4495Y9283
X5530Y6860
X6530Y10060
T02
X780Y760
X1780Y760
X2780Y760
X3780Y760
X5780Y760
X6780Y760
T03
X5280Y3360
X5280Y4360
X6280Y4610
X6280Y3610
X3780Y3360
X3780Y4360
X2780Y4610
X2780Y3610
M30
