G75*
%MOIN*%
%OFA0B0*%
%FSLAX24Y24*%
%IPPOS*%
%LPD*%
%AMOC8*
5,1,8,0,0,1.08239X$1,22.5*
%
%ADD10OC8,0.0660*%
%ADD11R,0.0277X0.0532*%
%ADD12R,0.0769X0.0690*%
%ADD13R,0.0310X0.0560*%
%ADD14R,0.0493X0.0454*%
%ADD15R,0.0532X0.0296*%
%ADD16R,0.0454X0.0493*%
%ADD17OC8,0.0946*%
D10*
X000780Y000760D03*
X001780Y000760D03*
X002780Y000760D03*
X003780Y000760D03*
X005780Y000760D03*
X006780Y000760D03*
D11*
X005904Y007398D03*
X005530Y007398D03*
X005156Y007398D03*
X005156Y008422D03*
X005904Y008422D03*
D12*
X005680Y009259D03*
X005680Y010361D03*
D13*
X005830Y006310D03*
X005480Y006310D03*
X005130Y006310D03*
D14*
X004480Y006875D03*
X004480Y007545D03*
D15*
X003282Y007660D03*
X003282Y007160D03*
X003282Y006660D03*
X003282Y006160D03*
X003282Y008160D03*
X003282Y008660D03*
X003282Y009160D03*
X003282Y009660D03*
X001078Y009660D03*
X001078Y009160D03*
X001078Y008660D03*
X001078Y008160D03*
X001078Y007660D03*
X001078Y007160D03*
X001078Y006660D03*
X001078Y006160D03*
D16*
X003930Y009775D03*
X003930Y010445D03*
X004480Y008795D03*
X004480Y008125D03*
D17*
X002780Y004610D03*
X002780Y003610D03*
X003780Y003360D03*
X003780Y004360D03*
X005280Y004360D03*
X005280Y003360D03*
X006280Y003610D03*
X006280Y004610D03*
M02*
