G75*
%MOIN*%
%OFA0B0*%
%FSLAX24Y24*%
%IPPOS*%
%LPD*%
%AMOC8*
5,1,8,0,0,1.08239X$1,22.5*
%
%ADD10C,0.0080*%
%ADD11C,0.0100*%
D10*
X000280Y000260D02*
X000280Y001260D01*
X001280Y001260D01*
X001280Y001010D01*
X001530Y001260D01*
X002030Y001260D01*
X002280Y001010D01*
X002280Y000510D01*
X002030Y000260D01*
X001530Y000260D01*
X001280Y000510D01*
X001280Y001010D01*
X001470Y001450D02*
X001890Y001450D01*
X001750Y001590D01*
X001890Y001730D01*
X001470Y001730D01*
X001470Y001910D02*
X001470Y002051D01*
X001470Y001980D02*
X001890Y001980D01*
X001890Y001910D02*
X001890Y002051D01*
X001820Y002217D02*
X001750Y002217D01*
X001680Y002287D01*
X001680Y002428D01*
X001610Y002498D01*
X001540Y002498D01*
X001470Y002428D01*
X001470Y002287D01*
X001540Y002217D01*
X001540Y002678D02*
X001470Y002748D01*
X001470Y002888D01*
X001540Y002958D01*
X001820Y002958D01*
X001890Y002888D01*
X001890Y002748D01*
X001820Y002678D01*
X001540Y002678D01*
X001820Y002498D02*
X001890Y002428D01*
X001890Y002287D01*
X001820Y002217D01*
X002530Y003110D02*
X002280Y003360D01*
X002280Y003860D01*
X002530Y004110D01*
X002280Y004360D01*
X002280Y004860D01*
X002530Y005110D01*
X003030Y005110D01*
X003280Y004860D01*
X003280Y004610D01*
X003280Y004360D01*
X003030Y004110D01*
X003280Y003860D01*
X003280Y003610D01*
X003280Y003360D01*
X003030Y003110D01*
X002530Y003110D01*
X002570Y002971D02*
X002570Y002831D01*
X002570Y002901D02*
X002990Y002901D01*
X002990Y002831D02*
X002990Y002971D01*
X002920Y002651D02*
X002990Y002581D01*
X002990Y002441D01*
X002920Y002371D01*
X002850Y002371D01*
X002780Y002441D01*
X002780Y002581D01*
X002710Y002651D01*
X002640Y002651D01*
X002570Y002581D01*
X002570Y002441D01*
X002640Y002371D01*
X002640Y002191D02*
X002570Y002121D01*
X002570Y001980D01*
X002640Y001910D01*
X002920Y001910D01*
X002990Y001980D01*
X002990Y002121D01*
X002920Y002191D01*
X002640Y002191D01*
X002570Y001730D02*
X002990Y001730D01*
X002850Y001590D01*
X002990Y001450D01*
X002570Y001450D01*
X002530Y001260D02*
X002280Y001010D01*
X002530Y001260D02*
X003030Y001260D01*
X003280Y001010D01*
X003530Y001260D01*
X004030Y001260D01*
X004280Y001010D01*
X004280Y000510D01*
X004030Y000260D01*
X003530Y000260D01*
X003280Y000510D01*
X003280Y001010D01*
X003540Y001450D02*
X003470Y001520D01*
X003470Y001660D01*
X003540Y001730D01*
X003540Y001910D02*
X003470Y001980D01*
X003470Y002121D01*
X003540Y002191D01*
X003610Y002191D01*
X003680Y002121D01*
X003680Y001980D01*
X003750Y001910D01*
X003820Y001910D01*
X003890Y001980D01*
X003890Y002121D01*
X003820Y002191D01*
X004050Y002331D02*
X004050Y001410D01*
X003890Y001520D02*
X003890Y001660D01*
X003820Y001730D01*
X003890Y001520D02*
X003820Y001450D01*
X003540Y001450D01*
X003280Y000510D02*
X003030Y000260D01*
X002530Y000260D01*
X002280Y000510D01*
X001280Y000510D02*
X001280Y000260D01*
X000280Y000260D01*
X000540Y001450D02*
X000470Y001520D01*
X000470Y001660D01*
X000540Y001730D01*
X000610Y001730D01*
X000680Y001660D01*
X000680Y001520D01*
X000750Y001450D01*
X000820Y001450D01*
X000890Y001520D01*
X000890Y001660D01*
X000820Y001730D01*
X000820Y001910D02*
X000540Y001910D01*
X000470Y001980D01*
X000470Y002121D01*
X000540Y002191D01*
X000470Y002371D02*
X000890Y002371D01*
X000820Y002191D02*
X000890Y002121D01*
X000890Y001980D01*
X000820Y001910D01*
X000610Y002371D02*
X000890Y002651D01*
X000680Y002441D02*
X000470Y002651D01*
X000510Y003000D02*
X000470Y003040D01*
X000470Y003120D01*
X000510Y003160D01*
X000510Y003295D02*
X000470Y003335D01*
X000470Y003415D01*
X000510Y003455D01*
X000590Y003589D02*
X000590Y003749D01*
X000590Y003884D02*
X000590Y004004D01*
X000550Y004044D01*
X000510Y004044D01*
X000470Y004004D01*
X000470Y003884D01*
X000710Y003884D01*
X000710Y004004D01*
X000670Y004044D01*
X000630Y004044D01*
X000590Y004004D01*
X000670Y004179D02*
X000590Y004259D01*
X000470Y004259D01*
X000590Y004259D02*
X000670Y004339D01*
X000710Y004339D01*
X000710Y004179D02*
X000670Y004179D01*
X000590Y004473D02*
X000590Y004633D01*
X000630Y004768D02*
X000590Y004808D01*
X000590Y004888D01*
X000550Y004928D01*
X000510Y004928D01*
X000470Y004888D01*
X000470Y004808D01*
X000510Y004768D01*
X000630Y004768D02*
X000670Y004768D01*
X000710Y004808D01*
X000710Y004888D01*
X000670Y004928D01*
X000630Y005063D02*
X000710Y005143D01*
X000630Y005223D01*
X000470Y005223D01*
X000590Y005223D02*
X000590Y005063D01*
X000630Y005063D02*
X000470Y005063D01*
X000670Y003455D02*
X000710Y003415D01*
X000710Y003335D01*
X000670Y003295D01*
X000510Y003295D01*
X000670Y003160D02*
X000710Y003120D01*
X000710Y003040D01*
X000670Y003000D01*
X000510Y003000D01*
X001564Y005840D02*
X002796Y005840D01*
X002796Y005839D02*
X002817Y005838D01*
X002838Y005840D01*
X002858Y005845D01*
X002877Y005853D01*
X002894Y005864D01*
X002910Y005877D01*
X002923Y005893D01*
X002934Y005911D01*
X002942Y005930D01*
X002947Y005950D01*
X002946Y005951D02*
X002946Y009830D01*
X002947Y009830D02*
X002948Y009851D01*
X002946Y009872D01*
X002941Y009892D01*
X002933Y009911D01*
X002922Y009928D01*
X002909Y009944D01*
X002893Y009957D01*
X002875Y009968D01*
X002856Y009976D01*
X002836Y009981D01*
X002836Y009980D02*
X002440Y009980D01*
X002440Y009960D02*
X002438Y009930D01*
X002433Y009900D01*
X002424Y009871D01*
X002411Y009844D01*
X002396Y009818D01*
X002377Y009794D01*
X002356Y009773D01*
X002332Y009754D01*
X002306Y009739D01*
X002279Y009726D01*
X002250Y009717D01*
X002220Y009712D01*
X002190Y009710D01*
X002160Y009712D01*
X002130Y009717D01*
X002101Y009726D01*
X002074Y009739D01*
X002048Y009754D01*
X002024Y009773D01*
X002003Y009794D01*
X001984Y009818D01*
X001969Y009844D01*
X001956Y009871D01*
X001947Y009900D01*
X001942Y009930D01*
X001940Y009960D01*
X001940Y009980D02*
X001608Y009980D01*
X001603Y009980D02*
X001578Y009981D01*
X001554Y009979D01*
X001530Y009973D01*
X001508Y009964D01*
X001487Y009951D01*
X001468Y009936D01*
X001451Y009918D01*
X001437Y009898D01*
X001426Y009877D01*
X001418Y009854D01*
X001413Y009830D01*
X001414Y009830D02*
X001414Y005990D01*
X001416Y005967D01*
X001421Y005944D01*
X001430Y005922D01*
X001443Y005902D01*
X001458Y005884D01*
X001476Y005869D01*
X001496Y005856D01*
X001518Y005847D01*
X001541Y005842D01*
X001564Y005840D01*
X000690Y007443D02*
X000690Y007603D01*
X000650Y007603D01*
X000490Y007443D01*
X000450Y007443D01*
X000570Y007737D02*
X000570Y007898D01*
X000690Y007858D02*
X000570Y007737D01*
X000450Y007858D02*
X000690Y007858D01*
X000690Y008032D02*
X000450Y008032D01*
X000450Y008192D02*
X000690Y008192D01*
X000650Y008327D02*
X000490Y008327D01*
X000450Y008367D01*
X000450Y008447D01*
X000490Y008487D01*
X000570Y008621D02*
X000570Y008782D01*
X000690Y008741D02*
X000570Y008621D01*
X000650Y008487D02*
X000690Y008447D01*
X000690Y008367D01*
X000650Y008327D01*
X000570Y008192D02*
X000570Y008032D01*
X000450Y008741D02*
X000690Y008741D01*
X000650Y008916D02*
X000690Y008956D01*
X000690Y009036D01*
X000650Y009076D01*
X000490Y008916D01*
X000450Y008956D01*
X000450Y009036D01*
X000490Y009076D01*
X000650Y009076D01*
X000690Y009211D02*
X000570Y009211D01*
X000610Y009291D01*
X000610Y009331D01*
X000570Y009371D01*
X000490Y009371D01*
X000450Y009331D01*
X000450Y009251D01*
X000490Y009211D01*
X000490Y008916D02*
X000650Y008916D01*
X000690Y009211D02*
X000690Y009371D01*
X000650Y009505D02*
X000690Y009545D01*
X000690Y009625D01*
X000650Y009665D01*
X000490Y009505D01*
X000450Y009545D01*
X000450Y009625D01*
X000490Y009665D01*
X000650Y009665D01*
X000650Y009505D02*
X000490Y009505D01*
X000637Y011300D02*
X000637Y011514D01*
X000744Y011620D01*
X000851Y011514D01*
X000851Y011300D01*
X000851Y011460D02*
X000637Y011460D01*
X001006Y011407D02*
X001006Y011353D01*
X001059Y011300D01*
X001166Y011300D01*
X001219Y011353D01*
X001350Y011353D02*
X001350Y011300D01*
X001403Y011300D01*
X001403Y011353D01*
X001350Y011353D01*
X001219Y011567D02*
X001166Y011620D01*
X001059Y011620D01*
X001006Y011567D01*
X001006Y011514D01*
X001059Y011460D01*
X001006Y011407D01*
X001059Y011460D02*
X001112Y011460D01*
X001558Y011353D02*
X001612Y011300D01*
X001718Y011300D01*
X001772Y011353D01*
X001558Y011567D01*
X001558Y011353D01*
X001558Y011567D02*
X001612Y011620D01*
X001718Y011620D01*
X001772Y011567D01*
X001772Y011353D01*
X001926Y011300D02*
X002033Y011407D01*
X001980Y011407D02*
X002140Y011407D01*
X002140Y011300D02*
X002140Y011620D01*
X001980Y011620D01*
X001926Y011567D01*
X001926Y011460D01*
X001980Y011407D01*
X003900Y008775D02*
X004140Y008775D01*
X004020Y008655D01*
X004020Y008815D01*
X003940Y008521D02*
X003900Y008481D01*
X003900Y008401D01*
X003940Y008361D01*
X004100Y008521D01*
X003940Y008521D01*
X003940Y008361D02*
X004100Y008361D01*
X004140Y008401D01*
X004140Y008481D01*
X004100Y008521D01*
X004140Y008146D02*
X003900Y008146D01*
X003900Y008066D02*
X003900Y008226D01*
X004060Y008066D02*
X004140Y008146D01*
X004140Y007565D02*
X003980Y007405D01*
X004020Y007445D02*
X003900Y007565D01*
X003900Y007405D02*
X004140Y007405D01*
X004100Y007271D02*
X003940Y007111D01*
X003900Y007151D01*
X003900Y007231D01*
X003940Y007271D01*
X004100Y007271D01*
X004140Y007231D01*
X004140Y007151D01*
X004100Y007111D01*
X003940Y007111D01*
X003900Y006976D02*
X003900Y006816D01*
X003900Y006896D02*
X004140Y006896D01*
X004060Y006816D01*
X004108Y006420D02*
X004108Y006367D01*
X004215Y006260D01*
X004215Y006100D01*
X004215Y006260D02*
X004322Y006367D01*
X004322Y006420D01*
X004476Y006367D02*
X004476Y006314D01*
X004530Y006260D01*
X004690Y006260D01*
X004690Y006100D02*
X004530Y006100D01*
X004476Y006153D01*
X004476Y006207D01*
X004530Y006260D01*
X004476Y006367D02*
X004530Y006420D01*
X004690Y006420D01*
X004690Y006100D01*
X004880Y006010D02*
X004880Y006610D01*
X004882Y006627D01*
X004886Y006644D01*
X004893Y006660D01*
X004903Y006674D01*
X004916Y006687D01*
X004930Y006697D01*
X004946Y006704D01*
X004963Y006708D01*
X004980Y006710D01*
X005980Y006710D01*
X005997Y006708D01*
X006014Y006704D01*
X006030Y006697D01*
X006044Y006687D01*
X006057Y006674D01*
X006067Y006660D01*
X006074Y006644D01*
X006078Y006627D01*
X006080Y006610D01*
X006080Y006010D01*
X006078Y005993D01*
X006074Y005976D01*
X006067Y005960D01*
X006057Y005946D01*
X006044Y005933D01*
X006030Y005923D01*
X006014Y005916D01*
X005997Y005912D01*
X005980Y005910D01*
X004980Y005910D01*
X004963Y005912D01*
X004946Y005916D01*
X004930Y005923D01*
X004916Y005933D01*
X004903Y005946D01*
X004893Y005960D01*
X004886Y005976D01*
X004882Y005993D01*
X004880Y006010D01*
X005030Y004860D02*
X004780Y004610D01*
X004780Y004110D01*
X005030Y003860D01*
X004780Y003610D01*
X004780Y003110D01*
X005030Y002860D01*
X005530Y002860D01*
X005780Y003110D01*
X005780Y003360D01*
X006030Y003110D01*
X006530Y003110D01*
X006780Y003360D01*
X006780Y003860D01*
X006530Y004110D01*
X006780Y004360D01*
X006780Y004860D01*
X006530Y005110D01*
X006030Y005110D01*
X005780Y004860D01*
X005780Y004610D01*
X005530Y004860D01*
X005030Y004860D01*
X005780Y004110D02*
X005530Y003860D01*
X005780Y003610D01*
X005780Y003360D01*
X005780Y003610D02*
X005780Y003860D01*
X006030Y004110D01*
X005780Y004360D01*
X005780Y004110D01*
X005780Y004360D02*
X005780Y004610D01*
X006298Y006100D02*
X006245Y006153D01*
X006245Y006260D01*
X006352Y006260D01*
X006458Y006153D02*
X006405Y006100D01*
X006298Y006100D01*
X006458Y006153D02*
X006458Y006367D01*
X006405Y006420D01*
X006298Y006420D01*
X006245Y006367D01*
X006245Y006925D02*
X006485Y006925D01*
X006405Y007005D01*
X006485Y007085D01*
X006245Y007085D01*
X006285Y007220D02*
X006245Y007260D01*
X006245Y007340D01*
X006285Y007380D01*
X006245Y007514D02*
X006485Y007514D01*
X006485Y007634D01*
X006445Y007674D01*
X006365Y007674D01*
X006325Y007634D01*
X006325Y007514D01*
X006445Y007380D02*
X006485Y007340D01*
X006485Y007260D01*
X006445Y007220D01*
X006285Y007220D01*
X006090Y007741D02*
X006090Y008079D01*
X006245Y008144D02*
X006285Y008104D01*
X006325Y008104D01*
X006365Y008144D01*
X006365Y008224D01*
X006325Y008264D01*
X006285Y008264D01*
X006245Y008224D01*
X006245Y008144D01*
X006365Y008144D02*
X006405Y008104D01*
X006445Y008104D01*
X006485Y008144D01*
X006485Y008224D01*
X006445Y008264D01*
X006405Y008264D01*
X006365Y008224D01*
X006445Y008398D02*
X006485Y008438D01*
X006485Y008518D01*
X006445Y008558D01*
X006405Y008558D01*
X006245Y008398D01*
X006245Y008558D01*
X006365Y008693D02*
X006365Y008853D01*
X006485Y008813D02*
X006365Y008693D01*
X006245Y008813D02*
X006485Y008813D01*
X006445Y008988D02*
X006405Y008988D01*
X006365Y009028D01*
X006365Y009108D01*
X006325Y009148D01*
X006285Y009148D01*
X006245Y009108D01*
X006245Y009028D01*
X006285Y008988D01*
X006445Y008988D02*
X006485Y009028D01*
X006485Y009108D01*
X006445Y009148D01*
X006330Y009450D02*
X006410Y009530D01*
X006170Y009530D01*
X006170Y009450D02*
X006170Y009610D01*
X006210Y009745D02*
X006370Y009905D01*
X006210Y009905D01*
X006170Y009865D01*
X006170Y009785D01*
X006210Y009745D01*
X006370Y009745D01*
X006410Y009785D01*
X006410Y009865D01*
X006370Y009905D01*
X006290Y010039D02*
X006290Y010159D01*
X006250Y010199D01*
X006210Y010199D01*
X006170Y010159D01*
X006170Y010079D01*
X006210Y010039D01*
X006290Y010039D01*
X006370Y010119D01*
X006410Y010199D01*
X005636Y008229D02*
X005424Y008229D01*
X004970Y008079D02*
X004970Y007741D01*
X003953Y006420D02*
X003953Y006100D01*
X003953Y006207D02*
X003793Y006207D01*
X003740Y006260D01*
X003740Y006367D01*
X003793Y006420D01*
X003953Y006420D01*
X004030Y004860D02*
X003530Y004860D01*
X003280Y004610D01*
X003280Y004360D02*
X003280Y004110D01*
X003530Y003860D01*
X003280Y003610D01*
X003280Y003360D02*
X003280Y003110D01*
X003530Y002860D01*
X004030Y002860D01*
X004280Y003110D01*
X004280Y003610D01*
X004030Y003860D01*
X004280Y004110D01*
X004280Y004610D01*
X004030Y004860D01*
X005570Y002498D02*
X005990Y002498D01*
X005990Y002217D02*
X005570Y002498D01*
X005570Y002217D02*
X005990Y002217D01*
X005990Y002051D02*
X005990Y001910D01*
X005990Y001980D02*
X005570Y001980D01*
X005570Y001910D02*
X005570Y002051D01*
X005710Y001730D02*
X005990Y001730D01*
X005990Y001450D02*
X005710Y001450D01*
X005570Y001590D01*
X005710Y001730D01*
X005530Y001260D02*
X006030Y001260D01*
X006280Y001010D01*
X006530Y001260D01*
X007030Y001260D01*
X007280Y001010D01*
X007280Y000510D01*
X007030Y000260D01*
X006530Y000260D01*
X006280Y000510D01*
X006280Y001010D01*
X006540Y001450D02*
X006470Y001520D01*
X006470Y001660D01*
X006540Y001730D01*
X006680Y001730D01*
X006680Y001590D01*
X006820Y001450D02*
X006540Y001450D01*
X006470Y001910D02*
X006890Y001910D01*
X006470Y002191D01*
X006890Y002191D01*
X006890Y002371D02*
X006890Y002581D01*
X006820Y002651D01*
X006540Y002651D01*
X006470Y002581D01*
X006470Y002371D01*
X006890Y002371D01*
X006820Y001730D02*
X006890Y001660D01*
X006890Y001520D01*
X006820Y001450D01*
X006280Y000510D02*
X006030Y000260D01*
X005530Y000260D01*
X005280Y000510D01*
X005280Y001010D01*
X005530Y001260D01*
X006613Y006100D02*
X006827Y006100D01*
X006827Y006420D01*
X006613Y006420D01*
X006720Y006260D02*
X006827Y006260D01*
X006981Y006260D02*
X007035Y006207D01*
X007195Y006207D01*
X007088Y006207D02*
X006981Y006100D01*
X006981Y006260D02*
X006981Y006367D01*
X007035Y006420D01*
X007195Y006420D01*
X007195Y006100D01*
X006405Y007809D02*
X006485Y007889D01*
X006245Y007889D01*
X006245Y007809D02*
X006245Y007969D01*
X004480Y009750D02*
X004560Y009830D01*
X004320Y009830D01*
X004320Y009750D02*
X004320Y009910D01*
X004360Y010045D02*
X004520Y010205D01*
X004360Y010205D01*
X004320Y010165D01*
X004320Y010085D01*
X004360Y010045D01*
X004520Y010045D01*
X004560Y010085D01*
X004560Y010165D01*
X004520Y010205D01*
X004440Y010339D02*
X004440Y010499D01*
X004320Y010459D02*
X004560Y010459D01*
X004440Y010339D01*
D11*
X001571Y004854D02*
X001389Y004854D01*
X001364Y004612D01*
X001283Y004586D01*
X001207Y004547D01*
X001018Y004701D01*
X000889Y004572D01*
X001043Y004383D01*
X001004Y004307D01*
X001263Y004200D01*
X001288Y004244D01*
X001321Y004282D01*
X001361Y004312D01*
X001408Y004333D01*
X001457Y004343D01*
X001508Y004343D01*
X001557Y004331D01*
X001602Y004310D01*
X001642Y004279D01*
X001675Y004240D01*
X001698Y004195D01*
X001711Y004147D01*
X001714Y004096D01*
X001706Y004046D01*
X001687Y004000D01*
X001658Y003958D01*
X001621Y003923D01*
X001578Y003897D01*
X001530Y003881D01*
X001480Y003876D01*
X001434Y003880D01*
X001390Y003893D01*
X001350Y003915D01*
X001314Y003944D01*
X001285Y003980D01*
X001263Y004020D01*
X001004Y003913D01*
X001043Y003837D01*
X000889Y003648D01*
X001018Y003519D01*
X001207Y003673D01*
X001283Y003634D01*
X001364Y003608D01*
X001389Y003366D01*
X001571Y003366D01*
X001596Y003608D01*
X001677Y003634D01*
X001753Y003673D01*
X001942Y003519D01*
X002071Y003648D01*
X001917Y003837D01*
X001956Y003913D01*
X001982Y003994D01*
X002224Y004019D01*
X002224Y004201D01*
X001982Y004226D01*
X001956Y004307D01*
X001917Y004383D01*
X002071Y004572D01*
X001942Y004701D01*
X001753Y004547D01*
X001677Y004586D01*
X001596Y004612D01*
X001571Y004854D01*
X001578Y004790D02*
X001382Y004790D01*
X001372Y004691D02*
X001588Y004691D01*
X001658Y004593D02*
X001302Y004593D01*
X001151Y004593D02*
X000910Y004593D01*
X000952Y004494D02*
X002008Y004494D01*
X002050Y004593D02*
X001809Y004593D01*
X001929Y004691D02*
X001952Y004691D01*
X001927Y004396D02*
X001033Y004396D01*
X001029Y004297D02*
X001341Y004297D01*
X001274Y004002D02*
X001218Y004002D01*
X001372Y003903D02*
X001009Y003903D01*
X001016Y003805D02*
X001944Y003805D01*
X001951Y003903D02*
X001588Y003903D01*
X001687Y004002D02*
X002056Y004002D01*
X002224Y004100D02*
X001714Y004100D01*
X001697Y004199D02*
X002224Y004199D01*
X001960Y004297D02*
X001619Y004297D01*
X001596Y003608D02*
X001364Y003608D01*
X001374Y003509D02*
X001586Y003509D01*
X001576Y003411D02*
X001384Y003411D01*
X001127Y003608D02*
X000930Y003608D01*
X000936Y003706D02*
X002024Y003706D01*
X002030Y003608D02*
X001833Y003608D01*
X001031Y004691D02*
X001008Y004691D01*
M02*
