G75*
%MOIN*%
%OFA0B0*%
%FSLAX24Y24*%
%IPPOS*%
%LPD*%
%AMOC8*
5,1,8,0,0,1.08239X$1,22.5*
%
%ADD10OC8,0.0600*%
%ADD11R,0.0433X0.0394*%
%ADD12R,0.0276X0.0472*%
%ADD13R,0.0236X0.0472*%
%ADD14R,0.0472X0.0236*%
%ADD15R,0.0650X0.0472*%
%ADD16R,0.0630X0.0354*%
%ADD17R,0.0492X0.0472*%
%ADD18C,0.0270*%
%ADD19C,0.0100*%
%ADD20C,0.0080*%
%ADD21C,0.0160*%
D10*
X000780Y000740D03*
X001780Y000740D03*
X002780Y000740D03*
X003780Y000740D03*
X004780Y000740D03*
X005780Y000740D03*
X006780Y000740D03*
D11*
X004095Y003290D03*
X003425Y003290D03*
D12*
X003330Y004416D03*
X002897Y004416D03*
X002464Y004416D03*
X003763Y004416D03*
X004197Y004416D03*
X004630Y004416D03*
X005063Y004416D03*
D13*
X005496Y004416D03*
D14*
X001697Y005495D03*
D15*
X001785Y005042D03*
D16*
X001785Y005948D03*
D17*
X005958Y005889D03*
X005958Y004869D03*
D18*
X006630Y005590D03*
X006230Y003740D03*
X005130Y005790D03*
X004830Y005090D03*
X004180Y004790D03*
X004330Y003690D03*
X004730Y003340D03*
X004080Y002390D03*
X002980Y003740D03*
X002897Y004123D03*
X000830Y003790D03*
X000830Y005990D03*
D19*
X001335Y005495D02*
X001130Y005290D01*
X001130Y003890D01*
X002630Y002390D01*
X004080Y002390D01*
X002980Y003740D02*
X003330Y004090D01*
X003330Y004416D01*
X002897Y004416D02*
X002897Y004123D01*
X001697Y005495D02*
X001335Y005495D01*
X004180Y004790D02*
X004197Y004773D01*
X004197Y004416D01*
X004830Y005090D02*
X005063Y004857D01*
X005063Y004416D01*
D20*
X000320Y006582D02*
X000320Y000448D01*
X000488Y000280D01*
X007072Y000280D01*
X007240Y000448D01*
X007240Y006582D01*
X007072Y006750D01*
X000488Y006750D01*
X000320Y006582D01*
X000320Y006577D02*
X007240Y006577D01*
X007240Y006499D02*
X000320Y006499D01*
X000320Y006420D02*
X007240Y006420D01*
X007240Y006342D02*
X000320Y006342D01*
X000320Y006263D02*
X001444Y006263D01*
X001452Y006265D02*
X001416Y006255D01*
X001384Y006237D01*
X001358Y006211D01*
X001340Y006179D01*
X001330Y006143D01*
X001330Y005988D01*
X001745Y005988D01*
X001745Y006265D01*
X001452Y006265D01*
X001343Y006185D02*
X000320Y006185D01*
X000320Y006106D02*
X001330Y006106D01*
X001330Y006028D02*
X000320Y006028D01*
X000320Y005949D02*
X001745Y005949D01*
X001745Y005988D02*
X001745Y005908D01*
X001330Y005908D01*
X001330Y005752D01*
X001340Y005717D01*
X001358Y005685D01*
X001360Y005683D01*
X001343Y005665D01*
X001265Y005665D01*
X001060Y005460D01*
X000960Y005360D01*
X000960Y003820D01*
X002460Y002320D01*
X002560Y002220D01*
X003889Y002220D01*
X003936Y002174D01*
X004029Y002135D01*
X004131Y002135D01*
X004224Y002174D01*
X004296Y002246D01*
X004335Y002339D01*
X004335Y002441D01*
X004296Y002534D01*
X004224Y002606D01*
X004131Y002645D01*
X004029Y002645D01*
X003936Y002606D01*
X003889Y002560D01*
X002700Y002560D01*
X001300Y003960D01*
X001300Y005220D01*
X001320Y005240D01*
X001320Y005082D01*
X001745Y005082D01*
X001745Y005002D01*
X001825Y005002D01*
X001825Y004666D01*
X002128Y004666D01*
X002164Y004676D01*
X002196Y004694D01*
X002222Y004720D01*
X002240Y004752D01*
X002250Y004788D01*
X002250Y005002D01*
X001825Y005002D01*
X001825Y005082D01*
X002250Y005082D01*
X002250Y005297D01*
X002240Y005333D01*
X002222Y005365D01*
X002196Y005391D01*
X002164Y005409D01*
X002128Y005419D01*
X002053Y005419D01*
X002053Y005631D01*
X002119Y005631D01*
X002154Y005640D01*
X002186Y005659D01*
X002212Y005685D01*
X002231Y005717D01*
X002240Y005752D01*
X002240Y005908D01*
X001825Y005908D01*
X001825Y005988D01*
X001745Y005988D01*
X001745Y006028D02*
X001825Y006028D01*
X001825Y005988D02*
X001825Y006265D01*
X002119Y006265D01*
X002154Y006255D01*
X002186Y006237D01*
X002212Y006211D01*
X002231Y006179D01*
X002240Y006143D01*
X002240Y005988D01*
X001825Y005988D01*
X001825Y005949D02*
X005572Y005949D01*
X005572Y005929D02*
X005918Y005929D01*
X005918Y005849D01*
X005572Y005849D01*
X005572Y005634D01*
X005582Y005599D01*
X005600Y005567D01*
X005626Y005541D01*
X005658Y005522D01*
X005694Y005513D01*
X005918Y005513D01*
X005918Y005849D01*
X005998Y005849D01*
X005998Y005513D01*
X006223Y005513D01*
X006258Y005522D01*
X006290Y005541D01*
X006316Y005567D01*
X006335Y005599D01*
X006344Y005634D01*
X006344Y005849D01*
X005998Y005849D01*
X005998Y005929D01*
X005918Y005929D01*
X005918Y006265D01*
X005694Y006265D01*
X005658Y006255D01*
X005626Y006237D01*
X005600Y006211D01*
X005582Y006179D01*
X005572Y006143D01*
X005572Y005929D01*
X005572Y006028D02*
X002240Y006028D01*
X002240Y006106D02*
X005572Y006106D01*
X005585Y006185D02*
X002227Y006185D01*
X002126Y006263D02*
X005686Y006263D01*
X005918Y006263D02*
X005998Y006263D01*
X005998Y006265D02*
X005998Y005929D01*
X006344Y005929D01*
X006344Y006143D01*
X006335Y006179D01*
X006316Y006211D01*
X006290Y006237D01*
X006258Y006255D01*
X006223Y006265D01*
X005998Y006265D01*
X005998Y006185D02*
X005918Y006185D01*
X005918Y006106D02*
X005998Y006106D01*
X005998Y006028D02*
X005918Y006028D01*
X005918Y005949D02*
X005998Y005949D01*
X005998Y005871D02*
X007240Y005871D01*
X007240Y005949D02*
X006344Y005949D01*
X006344Y006028D02*
X007240Y006028D01*
X007240Y006106D02*
X006344Y006106D01*
X006332Y006185D02*
X007240Y006185D01*
X007240Y006263D02*
X006230Y006263D01*
X006344Y005792D02*
X007240Y005792D01*
X007240Y005714D02*
X006344Y005714D01*
X006344Y005635D02*
X007240Y005635D01*
X007240Y005557D02*
X006306Y005557D01*
X006223Y005245D02*
X005998Y005245D01*
X005998Y004909D01*
X005918Y004909D01*
X005918Y004829D01*
X005572Y004829D01*
X005572Y004773D01*
X005328Y004773D01*
X005289Y004734D01*
X005250Y004773D01*
X005233Y004773D01*
X005233Y004928D01*
X005085Y005075D01*
X005085Y005141D01*
X005046Y005234D01*
X004974Y005306D01*
X004881Y005345D01*
X004779Y005345D01*
X004686Y005306D01*
X004614Y005234D01*
X004575Y005141D01*
X004575Y005039D01*
X004614Y004946D01*
X004686Y004874D01*
X004779Y004835D01*
X004845Y004835D01*
X004893Y004787D01*
X004893Y004773D01*
X004875Y004773D01*
X004860Y004758D01*
X004853Y004765D01*
X004821Y004783D01*
X004786Y004793D01*
X004659Y004793D01*
X004659Y004445D01*
X004601Y004445D01*
X004601Y004793D01*
X004473Y004793D01*
X004438Y004783D01*
X004435Y004781D01*
X004435Y004841D01*
X004396Y004934D01*
X004324Y005006D01*
X004231Y005045D01*
X004129Y005045D01*
X004036Y005006D01*
X003964Y004934D01*
X003925Y004841D01*
X003925Y004773D01*
X003576Y004773D01*
X003547Y004744D01*
X003518Y004773D01*
X003143Y004773D01*
X003114Y004744D01*
X003085Y004773D01*
X002710Y004773D01*
X002681Y004744D01*
X002652Y004773D01*
X002277Y004773D01*
X002206Y004702D01*
X002206Y004130D01*
X002277Y004060D01*
X002647Y004060D01*
X002681Y003978D01*
X002753Y003906D01*
X002776Y003897D01*
X002764Y003884D01*
X002725Y003791D01*
X002725Y003689D01*
X002764Y003596D01*
X002836Y003524D01*
X002929Y003485D01*
X003031Y003485D01*
X003069Y003501D01*
X003069Y003330D01*
X003385Y003330D01*
X003385Y003250D01*
X003069Y003250D01*
X003069Y003075D01*
X003078Y003039D01*
X003097Y003007D01*
X003123Y002981D01*
X003155Y002963D01*
X003190Y002953D01*
X003385Y002953D01*
X003385Y003250D01*
X003465Y003250D01*
X003465Y002953D01*
X003660Y002953D01*
X003696Y002963D01*
X003728Y002981D01*
X003754Y003007D01*
X003769Y003033D01*
X003828Y002973D01*
X004361Y002973D01*
X004431Y003043D01*
X004431Y003344D01*
X004530Y003443D01*
X004530Y003529D01*
X004546Y003546D01*
X004585Y003639D01*
X004585Y003741D01*
X004546Y003834D01*
X004474Y003906D01*
X004381Y003945D01*
X004358Y003945D01*
X004243Y004060D01*
X004384Y004060D01*
X004399Y004075D01*
X004406Y004068D01*
X004438Y004050D01*
X004473Y004040D01*
X004601Y004040D01*
X004601Y004387D01*
X004659Y004387D01*
X004659Y004040D01*
X004786Y004040D01*
X004821Y004050D01*
X004853Y004068D01*
X004860Y004075D01*
X004875Y004060D01*
X005250Y004060D01*
X005289Y004099D01*
X005328Y004060D01*
X005664Y004060D01*
X005734Y004130D01*
X005734Y004493D01*
X005918Y004493D01*
X005918Y004829D01*
X005998Y004829D01*
X005998Y004493D01*
X006223Y004493D01*
X006258Y004502D01*
X006290Y004521D01*
X006316Y004547D01*
X006335Y004579D01*
X006344Y004614D01*
X006344Y004829D01*
X005998Y004829D01*
X005998Y004909D01*
X006344Y004909D01*
X006344Y005124D01*
X006335Y005159D01*
X006316Y005191D01*
X006290Y005217D01*
X006258Y005236D01*
X006223Y005245D01*
X006233Y005243D02*
X007240Y005243D01*
X007240Y005321D02*
X004939Y005321D01*
X005038Y005243D02*
X005683Y005243D01*
X005694Y005245D02*
X005658Y005236D01*
X005626Y005217D01*
X005600Y005191D01*
X005582Y005159D01*
X005572Y005124D01*
X005572Y004909D01*
X005918Y004909D01*
X005918Y005245D01*
X005694Y005245D01*
X005584Y005164D02*
X005075Y005164D01*
X005085Y005086D02*
X005572Y005086D01*
X005572Y005007D02*
X005153Y005007D01*
X005232Y004929D02*
X005572Y004929D01*
X005327Y004772D02*
X005251Y004772D01*
X005233Y004850D02*
X005918Y004850D01*
X005918Y004772D02*
X005998Y004772D01*
X005998Y004850D02*
X007240Y004850D01*
X007240Y004772D02*
X006344Y004772D01*
X006344Y004693D02*
X007240Y004693D01*
X007240Y004615D02*
X006344Y004615D01*
X006305Y004536D02*
X007240Y004536D01*
X007240Y004458D02*
X005734Y004458D01*
X005734Y004379D02*
X007240Y004379D01*
X007240Y004301D02*
X005734Y004301D01*
X005734Y004222D02*
X007240Y004222D01*
X007240Y004144D02*
X005734Y004144D01*
X005668Y004065D02*
X007240Y004065D01*
X007240Y003987D02*
X004316Y003987D01*
X004389Y004065D02*
X004411Y004065D01*
X004470Y003908D02*
X007240Y003908D01*
X007240Y003830D02*
X004548Y003830D01*
X004581Y003751D02*
X007240Y003751D01*
X007240Y003673D02*
X004585Y003673D01*
X004566Y003594D02*
X007240Y003594D01*
X007240Y003516D02*
X004530Y003516D01*
X004524Y003437D02*
X007240Y003437D01*
X007240Y003359D02*
X004446Y003359D01*
X004431Y003280D02*
X007240Y003280D01*
X007240Y003202D02*
X004431Y003202D01*
X004431Y003123D02*
X007240Y003123D01*
X007240Y003045D02*
X004431Y003045D01*
X004257Y002574D02*
X007240Y002574D01*
X007240Y002652D02*
X002608Y002652D01*
X002530Y002731D02*
X007240Y002731D01*
X007240Y002809D02*
X002451Y002809D01*
X002373Y002888D02*
X007240Y002888D01*
X007240Y002966D02*
X003702Y002966D01*
X003465Y002966D02*
X003385Y002966D01*
X003385Y003045D02*
X003465Y003045D01*
X003465Y003123D02*
X003385Y003123D01*
X003385Y003202D02*
X003465Y003202D01*
X003385Y003280D02*
X001980Y003280D01*
X001902Y003359D02*
X003069Y003359D01*
X003069Y003437D02*
X001823Y003437D01*
X001745Y003516D02*
X002856Y003516D01*
X002765Y003594D02*
X001666Y003594D01*
X001588Y003673D02*
X002732Y003673D01*
X002725Y003751D02*
X001509Y003751D01*
X001431Y003830D02*
X002741Y003830D01*
X002751Y003908D02*
X001352Y003908D01*
X001300Y003987D02*
X002678Y003987D01*
X002272Y004065D02*
X001300Y004065D01*
X001300Y004144D02*
X002206Y004144D01*
X002206Y004222D02*
X001300Y004222D01*
X001300Y004301D02*
X002206Y004301D01*
X002206Y004379D02*
X001300Y004379D01*
X001300Y004458D02*
X002206Y004458D01*
X002206Y004536D02*
X001300Y004536D01*
X001300Y004615D02*
X002206Y004615D01*
X002194Y004693D02*
X002206Y004693D01*
X002246Y004772D02*
X002276Y004772D01*
X002250Y004850D02*
X003929Y004850D01*
X003961Y004929D02*
X002250Y004929D01*
X002250Y005086D02*
X004575Y005086D01*
X004585Y005164D02*
X002250Y005164D01*
X002250Y005243D02*
X004622Y005243D01*
X004721Y005321D02*
X002243Y005321D01*
X002180Y005400D02*
X007240Y005400D01*
X007240Y005478D02*
X002053Y005478D01*
X002053Y005557D02*
X005610Y005557D01*
X005572Y005635D02*
X002135Y005635D01*
X002229Y005714D02*
X005572Y005714D01*
X005572Y005792D02*
X002240Y005792D01*
X002240Y005871D02*
X005918Y005871D01*
X005918Y005792D02*
X005998Y005792D01*
X005998Y005714D02*
X005918Y005714D01*
X005918Y005635D02*
X005998Y005635D01*
X005998Y005557D02*
X005918Y005557D01*
X005918Y005243D02*
X005998Y005243D01*
X005998Y005164D02*
X005918Y005164D01*
X005918Y005086D02*
X005998Y005086D01*
X005998Y005007D02*
X005918Y005007D01*
X005918Y004929D02*
X005998Y004929D01*
X005998Y004693D02*
X005918Y004693D01*
X005918Y004615D02*
X005998Y004615D01*
X005998Y004536D02*
X005918Y004536D01*
X006344Y004929D02*
X007240Y004929D01*
X007240Y005007D02*
X006344Y005007D01*
X006344Y005086D02*
X007240Y005086D01*
X007240Y005164D02*
X006332Y005164D01*
X005323Y004065D02*
X005255Y004065D01*
X004870Y004065D02*
X004848Y004065D01*
X004659Y004065D02*
X004601Y004065D01*
X004601Y004144D02*
X004659Y004144D01*
X004659Y004222D02*
X004601Y004222D01*
X004601Y004301D02*
X004659Y004301D01*
X004659Y004379D02*
X004601Y004379D01*
X004601Y004458D02*
X004659Y004458D01*
X004659Y004536D02*
X004601Y004536D01*
X004601Y004615D02*
X004659Y004615D01*
X004659Y004693D02*
X004601Y004693D01*
X004601Y004772D02*
X004659Y004772D01*
X004743Y004850D02*
X004431Y004850D01*
X004399Y004929D02*
X004631Y004929D01*
X004588Y005007D02*
X004322Y005007D01*
X004038Y005007D02*
X001825Y005007D01*
X001825Y004929D02*
X001745Y004929D01*
X001745Y005002D02*
X001745Y004666D01*
X001442Y004666D01*
X001406Y004676D01*
X001374Y004694D01*
X001348Y004720D01*
X001330Y004752D01*
X001320Y004788D01*
X001320Y005002D01*
X001745Y005002D01*
X001745Y005007D02*
X001300Y005007D01*
X001300Y004929D02*
X001320Y004929D01*
X001320Y004850D02*
X001300Y004850D01*
X001300Y004772D02*
X001325Y004772D01*
X001300Y004693D02*
X001376Y004693D01*
X001320Y005086D02*
X001300Y005086D01*
X001300Y005164D02*
X001320Y005164D01*
X001078Y005478D02*
X000320Y005478D01*
X000320Y005400D02*
X000999Y005400D01*
X000960Y005321D02*
X000320Y005321D01*
X000320Y005243D02*
X000960Y005243D01*
X000960Y005164D02*
X000320Y005164D01*
X000320Y005086D02*
X000960Y005086D01*
X000960Y005007D02*
X000320Y005007D01*
X000320Y004929D02*
X000960Y004929D01*
X000960Y004850D02*
X000320Y004850D01*
X000320Y004772D02*
X000960Y004772D01*
X000960Y004693D02*
X000320Y004693D01*
X000320Y004615D02*
X000960Y004615D01*
X000960Y004536D02*
X000320Y004536D01*
X000320Y004458D02*
X000960Y004458D01*
X000960Y004379D02*
X000320Y004379D01*
X000320Y004301D02*
X000960Y004301D01*
X000960Y004222D02*
X000320Y004222D01*
X000320Y004144D02*
X000960Y004144D01*
X000960Y004065D02*
X000320Y004065D01*
X000320Y003987D02*
X000960Y003987D01*
X000960Y003908D02*
X000320Y003908D01*
X000320Y003830D02*
X000960Y003830D01*
X001029Y003751D02*
X000320Y003751D01*
X000320Y003673D02*
X001107Y003673D01*
X001186Y003594D02*
X000320Y003594D01*
X000320Y003516D02*
X001264Y003516D01*
X001343Y003437D02*
X000320Y003437D01*
X000320Y003359D02*
X001421Y003359D01*
X001500Y003280D02*
X000320Y003280D01*
X000320Y003202D02*
X001578Y003202D01*
X001657Y003123D02*
X000320Y003123D01*
X000320Y003045D02*
X001735Y003045D01*
X001814Y002966D02*
X000320Y002966D01*
X000320Y002888D02*
X001892Y002888D01*
X001971Y002809D02*
X000320Y002809D01*
X000320Y002731D02*
X002049Y002731D01*
X002128Y002652D02*
X000320Y002652D01*
X000320Y002574D02*
X002206Y002574D01*
X002285Y002495D02*
X000320Y002495D01*
X000320Y002417D02*
X002363Y002417D01*
X002442Y002338D02*
X000320Y002338D01*
X000320Y002260D02*
X002520Y002260D01*
X002687Y002574D02*
X003903Y002574D01*
X003928Y002181D02*
X000320Y002181D01*
X000320Y002103D02*
X007240Y002103D01*
X007240Y002181D02*
X004232Y002181D01*
X004302Y002260D02*
X007240Y002260D01*
X007240Y002338D02*
X004334Y002338D01*
X004335Y002417D02*
X007240Y002417D01*
X007240Y002495D02*
X004313Y002495D01*
X004088Y003607D02*
X003828Y003607D01*
X003769Y003547D01*
X003754Y003573D01*
X003728Y003599D01*
X003696Y003617D01*
X003660Y003627D01*
X003465Y003627D01*
X003465Y003330D01*
X003385Y003330D01*
X003385Y003627D01*
X003209Y003627D01*
X003235Y003689D01*
X003235Y003755D01*
X003401Y003920D01*
X003500Y004020D01*
X003500Y004060D01*
X003518Y004060D01*
X003547Y004089D01*
X003563Y004073D01*
X003563Y004024D01*
X003681Y003907D01*
X003897Y003690D01*
X004047Y003690D01*
X004075Y003662D01*
X004075Y003639D01*
X004088Y003607D01*
X004065Y003673D02*
X003228Y003673D01*
X003235Y003751D02*
X003836Y003751D01*
X003758Y003830D02*
X003310Y003830D01*
X003388Y003908D02*
X003679Y003908D01*
X003681Y003907D02*
X003681Y003907D01*
X003601Y003987D02*
X003467Y003987D01*
X003523Y004065D02*
X003563Y004065D01*
X003465Y003594D02*
X003385Y003594D01*
X003385Y003516D02*
X003465Y003516D01*
X003465Y003437D02*
X003385Y003437D01*
X003385Y003359D02*
X003465Y003359D01*
X003733Y003594D02*
X003816Y003594D01*
X003149Y002966D02*
X002294Y002966D01*
X002216Y003045D02*
X003077Y003045D01*
X003069Y003123D02*
X002137Y003123D01*
X002059Y003202D02*
X003069Y003202D01*
X003086Y004772D02*
X003142Y004772D01*
X003519Y004772D02*
X003575Y004772D01*
X002709Y004772D02*
X002653Y004772D01*
X001825Y004772D02*
X001745Y004772D01*
X001745Y004850D02*
X001825Y004850D01*
X001825Y004693D02*
X001745Y004693D01*
X001156Y005557D02*
X000320Y005557D01*
X000320Y005635D02*
X001235Y005635D01*
X001342Y005714D02*
X000320Y005714D01*
X000320Y005792D02*
X001330Y005792D01*
X001330Y005871D02*
X000320Y005871D01*
X000394Y006656D02*
X007166Y006656D01*
X007088Y006734D02*
X000472Y006734D01*
X001745Y006263D02*
X001825Y006263D01*
X001825Y006185D02*
X001745Y006185D01*
X001745Y006106D02*
X001825Y006106D01*
X000320Y002024D02*
X007240Y002024D01*
X007240Y001946D02*
X000320Y001946D01*
X000320Y001867D02*
X007240Y001867D01*
X007240Y001789D02*
X000320Y001789D01*
X000320Y001710D02*
X007240Y001710D01*
X007240Y001632D02*
X000320Y001632D01*
X000320Y001553D02*
X007240Y001553D01*
X007240Y001475D02*
X000320Y001475D01*
X000320Y001396D02*
X007240Y001396D01*
X007240Y001318D02*
X000320Y001318D01*
X000320Y001239D02*
X007240Y001239D01*
X007240Y001161D02*
X006982Y001161D01*
X006962Y001180D02*
X006820Y001180D01*
X006820Y000780D01*
X007220Y000780D01*
X007220Y000922D01*
X006962Y001180D01*
X006820Y001161D02*
X006740Y001161D01*
X006740Y001180D02*
X006598Y001180D01*
X006340Y000922D01*
X006340Y000780D01*
X006740Y000780D01*
X006740Y001180D01*
X006740Y001082D02*
X006820Y001082D01*
X006820Y001004D02*
X006740Y001004D01*
X006740Y000925D02*
X006820Y000925D01*
X006820Y000847D02*
X006740Y000847D01*
X006740Y000780D02*
X006820Y000780D01*
X006820Y000700D01*
X007220Y000700D01*
X007220Y000558D01*
X006962Y000300D01*
X006820Y000300D01*
X006820Y000700D01*
X006740Y000700D01*
X006740Y000300D01*
X006598Y000300D01*
X006340Y000558D01*
X006340Y000700D01*
X006740Y000700D01*
X006740Y000780D01*
X006740Y000768D02*
X006200Y000768D01*
X006200Y000690D02*
X006340Y000690D01*
X006340Y000611D02*
X006200Y000611D01*
X006200Y000566D02*
X005954Y000320D01*
X005606Y000320D01*
X005360Y000566D01*
X005360Y000914D01*
X005606Y001160D01*
X005954Y001160D01*
X006200Y000914D01*
X006200Y000566D01*
X006166Y000533D02*
X006365Y000533D01*
X006444Y000454D02*
X006088Y000454D01*
X006009Y000376D02*
X006522Y000376D01*
X006740Y000376D02*
X006820Y000376D01*
X006820Y000454D02*
X006740Y000454D01*
X006740Y000533D02*
X006820Y000533D01*
X006820Y000611D02*
X006740Y000611D01*
X006740Y000690D02*
X006820Y000690D01*
X006820Y000768D02*
X007240Y000768D01*
X007240Y000690D02*
X007220Y000690D01*
X007220Y000611D02*
X007240Y000611D01*
X007240Y000533D02*
X007195Y000533D01*
X007240Y000454D02*
X007116Y000454D01*
X007168Y000376D02*
X007038Y000376D01*
X007089Y000297D02*
X000471Y000297D01*
X000392Y000376D02*
X000551Y000376D01*
X000606Y000320D02*
X000954Y000320D01*
X001200Y000566D01*
X001200Y000914D01*
X000954Y001160D01*
X000606Y001160D01*
X000360Y000914D01*
X000360Y000566D01*
X000606Y000320D01*
X000472Y000454D02*
X000320Y000454D01*
X000320Y000533D02*
X000394Y000533D01*
X000360Y000611D02*
X000320Y000611D01*
X000320Y000690D02*
X000360Y000690D01*
X000360Y000768D02*
X000320Y000768D01*
X000320Y000847D02*
X000360Y000847D01*
X000371Y000925D02*
X000320Y000925D01*
X000320Y001004D02*
X000450Y001004D01*
X000528Y001082D02*
X000320Y001082D01*
X000320Y001161D02*
X006578Y001161D01*
X006500Y001082D02*
X006032Y001082D01*
X006110Y001004D02*
X006421Y001004D01*
X006343Y000925D02*
X006189Y000925D01*
X006200Y000847D02*
X006340Y000847D01*
X007060Y001082D02*
X007240Y001082D01*
X007240Y001004D02*
X007139Y001004D01*
X007217Y000925D02*
X007240Y000925D01*
X007240Y000847D02*
X007220Y000847D01*
X005528Y001082D02*
X005032Y001082D01*
X004954Y001160D02*
X004606Y001160D01*
X004360Y000914D01*
X004360Y000566D01*
X004606Y000320D01*
X004954Y000320D01*
X005200Y000566D01*
X005200Y000914D01*
X004954Y001160D01*
X005110Y001004D02*
X005450Y001004D01*
X005371Y000925D02*
X005189Y000925D01*
X005200Y000847D02*
X005360Y000847D01*
X005360Y000768D02*
X005200Y000768D01*
X005200Y000690D02*
X005360Y000690D01*
X005360Y000611D02*
X005200Y000611D01*
X005166Y000533D02*
X005394Y000533D01*
X005472Y000454D02*
X005088Y000454D01*
X005009Y000376D02*
X005551Y000376D01*
X004551Y000376D02*
X004009Y000376D01*
X003954Y000320D02*
X004200Y000566D01*
X004200Y000914D01*
X003954Y001160D01*
X003606Y001160D01*
X003360Y000914D01*
X003360Y000566D01*
X003606Y000320D01*
X003954Y000320D01*
X004088Y000454D02*
X004472Y000454D01*
X004394Y000533D02*
X004166Y000533D01*
X004200Y000611D02*
X004360Y000611D01*
X004360Y000690D02*
X004200Y000690D01*
X004200Y000768D02*
X004360Y000768D01*
X004360Y000847D02*
X004200Y000847D01*
X004189Y000925D02*
X004371Y000925D01*
X004450Y001004D02*
X004110Y001004D01*
X004032Y001082D02*
X004528Y001082D01*
X003528Y001082D02*
X003032Y001082D01*
X002954Y001160D02*
X002606Y001160D01*
X002360Y000914D01*
X002360Y000566D01*
X002606Y000320D01*
X002954Y000320D01*
X003200Y000566D01*
X003200Y000914D01*
X002954Y001160D01*
X003110Y001004D02*
X003450Y001004D01*
X003371Y000925D02*
X003189Y000925D01*
X003200Y000847D02*
X003360Y000847D01*
X003360Y000768D02*
X003200Y000768D01*
X003200Y000690D02*
X003360Y000690D01*
X003360Y000611D02*
X003200Y000611D01*
X003166Y000533D02*
X003394Y000533D01*
X003472Y000454D02*
X003088Y000454D01*
X003009Y000376D02*
X003551Y000376D01*
X002551Y000376D02*
X002009Y000376D01*
X001954Y000320D02*
X002200Y000566D01*
X002200Y000914D01*
X001954Y001160D01*
X001606Y001160D01*
X001360Y000914D01*
X001360Y000566D01*
X001606Y000320D01*
X001954Y000320D01*
X002088Y000454D02*
X002472Y000454D01*
X002394Y000533D02*
X002166Y000533D01*
X002200Y000611D02*
X002360Y000611D01*
X002360Y000690D02*
X002200Y000690D01*
X002200Y000768D02*
X002360Y000768D01*
X002360Y000847D02*
X002200Y000847D01*
X002189Y000925D02*
X002371Y000925D01*
X002450Y001004D02*
X002110Y001004D01*
X002032Y001082D02*
X002528Y001082D01*
X001528Y001082D02*
X001032Y001082D01*
X001110Y001004D02*
X001450Y001004D01*
X001371Y000925D02*
X001189Y000925D01*
X001200Y000847D02*
X001360Y000847D01*
X001360Y000768D02*
X001200Y000768D01*
X001200Y000690D02*
X001360Y000690D01*
X001360Y000611D02*
X001200Y000611D01*
X001166Y000533D02*
X001394Y000533D01*
X001472Y000454D02*
X001088Y000454D01*
X001009Y000376D02*
X001551Y000376D01*
X004841Y004772D02*
X004874Y004772D01*
D21*
X004130Y003890D02*
X004330Y003690D01*
X004330Y003525D01*
X004095Y003290D01*
X004130Y003890D02*
X003980Y003890D01*
X003763Y004107D01*
X003763Y004416D01*
M02*
