G75*
%MOIN*%
%OFA0B0*%
%FSLAX24Y24*%
%IPPOS*%
%LPD*%
%AMOC8*
5,1,8,0,0,1.08239X$1,22.5*
%
%ADD10C,0.0040*%
%ADD11C,0.0030*%
%ADD12C,0.0060*%
%ADD13C,0.0066*%
D10*
X002513Y000510D02*
X002744Y000740D01*
X002820Y000663D02*
X002513Y000970D01*
X002820Y000970D02*
X002820Y000510D01*
X002974Y000587D02*
X003051Y000510D01*
X003204Y000510D01*
X003281Y000587D01*
X003281Y000894D01*
X003204Y000970D01*
X003051Y000970D01*
X002974Y000894D01*
X003434Y000894D02*
X003511Y000970D01*
X003664Y000970D01*
X003741Y000894D01*
X003741Y000817D01*
X003664Y000740D01*
X003511Y000740D01*
X003434Y000663D01*
X003434Y000587D01*
X003511Y000510D01*
X003664Y000510D01*
X003741Y000587D01*
X003741Y001510D02*
X003741Y001970D01*
X003895Y001817D01*
X004048Y001970D01*
X004048Y001510D01*
X003588Y001510D02*
X003434Y001510D01*
X003511Y001510D02*
X003511Y001970D01*
X003588Y001970D02*
X003434Y001970D01*
X003281Y001894D02*
X003281Y001817D01*
X003204Y001740D01*
X003051Y001740D01*
X002974Y001663D01*
X002974Y001587D01*
X003051Y001510D01*
X003204Y001510D01*
X003281Y001587D01*
X003281Y001894D02*
X003204Y001970D01*
X003051Y001970D01*
X002974Y001894D01*
X002820Y001894D02*
X002820Y001587D01*
X002744Y001510D01*
X002590Y001510D01*
X002513Y001587D01*
X002513Y001894D01*
X002590Y001970D01*
X002744Y001970D01*
X002820Y001894D01*
X002717Y002510D02*
X002563Y002510D01*
X002640Y002510D02*
X002640Y002970D01*
X002717Y002970D02*
X002563Y002970D01*
X002870Y002894D02*
X002947Y002970D01*
X003101Y002970D01*
X003177Y002894D01*
X003177Y002817D01*
X003101Y002740D01*
X002947Y002740D01*
X002870Y002663D01*
X002870Y002587D01*
X002947Y002510D01*
X003101Y002510D01*
X003177Y002587D01*
X003331Y002587D02*
X003331Y002894D01*
X003408Y002970D01*
X003561Y002970D01*
X003638Y002894D01*
X003638Y002587D01*
X003561Y002510D01*
X003408Y002510D01*
X003331Y002587D01*
X003791Y002510D02*
X003791Y002970D01*
X003945Y002817D01*
X004098Y002970D01*
X004098Y002510D01*
X003204Y003510D02*
X003051Y003510D01*
X002974Y003587D01*
X002820Y003587D02*
X002744Y003510D01*
X002590Y003510D01*
X002513Y003587D01*
X002513Y003663D01*
X002590Y003740D01*
X002744Y003740D01*
X002820Y003817D01*
X002820Y003894D01*
X002744Y003970D01*
X002590Y003970D01*
X002513Y003894D01*
X002380Y004050D02*
X003301Y004050D01*
X003204Y003970D02*
X003281Y003894D01*
X003281Y003587D01*
X003204Y003510D01*
X002974Y003894D02*
X003051Y003970D01*
X003204Y003970D01*
X003204Y004510D02*
X003051Y004510D01*
X002974Y004587D01*
X002820Y004510D02*
X002590Y004510D01*
X002513Y004587D01*
X002513Y004894D01*
X002590Y004970D01*
X002820Y004970D01*
X002820Y004510D01*
X003204Y004510D02*
X003281Y004587D01*
X003281Y004894D01*
X003204Y004970D01*
X003051Y004970D01*
X002974Y004894D01*
X003301Y005050D02*
X002380Y005050D01*
X002513Y005510D02*
X002513Y005970D01*
X002820Y005970D02*
X002513Y005510D01*
X002820Y005510D02*
X002820Y005970D01*
X002974Y005970D02*
X003127Y005970D01*
X003051Y005970D02*
X003051Y005510D01*
X003127Y005510D02*
X002974Y005510D01*
X003281Y005663D02*
X003281Y005970D01*
X003588Y005970D02*
X003588Y005663D01*
X003434Y005510D01*
X003281Y005663D01*
X003281Y006510D02*
X003281Y006970D01*
X002974Y006510D01*
X002974Y006970D01*
X002820Y006970D02*
X002590Y006970D01*
X002513Y006894D01*
X002513Y006587D01*
X002590Y006510D01*
X002820Y006510D01*
X002820Y006970D01*
X003434Y006894D02*
X003511Y006970D01*
X003664Y006970D01*
X003741Y006894D01*
X003741Y006587D01*
X003664Y006510D01*
X003511Y006510D01*
X003434Y006587D01*
X003434Y006740D01*
X003588Y006740D01*
X007857Y004160D02*
X007857Y004113D01*
X007857Y004160D02*
X007903Y004207D01*
X008137Y004207D01*
X008090Y004315D02*
X008090Y004501D01*
X008090Y004609D02*
X008137Y004656D01*
X008137Y004796D01*
X008043Y004749D02*
X008043Y004656D01*
X008090Y004609D01*
X007950Y004609D02*
X007950Y004749D01*
X007997Y004796D01*
X008043Y004749D01*
X007997Y004904D02*
X008043Y004951D01*
X008043Y005091D01*
X008090Y005091D02*
X007950Y005091D01*
X007950Y004951D01*
X007997Y004904D01*
X008137Y004951D02*
X008137Y005044D01*
X008090Y005091D01*
X008450Y005033D02*
X008450Y005213D01*
X008510Y005273D01*
X008570Y005213D01*
X008570Y005093D01*
X008630Y005033D01*
X008690Y005093D01*
X008690Y005273D01*
X008510Y005401D02*
X008510Y005461D01*
X008450Y005461D01*
X008450Y005401D01*
X008510Y005401D01*
X008510Y005585D02*
X008450Y005645D01*
X008450Y005826D01*
X008510Y005954D02*
X008450Y006014D01*
X008450Y006134D01*
X008510Y006194D01*
X008630Y006194D01*
X008690Y006134D01*
X008690Y006014D01*
X008630Y005954D01*
X008510Y005954D01*
X008690Y005826D02*
X008690Y005645D01*
X008630Y005585D01*
X008510Y005585D01*
X008450Y004907D02*
X008510Y004847D01*
X008750Y004847D01*
X008690Y004787D02*
X008690Y004907D01*
X008630Y004659D02*
X008450Y004659D01*
X008630Y004659D02*
X008690Y004599D01*
X008690Y004479D01*
X008630Y004419D01*
X008690Y004291D02*
X008690Y004111D01*
X008630Y004051D01*
X008510Y004051D01*
X008450Y004111D01*
X008450Y004291D01*
X008390Y004291D02*
X008690Y004291D01*
X008810Y004419D02*
X008450Y004419D01*
X008390Y004291D02*
X008330Y004231D01*
X008330Y004171D01*
X008137Y004020D02*
X007997Y004020D01*
X007950Y004067D01*
X007950Y004207D01*
X007997Y003912D02*
X008090Y003912D01*
X008137Y003865D01*
X008137Y003725D01*
X008230Y003725D02*
X007950Y003725D01*
X007950Y003865D01*
X007997Y003912D01*
X008090Y003618D02*
X008090Y003431D01*
X008137Y003323D02*
X008137Y003183D01*
X008090Y003136D01*
X007997Y003136D01*
X007950Y003183D01*
X007950Y003323D01*
X007950Y003028D02*
X007950Y002888D01*
X007997Y002841D01*
X008090Y002841D01*
X008137Y002888D01*
X008137Y003028D01*
X008450Y002946D02*
X008810Y002946D01*
X008690Y003006D02*
X008690Y003126D01*
X008630Y003186D01*
X008450Y003186D01*
X008510Y003314D02*
X008450Y003374D01*
X008450Y003494D01*
X008510Y003554D01*
X008630Y003554D01*
X008690Y003494D01*
X008690Y003374D01*
X008630Y003314D01*
X008510Y003314D01*
X008690Y003006D02*
X008630Y002946D01*
X008690Y002820D02*
X008690Y002700D01*
X008750Y002760D02*
X008510Y002760D01*
X008450Y002820D01*
X008630Y002572D02*
X008630Y002332D01*
X008690Y002206D02*
X008690Y002086D01*
X008750Y002146D02*
X008510Y002146D01*
X008450Y002206D01*
X008510Y001958D02*
X008630Y001958D01*
X008690Y001898D01*
X008690Y001778D01*
X008630Y001718D01*
X008510Y001718D01*
X008450Y001778D01*
X008450Y001898D01*
X008510Y001958D01*
X008510Y001590D02*
X008630Y001590D01*
X008690Y001530D01*
X008690Y001350D01*
X008810Y001350D02*
X008450Y001350D01*
X008450Y001530D01*
X008510Y001590D01*
X010400Y001650D02*
X010477Y001573D01*
X010630Y001573D01*
X010707Y001650D01*
X010707Y001803D01*
X010630Y001880D01*
X010553Y001880D01*
X010553Y001573D01*
X010400Y001650D02*
X010400Y001803D01*
X010400Y002034D02*
X010400Y002340D01*
X010477Y002494D02*
X010630Y002494D01*
X010707Y002571D01*
X010707Y002724D01*
X010630Y002801D01*
X010553Y002801D01*
X010553Y002494D01*
X010477Y002494D02*
X010400Y002571D01*
X010400Y002724D01*
X010477Y002954D02*
X010630Y002954D01*
X010707Y003031D01*
X010707Y003185D01*
X010630Y003261D01*
X010553Y003261D01*
X010553Y002954D01*
X010477Y002954D02*
X010400Y003031D01*
X010400Y003185D01*
X010400Y003415D02*
X010860Y003415D01*
X010707Y003568D01*
X010860Y003722D01*
X010400Y003722D01*
X010400Y003875D02*
X010400Y004029D01*
X010400Y003952D02*
X010707Y003952D01*
X010707Y003875D01*
X010860Y003952D02*
X010937Y003952D01*
X010707Y004259D02*
X010630Y004182D01*
X010477Y004182D01*
X010400Y004259D01*
X010400Y004489D01*
X010400Y004642D02*
X010707Y004642D01*
X010707Y004489D02*
X010707Y004259D01*
X010553Y004642D02*
X010707Y004796D01*
X010707Y004873D01*
X010630Y005026D02*
X010477Y005026D01*
X010400Y005103D01*
X010400Y005256D01*
X010477Y005333D01*
X010630Y005333D01*
X010707Y005256D01*
X010707Y005103D01*
X010630Y005026D01*
X010707Y005486D02*
X010630Y005563D01*
X010630Y005717D01*
X010553Y005793D01*
X010477Y005793D01*
X010400Y005717D01*
X010400Y005563D01*
X010477Y005486D01*
X010707Y005486D02*
X010784Y005486D01*
X010860Y005563D01*
X010860Y005717D01*
X010784Y005793D01*
X010860Y005947D02*
X010860Y006177D01*
X010784Y006254D01*
X010477Y006254D01*
X010400Y006177D01*
X010400Y005947D01*
X010860Y005947D01*
X008690Y006322D02*
X008690Y006382D01*
X008630Y006442D01*
X008690Y006502D01*
X008630Y006562D01*
X008450Y006562D01*
X008450Y006442D02*
X008630Y006442D01*
X008690Y006322D02*
X008450Y006322D01*
X008450Y003923D02*
X008690Y003923D01*
X008690Y003682D02*
X008510Y003682D01*
X008450Y003742D01*
X008450Y003923D01*
X010400Y002034D02*
X010477Y002034D01*
X010784Y002340D01*
X010860Y002340D01*
X010860Y002034D01*
X010630Y001420D02*
X010553Y001420D01*
X010553Y001113D01*
X010477Y001113D02*
X010630Y001113D01*
X010707Y001189D01*
X010707Y001343D01*
X010630Y001420D01*
X010400Y001343D02*
X010400Y001189D01*
X010477Y001113D01*
D11*
X009164Y003614D02*
X009086Y003662D01*
X009086Y003794D01*
X009164Y003854D01*
X009164Y003614D01*
X009164Y003617D02*
X009159Y003617D01*
X009164Y003646D02*
X009113Y003646D01*
X009086Y003674D02*
X009164Y003674D01*
X009164Y003703D02*
X009086Y003703D01*
X009086Y003731D02*
X009164Y003731D01*
X009164Y003760D02*
X009086Y003760D01*
X009086Y003788D02*
X009164Y003788D01*
X009164Y003817D02*
X009115Y003817D01*
X009152Y003845D02*
X009164Y003845D01*
X006925Y003797D02*
X006925Y003652D01*
X006635Y003652D01*
X006732Y003652D02*
X006732Y003797D01*
X006780Y003845D01*
X006877Y003845D01*
X006925Y003797D01*
X006925Y003946D02*
X006635Y003946D01*
X006635Y004140D01*
X006635Y004241D02*
X006925Y004241D01*
X006925Y004386D01*
X006877Y004434D01*
X006780Y004434D01*
X006732Y004386D01*
X006732Y004241D01*
X006732Y004338D02*
X006635Y004434D01*
X006635Y004535D02*
X006683Y004535D01*
X006683Y004584D01*
X006635Y004584D01*
X006635Y004535D01*
X006445Y004533D02*
X006445Y004437D01*
X006397Y004388D01*
X006203Y004388D01*
X006155Y004437D01*
X006155Y004533D01*
X006203Y004582D01*
X006397Y004582D01*
X006445Y004533D01*
X006445Y004683D02*
X006155Y004683D01*
X006155Y004876D01*
X006155Y004977D02*
X006155Y005123D01*
X006203Y005171D01*
X006397Y005171D01*
X006445Y005123D01*
X006445Y004977D01*
X006155Y004977D01*
X005965Y005024D02*
X005965Y004830D01*
X005675Y004830D01*
X005675Y005024D01*
X005675Y005125D02*
X005965Y005125D01*
X005965Y005270D01*
X005917Y005318D01*
X005820Y005318D01*
X005772Y005270D01*
X005772Y005125D01*
X005772Y005222D02*
X005675Y005318D01*
X005485Y005270D02*
X005485Y005125D01*
X005195Y005125D01*
X005292Y005125D02*
X005292Y005270D01*
X005340Y005318D01*
X005437Y005318D01*
X005485Y005270D01*
X005485Y005419D02*
X005195Y005613D01*
X005195Y005714D02*
X005195Y005859D01*
X005243Y005908D01*
X005340Y005908D01*
X005388Y005859D01*
X005388Y005714D01*
X005098Y005714D01*
X005243Y006009D02*
X005195Y006057D01*
X005195Y006154D01*
X005243Y006202D01*
X005437Y006202D01*
X005485Y006154D01*
X005485Y006057D01*
X005437Y006009D01*
X005388Y006009D01*
X005340Y006057D01*
X005340Y006202D01*
X005675Y006202D02*
X005675Y006009D01*
X005965Y006009D01*
X005965Y006202D01*
X005917Y006303D02*
X005723Y006303D01*
X005675Y006352D01*
X005675Y006449D01*
X005723Y006497D01*
X005820Y006497D01*
X005820Y006400D01*
X005917Y006303D02*
X005965Y006352D01*
X005965Y006449D01*
X005917Y006497D01*
X006155Y006451D02*
X006155Y006596D01*
X006203Y006644D01*
X006397Y006644D01*
X006445Y006596D01*
X006445Y006451D01*
X006155Y006451D01*
X006203Y006350D02*
X006155Y006301D01*
X006155Y006204D01*
X006203Y006156D01*
X006300Y006204D02*
X006300Y006301D01*
X006252Y006350D01*
X006203Y006350D01*
X006300Y006204D02*
X006348Y006156D01*
X006397Y006156D01*
X006445Y006204D01*
X006445Y006301D01*
X006397Y006350D01*
X005917Y005908D02*
X005820Y005908D01*
X005772Y005859D01*
X005772Y005714D01*
X005772Y005811D02*
X005675Y005908D01*
X005820Y006009D02*
X005820Y006105D01*
X005917Y005908D02*
X005965Y005859D01*
X005965Y005714D01*
X005675Y005714D01*
X005485Y005613D02*
X005195Y005419D01*
X005195Y005318D02*
X005292Y005222D01*
X005388Y005024D02*
X005147Y005024D01*
X005098Y004975D01*
X005098Y004927D01*
X005195Y004878D02*
X005195Y005024D01*
X005195Y004878D02*
X005243Y004830D01*
X005388Y004830D01*
X005485Y004729D02*
X005195Y004729D01*
X005485Y004535D01*
X005195Y004535D01*
X005195Y004241D02*
X005485Y004434D01*
X005675Y004434D02*
X005675Y004241D01*
X005965Y004241D01*
X005917Y004140D02*
X005965Y004091D01*
X005965Y003995D01*
X005917Y003946D01*
X005723Y003946D01*
X005675Y003995D01*
X005675Y004091D01*
X005723Y004140D01*
X005917Y004140D01*
X006155Y004142D02*
X006203Y004093D01*
X006155Y004142D02*
X006155Y004239D01*
X006203Y004287D01*
X006252Y004287D01*
X006300Y004239D01*
X006300Y004142D01*
X006348Y004093D01*
X006397Y004093D01*
X006445Y004142D01*
X006445Y004239D01*
X006397Y004287D01*
X006780Y004043D02*
X006780Y003946D01*
X006925Y003946D02*
X006925Y004140D01*
X006828Y004535D02*
X006780Y004535D01*
X006780Y004584D01*
X006828Y004584D01*
X006828Y004535D01*
X006445Y005272D02*
X006155Y005272D01*
X006155Y005466D01*
X006155Y005567D02*
X006445Y005567D01*
X006445Y005712D01*
X006397Y005760D01*
X006300Y005760D01*
X006252Y005712D01*
X006252Y005567D01*
X006252Y005664D02*
X006155Y005760D01*
X006445Y005466D02*
X006445Y005272D01*
X006300Y005272D02*
X006300Y005369D01*
X005820Y004927D02*
X005820Y004830D01*
X005723Y004729D02*
X005917Y004729D01*
X005965Y004681D01*
X005965Y004535D01*
X005675Y004535D01*
X005675Y004681D01*
X005723Y004729D01*
X005195Y004141D02*
X005195Y004044D01*
X005195Y004093D02*
X005485Y004093D01*
X005485Y004044D01*
X005388Y003943D02*
X005388Y003798D01*
X005340Y003750D01*
X005243Y003750D01*
X005195Y003798D01*
X005195Y003943D01*
X005147Y003943D02*
X005388Y003943D01*
X005147Y003943D02*
X005098Y003895D01*
X005098Y003846D01*
X005195Y003651D02*
X005195Y003602D01*
X005243Y003602D01*
X005243Y003651D01*
X005195Y003651D01*
X005243Y003501D02*
X005340Y003501D01*
X005388Y003453D01*
X005388Y003356D01*
X005340Y003308D01*
X005243Y003308D01*
X005195Y003356D01*
X005195Y003453D01*
X005243Y003501D01*
X005243Y003207D02*
X005340Y003207D01*
X005388Y003158D01*
X005388Y003061D01*
X005340Y003013D01*
X005243Y003013D01*
X005195Y003061D01*
X005195Y003158D01*
X005243Y003207D01*
X005195Y002912D02*
X005195Y002767D01*
X005243Y002718D01*
X005340Y002718D01*
X005388Y002767D01*
X005388Y002912D01*
X005147Y002912D01*
X005098Y002864D01*
X005098Y002815D01*
X005195Y002424D02*
X005485Y002617D01*
X005675Y002620D02*
X005723Y002571D01*
X005675Y002620D02*
X005675Y002716D01*
X005723Y002765D01*
X005820Y002765D01*
X005868Y002716D01*
X005868Y002668D01*
X005820Y002571D01*
X005965Y002571D01*
X005965Y002765D01*
X005965Y002866D02*
X005772Y002866D01*
X005675Y002963D01*
X005772Y003059D01*
X005965Y003059D01*
X006155Y003061D02*
X006203Y003013D01*
X006155Y003061D02*
X006155Y003158D01*
X006203Y003207D01*
X006252Y003207D01*
X006300Y003158D01*
X006300Y003110D01*
X006300Y003158D02*
X006348Y003207D01*
X006397Y003207D01*
X006445Y003158D01*
X006445Y003061D01*
X006397Y003013D01*
X006203Y002914D02*
X006203Y002866D01*
X006155Y002866D01*
X006155Y002914D01*
X006203Y002914D01*
X006203Y002765D02*
X006155Y002716D01*
X006155Y002620D01*
X006203Y002571D01*
X006252Y002470D02*
X006252Y002276D01*
X006348Y002276D02*
X006348Y002470D01*
X006397Y002571D02*
X006445Y002620D01*
X006445Y002716D01*
X006397Y002765D01*
X006348Y002765D01*
X006300Y002716D01*
X006252Y002765D01*
X006203Y002765D01*
X006300Y002716D02*
X006300Y002668D01*
X006635Y002816D02*
X006635Y002864D01*
X006683Y002913D01*
X006925Y002913D01*
X006925Y002961D02*
X006925Y002864D01*
X006925Y003062D02*
X006683Y003062D01*
X006635Y003111D01*
X006635Y003207D01*
X006683Y003256D01*
X006925Y003256D01*
X006925Y003357D02*
X006828Y003454D01*
X006925Y003550D01*
X006635Y003550D01*
X006445Y003501D02*
X006252Y003501D01*
X006155Y003405D01*
X006252Y003308D01*
X006445Y003308D01*
X006635Y003357D02*
X006925Y003357D01*
X006635Y002816D02*
X006683Y002768D01*
X006635Y002372D02*
X006732Y002275D01*
X006732Y002323D02*
X006732Y002178D01*
X006635Y002178D02*
X006925Y002178D01*
X006925Y002323D01*
X006877Y002372D01*
X006780Y002372D01*
X006732Y002323D01*
X006635Y002077D02*
X006635Y001884D01*
X006925Y001884D01*
X006925Y002077D01*
X006780Y001980D02*
X006780Y001884D01*
X006683Y001782D02*
X006877Y001782D01*
X006925Y001734D01*
X006925Y001589D01*
X006635Y001589D01*
X006635Y001734D01*
X006683Y001782D01*
X006445Y001785D02*
X006445Y001882D01*
X006445Y001834D02*
X006155Y001834D01*
X006155Y001882D02*
X006155Y001785D01*
X006252Y001684D02*
X006155Y001587D01*
X006252Y001491D01*
X006445Y001491D01*
X006635Y001488D02*
X006635Y001294D01*
X006925Y001294D01*
X006877Y001193D02*
X006925Y001145D01*
X006925Y001048D01*
X006877Y001000D01*
X006683Y001000D01*
X006635Y001048D01*
X006635Y001145D01*
X006683Y001193D01*
X006877Y001193D01*
X006877Y000898D02*
X006925Y000850D01*
X006925Y000753D01*
X006877Y000705D01*
X006828Y000705D01*
X006780Y000753D01*
X006780Y000850D01*
X006732Y000898D01*
X006683Y000898D01*
X006635Y000850D01*
X006635Y000753D01*
X006683Y000705D01*
X006445Y000705D02*
X006445Y000802D01*
X006445Y000753D02*
X006155Y000753D01*
X006155Y000705D02*
X006155Y000802D01*
X006155Y000901D02*
X006445Y000901D01*
X006445Y001095D01*
X006300Y000998D02*
X006300Y000901D01*
X005965Y000901D02*
X005965Y001095D01*
X005820Y000998D02*
X005820Y000901D01*
X005675Y000901D02*
X005965Y000901D01*
X005965Y000802D02*
X005965Y000705D01*
X005965Y000753D02*
X005675Y000753D01*
X005675Y000705D02*
X005675Y000802D01*
X005485Y000705D02*
X005195Y000705D01*
X005340Y000705D02*
X005388Y000753D01*
X005388Y000850D01*
X005340Y000898D01*
X005195Y000898D01*
X005243Y001048D02*
X005195Y001096D01*
X005243Y001048D02*
X005437Y001048D01*
X005388Y001000D02*
X005388Y001096D01*
X005388Y001196D02*
X005388Y001293D01*
X005437Y001244D02*
X005243Y001244D01*
X005195Y001293D01*
X005195Y001393D02*
X005195Y001538D01*
X005243Y001586D01*
X005340Y001586D01*
X005388Y001538D01*
X005388Y001393D01*
X005098Y001393D01*
X005195Y001687D02*
X005195Y001832D01*
X005243Y001881D01*
X005292Y001832D01*
X005292Y001736D01*
X005340Y001687D01*
X005388Y001736D01*
X005388Y001881D01*
X005388Y001982D02*
X005340Y001982D01*
X005340Y002030D01*
X005388Y002030D01*
X005388Y001982D01*
X005243Y001982D02*
X005195Y001982D01*
X005195Y002030D01*
X005243Y002030D01*
X005243Y001982D01*
X005195Y002129D02*
X005485Y002323D01*
X005675Y002175D02*
X005965Y002175D01*
X005868Y002276D02*
X005868Y002470D01*
X005772Y002470D02*
X005772Y002276D01*
X005675Y002175D02*
X005965Y001982D01*
X005675Y001982D01*
X005675Y001882D02*
X005675Y001785D01*
X005675Y001834D02*
X005965Y001834D01*
X005965Y001882D02*
X005965Y001785D01*
X005965Y001684D02*
X005772Y001684D01*
X005675Y001587D01*
X005772Y001491D01*
X005965Y001491D01*
X006252Y001684D02*
X006445Y001684D01*
X006445Y001982D02*
X006155Y001982D01*
X006155Y002175D02*
X006445Y002175D01*
X006445Y001982D02*
X006155Y002175D01*
X005723Y003209D02*
X005675Y003209D01*
X005675Y003257D01*
X005723Y003257D01*
X005723Y003209D01*
X005675Y003257D02*
X005578Y003160D01*
X005723Y003652D02*
X005675Y003700D01*
X005675Y003797D01*
X005723Y003845D01*
X005772Y003845D01*
X005820Y003797D01*
X005820Y003700D01*
X005868Y003652D01*
X005917Y003652D01*
X005965Y003700D01*
X005965Y003797D01*
X005917Y003845D01*
X006155Y003699D02*
X006058Y003602D01*
X006155Y003651D02*
X006155Y003699D01*
X006203Y003699D01*
X006203Y003651D01*
X006155Y003651D01*
X004499Y004760D02*
X004451Y004712D01*
X004354Y004712D01*
X004306Y004760D01*
X004306Y004808D01*
X004354Y004857D01*
X004451Y004857D01*
X004499Y004905D01*
X004499Y004954D01*
X004451Y005002D01*
X004354Y005002D01*
X004306Y004954D01*
X004205Y005002D02*
X004059Y005002D01*
X004011Y004954D01*
X004011Y004760D01*
X004059Y004712D01*
X004205Y004712D01*
X004205Y005002D01*
X004161Y006462D02*
X004355Y006462D01*
X004355Y006752D01*
X004161Y006752D01*
X004060Y006704D02*
X004060Y006510D01*
X004012Y006462D01*
X003915Y006462D01*
X003866Y006510D01*
X003866Y006607D01*
X003963Y006607D01*
X003866Y006704D02*
X003915Y006752D01*
X004012Y006752D01*
X004060Y006704D01*
X004258Y006607D02*
X004355Y006607D01*
X004456Y006607D02*
X004456Y006704D01*
X004504Y006752D01*
X004649Y006752D01*
X004649Y006462D01*
X004649Y006558D02*
X004504Y006558D01*
X004456Y006607D01*
X004553Y006558D02*
X004456Y006462D01*
D12*
X004580Y006340D02*
X003980Y006340D01*
X003963Y006338D01*
X003946Y006334D01*
X003930Y006327D01*
X003916Y006317D01*
X003903Y006304D01*
X003893Y006290D01*
X003886Y006274D01*
X003882Y006257D01*
X003880Y006240D01*
X003880Y005240D01*
X003882Y005223D01*
X003886Y005206D01*
X003893Y005190D01*
X003903Y005176D01*
X003916Y005163D01*
X003930Y005153D01*
X003946Y005146D01*
X003963Y005142D01*
X003980Y005140D01*
X004580Y005140D01*
X004597Y005142D01*
X004614Y005146D01*
X004630Y005153D01*
X004644Y005163D01*
X004657Y005176D01*
X004667Y005190D01*
X004674Y005206D01*
X004678Y005223D01*
X004680Y005240D01*
X004680Y006240D01*
X004678Y006257D01*
X004674Y006274D01*
X004667Y006290D01*
X004657Y006304D01*
X004644Y006317D01*
X004630Y006327D01*
X004614Y006334D01*
X004597Y006338D01*
X004580Y006340D01*
X008993Y004154D02*
X009122Y004283D01*
X009257Y004183D01*
X009324Y004216D01*
X009396Y004236D01*
X009427Y004412D01*
X009615Y004412D01*
X009634Y004236D01*
X009703Y004215D01*
X009767Y004183D01*
X009914Y004289D01*
X010043Y004154D01*
X009943Y004013D01*
X009978Y003949D01*
X010002Y003880D01*
X010172Y003855D01*
X010172Y003667D01*
X009990Y003642D01*
X009969Y003576D01*
X009937Y003515D01*
X010043Y003356D01*
X009920Y003233D01*
X009773Y003339D01*
X009709Y003304D01*
X009640Y003280D01*
X009621Y003104D01*
X009427Y003104D01*
X009402Y003274D01*
X009330Y003297D01*
X009263Y003333D01*
X009128Y003227D01*
X008993Y003362D01*
X009036Y003416D01*
X009500Y003416D01*
X009562Y003418D01*
X009622Y003432D01*
X009679Y003457D01*
X009730Y003492D01*
X009774Y003536D01*
X009809Y003587D01*
X009834Y003644D01*
X009848Y003704D01*
X009867Y003679D01*
X009892Y003660D01*
X009921Y003648D01*
X009952Y003644D01*
X009983Y003648D01*
X010012Y003660D01*
X010037Y003679D01*
X010056Y003704D01*
X010068Y003733D01*
X010072Y003764D01*
X010068Y003795D01*
X010056Y003824D01*
X010037Y003849D01*
X010012Y003868D01*
X009983Y003880D01*
X009952Y003884D01*
X009921Y003880D01*
X009892Y003868D01*
X009867Y003849D01*
X009848Y003824D01*
X009842Y003824D01*
X009828Y003883D01*
X009803Y003939D01*
X009769Y003989D01*
X009726Y004032D01*
X009676Y004066D01*
X009620Y004090D01*
X009561Y004104D01*
X009500Y004106D01*
X009024Y004106D01*
X008993Y004154D01*
X009016Y004177D02*
X010021Y004177D01*
X010018Y004118D02*
X009016Y004118D01*
X009074Y004235D02*
X009187Y004235D01*
X009391Y004235D02*
X009639Y004235D01*
X009628Y004294D02*
X009406Y004294D01*
X009416Y004352D02*
X009622Y004352D01*
X009616Y004411D02*
X009426Y004411D01*
X009685Y004060D02*
X009976Y004060D01*
X009950Y004001D02*
X009757Y004001D01*
X009801Y003943D02*
X009981Y003943D01*
X010001Y003884D02*
X009828Y003884D01*
X009842Y003826D02*
X009849Y003826D01*
X009835Y003650D02*
X009916Y003650D01*
X009988Y003650D02*
X010050Y003650D01*
X010058Y003709D02*
X010172Y003709D01*
X010172Y003767D02*
X010072Y003767D01*
X010055Y003826D02*
X010172Y003826D01*
X009974Y003592D02*
X009811Y003592D01*
X009771Y003533D02*
X009947Y003533D01*
X009964Y003475D02*
X009704Y003475D01*
X009696Y003299D02*
X009327Y003299D01*
X009407Y003241D02*
X009636Y003241D01*
X009630Y003182D02*
X009415Y003182D01*
X009424Y003124D02*
X009624Y003124D01*
X009828Y003299D02*
X009986Y003299D01*
X010042Y003358D02*
X008998Y003358D01*
X009056Y003299D02*
X009220Y003299D01*
X009145Y003241D02*
X009115Y003241D01*
X009509Y003416D02*
X010003Y003416D01*
X009927Y003241D02*
X009909Y003241D01*
X009965Y004235D02*
X009839Y004235D01*
D13*
X009410Y003759D02*
X009429Y003767D01*
X009446Y003780D01*
X009461Y003794D01*
X009472Y003812D01*
X009481Y003831D01*
X009486Y003851D01*
X009487Y003872D01*
X009484Y003893D01*
X009478Y003913D01*
X009468Y003931D01*
X009455Y003948D01*
X009440Y003962D01*
X009422Y003972D01*
X009402Y003980D01*
X009381Y003984D01*
X009361Y003984D01*
X009340Y003980D01*
X009320Y003972D01*
X009302Y003962D01*
X009287Y003948D01*
X009274Y003931D01*
X009264Y003913D01*
X009258Y003893D01*
X009255Y003872D01*
X009256Y003851D01*
X009261Y003831D01*
X009270Y003812D01*
X009281Y003794D01*
X009296Y003780D01*
X009313Y003767D01*
X009332Y003759D01*
X009274Y003839D02*
X009276Y003857D01*
X009282Y003874D01*
X009291Y003890D01*
X009304Y003903D01*
X009319Y003913D01*
X009336Y003920D01*
X009353Y003923D01*
X009372Y003922D01*
X009389Y003917D01*
X009405Y003909D01*
X009419Y003897D01*
X009430Y003882D01*
X009438Y003866D01*
X009442Y003848D01*
X009442Y003830D01*
X009438Y003812D01*
X009430Y003796D01*
X009419Y003781D01*
X009405Y003769D01*
X009389Y003761D01*
X009372Y003756D01*
X009353Y003755D01*
X009336Y003758D01*
X009319Y003765D01*
X009304Y003775D01*
X009291Y003788D01*
X009282Y003804D01*
X009276Y003821D01*
X009274Y003839D01*
X009274Y003665D02*
X009276Y003683D01*
X009282Y003700D01*
X009291Y003716D01*
X009304Y003729D01*
X009319Y003739D01*
X009336Y003746D01*
X009353Y003749D01*
X009372Y003748D01*
X009389Y003743D01*
X009405Y003735D01*
X009419Y003723D01*
X009430Y003708D01*
X009438Y003692D01*
X009442Y003674D01*
X009442Y003656D01*
X009438Y003638D01*
X009430Y003622D01*
X009419Y003607D01*
X009405Y003595D01*
X009389Y003587D01*
X009372Y003582D01*
X009353Y003581D01*
X009336Y003584D01*
X009319Y003591D01*
X009304Y003601D01*
X009291Y003614D01*
X009282Y003630D01*
X009276Y003647D01*
X009274Y003665D01*
X009332Y003751D02*
X009313Y003743D01*
X009296Y003730D01*
X009281Y003716D01*
X009270Y003698D01*
X009261Y003679D01*
X009256Y003659D01*
X009255Y003638D01*
X009258Y003617D01*
X009264Y003597D01*
X009274Y003579D01*
X009287Y003562D01*
X009302Y003548D01*
X009320Y003538D01*
X009340Y003530D01*
X009361Y003526D01*
X009381Y003526D01*
X009402Y003530D01*
X009422Y003538D01*
X009440Y003548D01*
X009455Y003562D01*
X009468Y003579D01*
X009478Y003597D01*
X009484Y003617D01*
X009487Y003638D01*
X009486Y003659D01*
X009481Y003679D01*
X009472Y003698D01*
X009461Y003716D01*
X009446Y003730D01*
X009429Y003743D01*
X009410Y003751D01*
M02*
