%
M48
M72
T01C0.0130
T02C0.0400
%
T01
X4180Y1740
X5574Y4274
X4831Y5394
X4180Y4740
X4280Y6390
X5928Y5849
X6558Y6628
X8057Y3920
X7880Y2340
X9680Y4740
T02
X780Y740
X780Y1740
X780Y2740
X780Y3740
X780Y4740
X780Y5740
X780Y6740
X1830Y6740
X1830Y5740
X1830Y4740
X1830Y3740
X1830Y2740
X1830Y1740
X1830Y740
M30
