G75*
%MOIN*%
%OFA0B0*%
%FSLAX24Y24*%
%IPPOS*%
%LPD*%
%AMOC8*
5,1,8,0,0,1.08239X$1,22.5*
%
%ADD10R,0.0390X0.0272*%
%ADD11R,0.0394X0.0433*%
%ADD12R,0.0472X0.0236*%
%ADD13R,0.0433X0.0394*%
%ADD14R,0.0472X0.0276*%
%ADD15R,0.0236X0.0472*%
%ADD16R,0.0472X0.0650*%
%ADD17R,0.0354X0.0630*%
%ADD18R,0.0472X0.0492*%
D10*
X005929Y006131D03*
X005929Y006505D03*
X005929Y006879D03*
X006952Y006879D03*
X006952Y006131D03*
D11*
X007809Y006170D03*
X007809Y006840D03*
X005101Y006840D03*
X005101Y006170D03*
D12*
X004878Y000790D03*
X004878Y001290D03*
X004878Y001790D03*
X004878Y002290D03*
X004878Y002790D03*
X004878Y003290D03*
X004878Y003790D03*
X004878Y004290D03*
X007082Y004290D03*
X007082Y003790D03*
X007082Y003290D03*
X007082Y002790D03*
X007082Y002290D03*
X007082Y001790D03*
X007082Y001290D03*
X007082Y000790D03*
X008506Y002156D03*
D13*
X005537Y005051D03*
X004867Y005051D03*
D14*
X008506Y005188D03*
X008506Y004755D03*
X008506Y004321D03*
X008506Y003888D03*
X008506Y003455D03*
X008506Y003022D03*
X008506Y002589D03*
D15*
X009585Y005955D03*
D16*
X009132Y005867D03*
D17*
X010038Y005867D03*
D18*
X009979Y001694D03*
X008959Y001694D03*
M02*
