G75*
%MOIN*%
%OFA0B0*%
%FSLAX24Y24*%
%IPPOS*%
%LPD*%
%AMOC8*
5,1,8,0,0,1.08239X$1,22.5*
%
%ADD10OC8,0.0660*%
%ADD11R,0.0277X0.0532*%
%ADD12R,0.0310X0.0560*%
%ADD13R,0.0454X0.0493*%
%ADD14R,0.0296X0.0532*%
D10*
X000780Y000740D03*
X000780Y001790D03*
X001780Y001790D03*
X001780Y000740D03*
X002780Y000740D03*
X002780Y001790D03*
X003780Y001790D03*
X003780Y000740D03*
X004780Y000740D03*
X004780Y001790D03*
X005780Y001790D03*
X005780Y000740D03*
X006780Y000740D03*
X006780Y001790D03*
D11*
X006604Y005378D03*
X006230Y005378D03*
X005856Y005378D03*
X005856Y006402D03*
X006604Y006402D03*
D12*
X006530Y004290D03*
X006180Y004290D03*
X005830Y004290D03*
D13*
X004930Y004905D03*
X004930Y005575D03*
X005895Y007040D03*
X006565Y007040D03*
D14*
X004330Y006642D03*
X003830Y006642D03*
X003330Y006642D03*
X002830Y006642D03*
X002330Y006642D03*
X001830Y006642D03*
X001330Y006642D03*
X000830Y006642D03*
X000830Y004438D03*
X001330Y004438D03*
X001830Y004438D03*
X002330Y004438D03*
X002830Y004438D03*
X003330Y004438D03*
X003830Y004438D03*
X004330Y004438D03*
M02*
