G75*
%MOIN*%
%OFA0B0*%
%FSLAX24Y24*%
%IPPOS*%
%LPD*%
%AMOC8*
5,1,8,0,0,1.08239X$1,22.5*
%
%ADD10OC8,0.0600*%
%ADD11R,0.0390X0.0272*%
%ADD12R,0.0394X0.0433*%
%ADD13R,0.0472X0.0236*%
%ADD14R,0.0433X0.0394*%
%ADD15R,0.0472X0.0276*%
%ADD16R,0.0236X0.0472*%
%ADD17R,0.0472X0.0650*%
%ADD18R,0.0354X0.0630*%
%ADD19R,0.0472X0.0492*%
%ADD20C,0.0100*%
%ADD21C,0.0270*%
%ADD22C,0.0080*%
D10*
X000780Y000740D03*
X000780Y001740D03*
X000780Y002740D03*
X000780Y003740D03*
X000780Y004740D03*
X000780Y005740D03*
X000780Y006740D03*
X001830Y006740D03*
X001830Y005740D03*
X001830Y004740D03*
X001830Y003740D03*
X001830Y002740D03*
X001830Y001740D03*
X001830Y000740D03*
D11*
X005929Y006131D03*
X005929Y006505D03*
X005929Y006879D03*
X006952Y006879D03*
X006952Y006131D03*
D12*
X007809Y006170D03*
X007809Y006840D03*
X005101Y006840D03*
X005101Y006170D03*
D13*
X004878Y004290D03*
X004878Y003790D03*
X004878Y003290D03*
X004878Y002790D03*
X004878Y002290D03*
X004878Y001790D03*
X004878Y001290D03*
X004878Y000790D03*
X007082Y000790D03*
X007082Y001290D03*
X007082Y001790D03*
X007082Y002290D03*
X007082Y002790D03*
X007082Y003290D03*
X007082Y003790D03*
X007082Y004290D03*
X008506Y002156D03*
D14*
X005537Y005051D03*
X004867Y005051D03*
D15*
X008506Y005188D03*
X008506Y004755D03*
X008506Y004321D03*
X008506Y003888D03*
X008506Y003455D03*
X008506Y003022D03*
X008506Y002589D03*
D16*
X009585Y005955D03*
D17*
X009132Y005867D03*
D18*
X010038Y005867D03*
D19*
X009979Y001694D03*
X008959Y001694D03*
D20*
X008506Y002589D02*
X008129Y002589D01*
X007880Y002340D01*
X007680Y002840D02*
X007680Y003140D01*
X007995Y003455D01*
X008506Y003455D01*
X008506Y003888D02*
X008088Y003888D01*
X008057Y003920D01*
X007761Y004321D02*
X007480Y004040D01*
X006680Y004040D01*
X005430Y002790D01*
X004878Y002790D01*
X004878Y003290D02*
X002280Y003290D01*
X001830Y003740D01*
X000780Y003740D01*
X000780Y002740D02*
X001830Y002740D01*
X002280Y002290D01*
X004878Y002290D01*
X004878Y001790D02*
X005830Y001790D01*
X006580Y002540D01*
X007380Y002540D01*
X007680Y002840D01*
X007761Y004321D02*
X008506Y004321D01*
X008506Y004755D02*
X006745Y004755D01*
X005780Y003790D01*
X004878Y003790D01*
X004894Y004274D02*
X004878Y004290D01*
X004878Y004911D01*
X004867Y005051D01*
X004828Y005040D01*
X004831Y005394D01*
X004180Y004740D02*
X001830Y004740D01*
X000780Y004740D01*
X000780Y005740D02*
X001830Y005740D01*
X004280Y006390D02*
X004730Y006840D01*
X005101Y006840D01*
X005298Y006879D01*
X005929Y006879D01*
X006558Y006748D02*
X006558Y006628D01*
X006558Y006748D02*
X006690Y006880D01*
X006691Y006879D01*
X006952Y006879D01*
X007769Y006879D01*
X007809Y006840D01*
X005929Y006131D02*
X005928Y006130D01*
X005928Y005849D01*
X005574Y004274D02*
X004894Y004274D01*
X004180Y001740D02*
X001830Y001740D01*
X000780Y001740D01*
X000780Y000740D02*
X001830Y000740D01*
X002380Y001290D01*
X004878Y001290D01*
X009680Y004740D02*
X009830Y004740D01*
X010030Y004940D01*
X010030Y005977D01*
X010038Y005867D01*
X010076Y005853D02*
X010430Y005853D01*
X010365Y005828D02*
X010076Y005828D01*
X010076Y005402D01*
X010235Y005402D01*
X010273Y005412D01*
X010307Y005432D01*
X010335Y005460D01*
X010355Y005494D01*
X010365Y005532D01*
X010365Y005828D01*
X010365Y005755D02*
X010430Y005755D01*
X010430Y005656D02*
X010365Y005656D01*
X010365Y005558D02*
X010430Y005558D01*
X010430Y005459D02*
X010334Y005459D01*
X010430Y005361D02*
X009830Y005361D01*
X009830Y005340D02*
X009830Y005405D01*
X009841Y005402D01*
X009999Y005402D01*
X009999Y005828D01*
X010076Y005828D01*
X010076Y005905D01*
X009999Y005905D01*
X009999Y006332D01*
X009841Y006332D01*
X009830Y006329D01*
X009830Y006640D01*
X010430Y006640D01*
X010430Y005340D01*
X009830Y005340D01*
X009999Y005459D02*
X010076Y005459D01*
X010076Y005558D02*
X009999Y005558D01*
X009999Y005656D02*
X010076Y005656D01*
X010076Y005755D02*
X009999Y005755D01*
X010076Y005905D02*
X010365Y005905D01*
X010365Y006201D01*
X010355Y006240D01*
X010335Y006274D01*
X010307Y006302D01*
X010273Y006322D01*
X010235Y006332D01*
X010076Y006332D01*
X010076Y005905D01*
X010076Y005952D02*
X009999Y005952D01*
X009999Y006050D02*
X010076Y006050D01*
X010076Y006149D02*
X009999Y006149D01*
X009999Y006247D02*
X010076Y006247D01*
X009830Y006346D02*
X010430Y006346D01*
X010430Y006444D02*
X009830Y006444D01*
X009830Y006543D02*
X010430Y006543D01*
X010430Y006247D02*
X010351Y006247D01*
X010365Y006149D02*
X010430Y006149D01*
X010430Y006050D02*
X010365Y006050D01*
X010365Y005952D02*
X010430Y005952D01*
D21*
X009680Y004740D03*
X008057Y003920D03*
X007880Y002340D03*
X005574Y004274D03*
X004831Y005394D03*
X004180Y004740D03*
X004280Y006390D03*
X005928Y005849D03*
X006558Y006628D03*
X004180Y001740D03*
D22*
X000551Y000376D02*
X000392Y000376D01*
X000320Y000448D02*
X000488Y000280D01*
X010822Y000280D01*
X010990Y000448D01*
X010990Y007032D01*
X010822Y007200D01*
X000488Y007200D01*
X000320Y007032D01*
X000320Y000448D01*
X000320Y000454D02*
X000472Y000454D01*
X000394Y000533D02*
X000320Y000533D01*
X000360Y000566D02*
X000606Y000320D01*
X000954Y000320D01*
X001200Y000566D01*
X001200Y000570D01*
X001410Y000570D01*
X001410Y000566D01*
X001656Y000320D01*
X002004Y000320D01*
X002250Y000566D01*
X002250Y000914D01*
X002247Y000917D01*
X002450Y001120D01*
X004524Y001120D01*
X004592Y001052D01*
X005164Y001052D01*
X005234Y001122D01*
X005234Y001458D01*
X005164Y001528D01*
X004592Y001528D01*
X004524Y001460D01*
X002310Y001460D01*
X002210Y001360D01*
X002007Y001157D01*
X002004Y001160D01*
X001656Y001160D01*
X001410Y000914D01*
X001410Y000910D01*
X001200Y000910D01*
X001200Y000914D01*
X000954Y001160D01*
X000606Y001160D01*
X000360Y000914D01*
X000360Y000566D01*
X000360Y000611D02*
X000320Y000611D01*
X000320Y000690D02*
X000360Y000690D01*
X000360Y000768D02*
X000320Y000768D01*
X000320Y000847D02*
X000360Y000847D01*
X000371Y000925D02*
X000320Y000925D01*
X000320Y001004D02*
X000450Y001004D01*
X000528Y001082D02*
X000320Y001082D01*
X000320Y001161D02*
X002010Y001161D01*
X002089Y001239D02*
X000320Y001239D01*
X000320Y001318D02*
X002167Y001318D01*
X002246Y001396D02*
X002080Y001396D01*
X002004Y001320D02*
X002250Y001566D01*
X002250Y001570D01*
X003989Y001570D01*
X004036Y001524D01*
X004129Y001485D01*
X004231Y001485D01*
X004324Y001524D01*
X004396Y001596D01*
X004435Y001689D01*
X004435Y001791D01*
X004396Y001884D01*
X004324Y001956D01*
X004231Y001995D01*
X004129Y001995D01*
X004036Y001956D01*
X003989Y001910D01*
X002250Y001910D01*
X002250Y001914D01*
X002004Y002160D01*
X001656Y002160D01*
X001410Y001914D01*
X001410Y001910D01*
X001200Y001910D01*
X001200Y001914D01*
X000954Y002160D01*
X000606Y002160D01*
X000360Y001914D01*
X000360Y001566D01*
X000606Y001320D01*
X000954Y001320D01*
X001200Y001566D01*
X001200Y001570D01*
X001410Y001570D01*
X001410Y001566D01*
X001656Y001320D01*
X002004Y001320D01*
X002158Y001475D02*
X004538Y001475D01*
X004592Y001552D02*
X005164Y001552D01*
X005232Y001620D01*
X005900Y001620D01*
X006650Y002370D01*
X006726Y002370D01*
X006726Y002122D01*
X006796Y002052D01*
X007368Y002052D01*
X007439Y002122D01*
X007439Y002370D01*
X007450Y002370D01*
X007750Y002670D01*
X007850Y002770D01*
X007850Y003070D01*
X008066Y003285D01*
X008150Y003285D01*
X008150Y003268D01*
X008165Y003253D01*
X008158Y003246D01*
X008140Y003214D01*
X008130Y003179D01*
X008130Y003051D01*
X008477Y003051D01*
X008477Y002993D01*
X008130Y002993D01*
X008130Y002866D01*
X008140Y002830D01*
X008158Y002799D01*
X008165Y002792D01*
X008150Y002777D01*
X008150Y002759D01*
X008059Y002759D01*
X007959Y002660D01*
X007895Y002595D01*
X007829Y002595D01*
X007736Y002556D01*
X007664Y002484D01*
X007625Y002391D01*
X007625Y002289D01*
X007664Y002196D01*
X007736Y002124D01*
X007829Y002085D01*
X007931Y002085D01*
X008024Y002124D01*
X008096Y002196D01*
X008135Y002289D01*
X008135Y002355D01*
X008166Y002386D01*
X008189Y002363D01*
X008150Y002324D01*
X008150Y001988D01*
X008220Y001918D01*
X008583Y001918D01*
X008583Y001734D01*
X008919Y001734D01*
X008919Y002080D01*
X008863Y002080D01*
X008863Y002324D01*
X008824Y002363D01*
X008863Y002402D01*
X008863Y002777D01*
X008848Y002792D01*
X008855Y002799D01*
X008873Y002830D01*
X008883Y002866D01*
X008883Y002993D01*
X008535Y002993D01*
X008535Y003051D01*
X008883Y003051D01*
X008883Y003179D01*
X008873Y003214D01*
X008855Y003246D01*
X008848Y003253D01*
X008863Y003268D01*
X008863Y003643D01*
X008834Y003672D01*
X008863Y003701D01*
X008863Y004076D01*
X008834Y004105D01*
X008863Y004134D01*
X008863Y004509D01*
X008834Y004538D01*
X008863Y004567D01*
X008863Y004942D01*
X008834Y004971D01*
X008863Y005000D01*
X008863Y005375D01*
X008792Y005445D01*
X008220Y005445D01*
X008150Y005375D01*
X008150Y005000D01*
X008179Y004971D01*
X008150Y004942D01*
X008150Y004925D01*
X006674Y004925D01*
X006575Y004825D01*
X005710Y003960D01*
X005232Y003960D01*
X005164Y004028D01*
X004592Y004028D01*
X004521Y003958D01*
X004521Y003622D01*
X004592Y003552D01*
X005164Y003552D01*
X005232Y003620D01*
X005850Y003620D01*
X005950Y003720D01*
X006815Y004585D01*
X008150Y004585D01*
X008150Y004567D01*
X008179Y004538D01*
X008150Y004509D01*
X008150Y004491D01*
X007691Y004491D01*
X007439Y004239D01*
X007439Y004458D01*
X007368Y004528D01*
X006796Y004528D01*
X006726Y004458D01*
X006726Y004210D01*
X006610Y004210D01*
X005360Y002960D01*
X005232Y002960D01*
X005164Y003028D01*
X004592Y003028D01*
X004521Y002958D01*
X004521Y002622D01*
X004592Y002552D01*
X005164Y002552D01*
X005232Y002620D01*
X005500Y002620D01*
X005600Y002720D01*
X006726Y003846D01*
X006726Y003622D01*
X006796Y003552D01*
X007368Y003552D01*
X007439Y003622D01*
X007439Y003870D01*
X007550Y003870D01*
X007832Y004151D01*
X007951Y004151D01*
X007913Y004136D01*
X007841Y004064D01*
X007802Y003970D01*
X007802Y003869D01*
X007841Y003775D01*
X007913Y003703D01*
X008006Y003665D01*
X008108Y003665D01*
X008164Y003688D01*
X008179Y003672D01*
X008150Y003643D01*
X008150Y003625D01*
X007925Y003625D01*
X007610Y003310D01*
X007510Y003210D01*
X007510Y002910D01*
X007439Y002839D01*
X007439Y002958D01*
X007368Y003028D01*
X006796Y003028D01*
X006726Y002958D01*
X006726Y002710D01*
X006510Y002710D01*
X006410Y002610D01*
X005760Y001960D01*
X005232Y001960D01*
X005164Y002028D01*
X004592Y002028D01*
X004521Y001958D01*
X004521Y001622D01*
X004592Y001552D01*
X004591Y001553D02*
X004354Y001553D01*
X004411Y001632D02*
X004521Y001632D01*
X004521Y001710D02*
X004435Y001710D01*
X004435Y001789D02*
X004521Y001789D01*
X004521Y001867D02*
X004403Y001867D01*
X004335Y001946D02*
X004521Y001946D01*
X004588Y002024D02*
X002140Y002024D01*
X002218Y001946D02*
X004025Y001946D01*
X004006Y001553D02*
X002237Y001553D01*
X002412Y001082D02*
X004562Y001082D01*
X004587Y001039D02*
X004555Y001020D01*
X004529Y000994D01*
X004511Y000962D01*
X004501Y000927D01*
X004501Y000809D01*
X004859Y000809D01*
X004859Y001048D01*
X004623Y001048D01*
X004587Y001039D01*
X004539Y001004D02*
X002334Y001004D01*
X002255Y000925D02*
X004501Y000925D01*
X004501Y000847D02*
X002250Y000847D01*
X002250Y000768D02*
X004501Y000768D01*
X004501Y000771D02*
X004501Y000653D01*
X004511Y000618D01*
X004529Y000586D01*
X004555Y000560D01*
X004587Y000541D01*
X004623Y000532D01*
X004859Y000532D01*
X004859Y000771D01*
X004897Y000771D01*
X004897Y000809D01*
X005254Y000809D01*
X005254Y000927D01*
X005244Y000962D01*
X005226Y000994D01*
X005200Y001020D01*
X005168Y001039D01*
X005132Y001048D01*
X004897Y001048D01*
X004897Y000809D01*
X004859Y000809D01*
X004859Y000771D01*
X004501Y000771D01*
X004501Y000690D02*
X002250Y000690D01*
X002250Y000611D02*
X004515Y000611D01*
X004621Y000533D02*
X002216Y000533D01*
X002138Y000454D02*
X010990Y000454D01*
X010990Y000533D02*
X007339Y000533D01*
X007337Y000532D02*
X007373Y000541D01*
X007405Y000560D01*
X007431Y000586D01*
X007449Y000618D01*
X007459Y000653D01*
X007459Y000771D01*
X007101Y000771D01*
X007101Y000532D01*
X007337Y000532D01*
X007445Y000611D02*
X010990Y000611D01*
X010990Y000690D02*
X007459Y000690D01*
X007459Y000768D02*
X010990Y000768D01*
X010990Y000847D02*
X007459Y000847D01*
X007459Y000809D02*
X007459Y000927D01*
X007449Y000962D01*
X007431Y000994D01*
X007405Y001020D01*
X007373Y001039D01*
X007337Y001048D01*
X007101Y001048D01*
X007101Y000809D01*
X007063Y000809D01*
X007063Y000771D01*
X006706Y000771D01*
X006706Y000653D01*
X006716Y000618D01*
X006734Y000586D01*
X006760Y000560D01*
X006792Y000541D01*
X006828Y000532D01*
X007063Y000532D01*
X007063Y000771D01*
X007101Y000771D01*
X007101Y000809D01*
X007459Y000809D01*
X007459Y000925D02*
X010990Y000925D01*
X010990Y001004D02*
X007421Y001004D01*
X007368Y001052D02*
X007439Y001122D01*
X007439Y001458D01*
X007368Y001528D01*
X006796Y001528D01*
X006726Y001458D01*
X006726Y001122D01*
X006796Y001052D01*
X007368Y001052D01*
X007398Y001082D02*
X010990Y001082D01*
X010990Y001161D02*
X007439Y001161D01*
X007439Y001239D02*
X010990Y001239D01*
X010990Y001318D02*
X010270Y001318D01*
X010269Y001317D02*
X010301Y001335D01*
X010327Y001362D01*
X010345Y001393D01*
X010355Y001429D01*
X010355Y001654D01*
X010019Y001654D01*
X010019Y001734D01*
X009939Y001734D01*
X009939Y002080D01*
X009724Y002080D01*
X009689Y002070D01*
X009657Y002052D01*
X009631Y002026D01*
X009612Y001994D01*
X009603Y001958D01*
X009603Y001734D01*
X009939Y001734D01*
X009939Y001654D01*
X009603Y001654D01*
X009603Y001429D01*
X009612Y001393D01*
X009631Y001362D01*
X009657Y001335D01*
X009689Y001317D01*
X009724Y001307D01*
X009939Y001307D01*
X009939Y001654D01*
X010019Y001654D01*
X010019Y001307D01*
X010233Y001307D01*
X010269Y001317D01*
X010346Y001396D02*
X010990Y001396D01*
X010990Y001475D02*
X010355Y001475D01*
X010355Y001553D02*
X010990Y001553D01*
X010990Y001632D02*
X010355Y001632D01*
X010355Y001734D02*
X010355Y001958D01*
X010345Y001994D01*
X010327Y002026D01*
X010301Y002052D01*
X010269Y002070D01*
X010233Y002080D01*
X010019Y002080D01*
X010019Y001734D01*
X010355Y001734D01*
X010355Y001789D02*
X010990Y001789D01*
X010990Y001867D02*
X010355Y001867D01*
X010355Y001946D02*
X010990Y001946D01*
X010990Y002024D02*
X010328Y002024D01*
X010019Y002024D02*
X009939Y002024D01*
X009939Y001946D02*
X010019Y001946D01*
X010019Y001867D02*
X009939Y001867D01*
X009939Y001789D02*
X010019Y001789D01*
X010019Y001710D02*
X010990Y001710D01*
X010990Y002103D02*
X008863Y002103D01*
X008863Y002181D02*
X010990Y002181D01*
X010990Y002260D02*
X008863Y002260D01*
X008849Y002338D02*
X010990Y002338D01*
X010990Y002417D02*
X008863Y002417D01*
X008863Y002495D02*
X010990Y002495D01*
X010990Y002574D02*
X008863Y002574D01*
X008863Y002652D02*
X010990Y002652D01*
X010990Y002731D02*
X008863Y002731D01*
X008861Y002809D02*
X010990Y002809D01*
X010990Y002888D02*
X008883Y002888D01*
X008883Y002966D02*
X010990Y002966D01*
X010990Y003045D02*
X008535Y003045D01*
X008477Y003045D02*
X007850Y003045D01*
X007850Y002966D02*
X008130Y002966D01*
X008130Y002888D02*
X007850Y002888D01*
X007850Y002809D02*
X008152Y002809D01*
X008030Y002731D02*
X007811Y002731D01*
X007732Y002652D02*
X007952Y002652D01*
X007777Y002574D02*
X007654Y002574D01*
X007674Y002495D02*
X007575Y002495D01*
X007636Y002417D02*
X007497Y002417D01*
X007439Y002338D02*
X007625Y002338D01*
X007637Y002260D02*
X007439Y002260D01*
X007439Y002181D02*
X007678Y002181D01*
X007787Y002103D02*
X007419Y002103D01*
X007373Y002039D02*
X007337Y002048D01*
X007101Y002048D01*
X007101Y001809D01*
X007063Y001809D01*
X007063Y001771D01*
X006706Y001771D01*
X006706Y001653D01*
X006716Y001618D01*
X006734Y001586D01*
X006760Y001560D01*
X006792Y001541D01*
X006828Y001532D01*
X007063Y001532D01*
X007063Y001771D01*
X007101Y001771D01*
X007101Y001532D01*
X007337Y001532D01*
X007373Y001541D01*
X007405Y001560D01*
X007431Y001586D01*
X007449Y001618D01*
X007459Y001653D01*
X007459Y001771D01*
X007101Y001771D01*
X007101Y001809D01*
X007459Y001809D01*
X007459Y001927D01*
X007449Y001962D01*
X007431Y001994D01*
X007405Y002020D01*
X007373Y002039D01*
X007398Y002024D02*
X008150Y002024D01*
X008150Y002103D02*
X007973Y002103D01*
X008082Y002181D02*
X008150Y002181D01*
X008150Y002260D02*
X008123Y002260D01*
X008135Y002338D02*
X008164Y002338D01*
X008193Y001946D02*
X007454Y001946D01*
X007459Y001867D02*
X008583Y001867D01*
X008583Y001789D02*
X007101Y001789D01*
X007063Y001789D02*
X006069Y001789D01*
X006147Y001867D02*
X006706Y001867D01*
X006706Y001809D02*
X006706Y001927D01*
X006716Y001962D01*
X006734Y001994D01*
X006760Y002020D01*
X006792Y002039D01*
X006828Y002048D01*
X007063Y002048D01*
X007063Y001809D01*
X006706Y001809D01*
X006706Y001710D02*
X005990Y001710D01*
X005912Y001632D02*
X006712Y001632D01*
X006772Y001553D02*
X005165Y001553D01*
X005217Y001475D02*
X006743Y001475D01*
X006726Y001396D02*
X005234Y001396D01*
X005234Y001318D02*
X006726Y001318D01*
X006726Y001239D02*
X005234Y001239D01*
X005234Y001161D02*
X006726Y001161D01*
X006766Y001082D02*
X005194Y001082D01*
X005216Y001004D02*
X006744Y001004D01*
X006734Y000994D02*
X006716Y000962D01*
X006706Y000927D01*
X006706Y000809D01*
X007063Y000809D01*
X007063Y001048D01*
X006828Y001048D01*
X006792Y001039D01*
X006760Y001020D01*
X006734Y000994D01*
X006706Y000925D02*
X005254Y000925D01*
X005254Y000847D02*
X006706Y000847D01*
X006706Y000768D02*
X005254Y000768D01*
X005254Y000771D02*
X005254Y000653D01*
X005244Y000618D01*
X005226Y000586D01*
X005200Y000560D01*
X005168Y000541D01*
X005132Y000532D01*
X004897Y000532D01*
X004897Y000771D01*
X005254Y000771D01*
X005254Y000690D02*
X006706Y000690D01*
X006720Y000611D02*
X005240Y000611D01*
X005135Y000533D02*
X006825Y000533D01*
X007063Y000533D02*
X007101Y000533D01*
X007101Y000611D02*
X007063Y000611D01*
X007063Y000690D02*
X007101Y000690D01*
X007101Y000768D02*
X007063Y000768D01*
X007063Y000847D02*
X007101Y000847D01*
X007101Y000925D02*
X007063Y000925D01*
X007063Y001004D02*
X007101Y001004D01*
X007439Y001318D02*
X008668Y001318D01*
X008669Y001317D02*
X008704Y001307D01*
X008919Y001307D01*
X008919Y001654D01*
X008583Y001654D01*
X008583Y001429D01*
X008592Y001393D01*
X008611Y001362D01*
X008637Y001335D01*
X008669Y001317D01*
X008592Y001396D02*
X007439Y001396D01*
X007422Y001475D02*
X008583Y001475D01*
X008583Y001553D02*
X007393Y001553D01*
X007453Y001632D02*
X008583Y001632D01*
X008919Y001632D02*
X008999Y001632D01*
X008999Y001654D02*
X008999Y001307D01*
X009214Y001307D01*
X009249Y001317D01*
X009281Y001335D01*
X009307Y001362D01*
X009326Y001393D01*
X009335Y001429D01*
X009335Y001654D01*
X008999Y001654D01*
X008999Y001734D01*
X008919Y001734D01*
X008919Y001654D01*
X008999Y001654D01*
X008999Y001710D02*
X009939Y001710D01*
X009939Y001632D02*
X010019Y001632D01*
X010019Y001553D02*
X009939Y001553D01*
X009939Y001475D02*
X010019Y001475D01*
X010019Y001396D02*
X009939Y001396D01*
X009939Y001318D02*
X010019Y001318D01*
X009688Y001318D02*
X009250Y001318D01*
X009326Y001396D02*
X009611Y001396D01*
X009603Y001475D02*
X009335Y001475D01*
X009335Y001553D02*
X009603Y001553D01*
X009603Y001632D02*
X009335Y001632D01*
X009335Y001734D02*
X009335Y001958D01*
X009326Y001994D01*
X009307Y002026D01*
X009281Y002052D01*
X009249Y002070D01*
X009214Y002080D01*
X008999Y002080D01*
X008999Y001734D01*
X009335Y001734D01*
X009335Y001789D02*
X009603Y001789D01*
X009603Y001867D02*
X009335Y001867D01*
X009335Y001946D02*
X009603Y001946D01*
X009630Y002024D02*
X009308Y002024D01*
X008999Y002024D02*
X008919Y002024D01*
X008919Y001946D02*
X008999Y001946D01*
X008999Y001867D02*
X008919Y001867D01*
X008919Y001789D02*
X008999Y001789D01*
X008919Y001710D02*
X007459Y001710D01*
X007101Y001710D02*
X007063Y001710D01*
X007063Y001632D02*
X007101Y001632D01*
X007101Y001553D02*
X007063Y001553D01*
X007063Y001867D02*
X007101Y001867D01*
X007101Y001946D02*
X007063Y001946D01*
X007063Y002024D02*
X007101Y002024D01*
X006767Y002024D02*
X006304Y002024D01*
X006226Y001946D02*
X006711Y001946D01*
X006746Y002103D02*
X006383Y002103D01*
X006461Y002181D02*
X006726Y002181D01*
X006726Y002260D02*
X006540Y002260D01*
X006618Y002338D02*
X006726Y002338D01*
X006452Y002652D02*
X005532Y002652D01*
X005611Y002731D02*
X006726Y002731D01*
X006726Y002809D02*
X005689Y002809D01*
X005768Y002888D02*
X006726Y002888D01*
X006734Y002966D02*
X005846Y002966D01*
X005925Y003045D02*
X006787Y003045D01*
X006792Y003041D02*
X006828Y003032D01*
X007063Y003032D01*
X007063Y003271D01*
X006706Y003271D01*
X006706Y003153D01*
X006716Y003118D01*
X006734Y003086D01*
X006760Y003060D01*
X006792Y003041D01*
X006714Y003123D02*
X006003Y003123D01*
X006082Y003202D02*
X006706Y003202D01*
X006706Y003309D02*
X007063Y003309D01*
X007063Y003271D01*
X007101Y003271D01*
X007101Y003032D01*
X007337Y003032D01*
X007373Y003041D01*
X007405Y003060D01*
X007431Y003086D01*
X007449Y003118D01*
X007459Y003153D01*
X007459Y003271D01*
X007101Y003271D01*
X007101Y003309D01*
X007063Y003309D01*
X007063Y003548D01*
X006828Y003548D01*
X006792Y003539D01*
X006760Y003520D01*
X006734Y003494D01*
X006716Y003462D01*
X006706Y003427D01*
X006706Y003309D01*
X006706Y003359D02*
X006239Y003359D01*
X006317Y003437D02*
X006709Y003437D01*
X006756Y003516D02*
X006396Y003516D01*
X006474Y003594D02*
X006754Y003594D01*
X006726Y003673D02*
X006553Y003673D01*
X006631Y003751D02*
X006726Y003751D01*
X006726Y003830D02*
X006710Y003830D01*
X006465Y004065D02*
X006295Y004065D01*
X006217Y003987D02*
X006386Y003987D01*
X006308Y003908D02*
X006138Y003908D01*
X006060Y003830D02*
X006229Y003830D01*
X006151Y003751D02*
X005981Y003751D01*
X005950Y003720D02*
X005950Y003720D01*
X005903Y003673D02*
X006072Y003673D01*
X005994Y003594D02*
X005206Y003594D01*
X005164Y003528D02*
X005234Y003458D01*
X005234Y003122D01*
X005164Y003052D01*
X004592Y003052D01*
X004524Y003120D01*
X002210Y003120D01*
X002110Y003220D01*
X002007Y003323D01*
X002004Y003320D01*
X001656Y003320D01*
X001410Y003566D01*
X001410Y003570D01*
X001200Y003570D01*
X001200Y003566D01*
X000954Y003320D01*
X000606Y003320D01*
X000360Y003566D01*
X000360Y003914D01*
X000606Y004160D01*
X000954Y004160D01*
X001200Y003914D01*
X001200Y003910D01*
X001410Y003910D01*
X001410Y003914D01*
X001656Y004160D01*
X002004Y004160D01*
X002250Y003914D01*
X002250Y003566D01*
X002247Y003563D01*
X002350Y003460D01*
X004524Y003460D01*
X004592Y003528D01*
X005164Y003528D01*
X005176Y003516D02*
X005915Y003516D01*
X005837Y003437D02*
X005234Y003437D01*
X005234Y003359D02*
X005758Y003359D01*
X005680Y003280D02*
X005234Y003280D01*
X005234Y003202D02*
X005601Y003202D01*
X005523Y003123D02*
X005234Y003123D01*
X005226Y002966D02*
X005366Y002966D01*
X005444Y003045D02*
X002119Y003045D01*
X002041Y003123D02*
X002207Y003123D01*
X002128Y003202D02*
X000320Y003202D01*
X000320Y003280D02*
X002050Y003280D01*
X002004Y003160D02*
X001656Y003160D01*
X001410Y002914D01*
X001410Y002910D01*
X001200Y002910D01*
X001200Y002914D01*
X000954Y003160D01*
X000606Y003160D01*
X000360Y002914D01*
X000360Y002566D01*
X000606Y002320D01*
X000954Y002320D01*
X001200Y002566D01*
X001200Y002570D01*
X001410Y002570D01*
X001410Y002566D01*
X001656Y002320D01*
X002004Y002320D01*
X002007Y002323D01*
X002210Y002120D01*
X004524Y002120D01*
X004592Y002052D01*
X005164Y002052D01*
X005234Y002122D01*
X005234Y002458D01*
X005164Y002528D01*
X004592Y002528D01*
X004524Y002460D01*
X002350Y002460D01*
X002247Y002563D01*
X002250Y002566D01*
X002250Y002914D01*
X002004Y003160D01*
X002198Y002966D02*
X004530Y002966D01*
X004521Y002888D02*
X002250Y002888D01*
X002250Y002809D02*
X004521Y002809D01*
X004521Y002731D02*
X002250Y002731D01*
X002250Y002652D02*
X004521Y002652D01*
X004570Y002574D02*
X002250Y002574D01*
X002315Y002495D02*
X004559Y002495D01*
X004541Y002103D02*
X002061Y002103D01*
X002149Y002181D02*
X000320Y002181D01*
X000320Y002103D02*
X000549Y002103D01*
X000470Y002024D02*
X000320Y002024D01*
X000320Y001946D02*
X000392Y001946D01*
X000360Y001867D02*
X000320Y001867D01*
X000320Y001789D02*
X000360Y001789D01*
X000360Y001710D02*
X000320Y001710D01*
X000320Y001632D02*
X000360Y001632D01*
X000373Y001553D02*
X000320Y001553D01*
X000320Y001475D02*
X000452Y001475D01*
X000530Y001396D02*
X000320Y001396D01*
X001011Y002103D02*
X001599Y002103D01*
X001520Y002024D02*
X001090Y002024D01*
X001168Y001946D02*
X001442Y001946D01*
X001638Y002338D02*
X000972Y002338D01*
X001050Y002417D02*
X001560Y002417D01*
X001481Y002495D02*
X001129Y002495D01*
X001148Y002966D02*
X001462Y002966D01*
X001541Y003045D02*
X001069Y003045D01*
X000991Y003123D02*
X001619Y003123D01*
X001618Y003359D02*
X000992Y003359D01*
X001071Y003437D02*
X001539Y003437D01*
X001461Y003516D02*
X001149Y003516D01*
X001127Y003987D02*
X001483Y003987D01*
X001561Y004065D02*
X001049Y004065D01*
X000970Y004144D02*
X001640Y004144D01*
X001656Y004320D02*
X002004Y004320D01*
X002250Y004566D01*
X002250Y004570D01*
X003989Y004570D01*
X004036Y004524D01*
X004129Y004485D01*
X004231Y004485D01*
X004324Y004524D01*
X004396Y004596D01*
X004435Y004689D01*
X004435Y004791D01*
X004396Y004884D01*
X004324Y004956D01*
X004231Y004995D01*
X004129Y004995D01*
X004036Y004956D01*
X003989Y004910D01*
X002250Y004910D01*
X002250Y004914D01*
X002004Y005160D01*
X001656Y005160D01*
X001410Y004914D01*
X001410Y004910D01*
X001200Y004910D01*
X001200Y004914D01*
X000954Y005160D01*
X000606Y005160D01*
X000360Y004914D01*
X000360Y004566D01*
X000606Y004320D01*
X000954Y004320D01*
X001200Y004566D01*
X001200Y004570D01*
X001410Y004570D01*
X001410Y004566D01*
X001656Y004320D01*
X001597Y004379D02*
X001013Y004379D01*
X001091Y004458D02*
X001519Y004458D01*
X001440Y004536D02*
X001170Y004536D01*
X001185Y004929D02*
X001425Y004929D01*
X001503Y005007D02*
X001107Y005007D01*
X001028Y005086D02*
X001582Y005086D01*
X001656Y005320D02*
X002004Y005320D01*
X002250Y005566D01*
X002250Y005914D01*
X002004Y006160D01*
X001656Y006160D01*
X001410Y005914D01*
X001410Y005910D01*
X001200Y005910D01*
X001200Y005914D01*
X000954Y006160D01*
X000606Y006160D01*
X000360Y005914D01*
X000360Y005566D01*
X000606Y005320D01*
X000954Y005320D01*
X001200Y005566D01*
X001200Y005570D01*
X001410Y005570D01*
X001410Y005566D01*
X001656Y005320D01*
X001655Y005321D02*
X000955Y005321D01*
X001033Y005400D02*
X001577Y005400D01*
X001498Y005478D02*
X001112Y005478D01*
X001190Y005557D02*
X001420Y005557D01*
X001445Y005949D02*
X001165Y005949D01*
X001086Y006028D02*
X001524Y006028D01*
X001602Y006106D02*
X001008Y006106D01*
X000962Y006300D02*
X000820Y006300D01*
X000820Y006700D01*
X000820Y006780D01*
X000740Y006780D01*
X000740Y007180D01*
X000598Y007180D01*
X000340Y006922D01*
X000340Y006780D01*
X000740Y006780D01*
X000740Y006700D01*
X000340Y006700D01*
X000340Y006558D01*
X000598Y006300D01*
X000740Y006300D01*
X000740Y006700D01*
X000820Y006700D01*
X001220Y006700D01*
X001220Y006558D01*
X000962Y006300D01*
X001004Y006342D02*
X001606Y006342D01*
X001648Y006300D02*
X001390Y006558D01*
X001390Y006700D01*
X001790Y006700D01*
X001790Y006780D01*
X001790Y007180D01*
X001648Y007180D01*
X001390Y006922D01*
X001390Y006780D01*
X001790Y006780D01*
X001870Y006780D01*
X001870Y007180D01*
X002012Y007180D01*
X002270Y006922D01*
X002270Y006780D01*
X001870Y006780D01*
X001870Y006700D01*
X002270Y006700D01*
X002270Y006558D01*
X002012Y006300D01*
X001870Y006300D01*
X001870Y006700D01*
X001790Y006700D01*
X001790Y006300D01*
X001648Y006300D01*
X001790Y006342D02*
X001870Y006342D01*
X001870Y006420D02*
X001790Y006420D01*
X001790Y006499D02*
X001870Y006499D01*
X001870Y006577D02*
X001790Y006577D01*
X001790Y006656D02*
X001870Y006656D01*
X001870Y006734D02*
X004384Y006734D01*
X004462Y006813D02*
X002270Y006813D01*
X002270Y006891D02*
X004541Y006891D01*
X004560Y006910D02*
X004295Y006645D01*
X004229Y006645D01*
X004136Y006606D01*
X004064Y006534D01*
X004025Y006441D01*
X004025Y006339D01*
X004064Y006246D01*
X004136Y006174D01*
X004229Y006135D01*
X004331Y006135D01*
X004424Y006174D01*
X004496Y006246D01*
X004535Y006339D01*
X004535Y006405D01*
X004784Y006654D01*
X004784Y006573D01*
X004844Y006514D01*
X004818Y006499D01*
X004792Y006473D01*
X004774Y006441D01*
X004764Y006405D01*
X004764Y006210D01*
X005061Y006210D01*
X005061Y006130D01*
X005141Y006130D01*
X005141Y005814D01*
X005317Y005814D01*
X005352Y005823D01*
X005384Y005842D01*
X005410Y005868D01*
X005429Y005900D01*
X005438Y005935D01*
X005438Y006130D01*
X005141Y006130D01*
X005141Y006210D01*
X005438Y006210D01*
X005438Y006405D01*
X005429Y006441D01*
X005410Y006473D01*
X005384Y006499D01*
X005358Y006514D01*
X005418Y006573D01*
X005418Y006709D01*
X005612Y006709D01*
X005603Y006695D01*
X005594Y006659D01*
X005594Y006533D01*
X005901Y006533D01*
X005901Y006477D01*
X005594Y006477D01*
X005594Y006351D01*
X005603Y006315D01*
X005614Y006297D01*
X005614Y005945D01*
X005673Y005886D01*
X005673Y005798D01*
X005712Y005704D01*
X005784Y005632D01*
X005877Y005594D01*
X005979Y005594D01*
X006072Y005632D01*
X006144Y005704D01*
X006183Y005798D01*
X006183Y005885D01*
X006244Y005945D01*
X006244Y006297D01*
X006254Y006315D01*
X006264Y006351D01*
X006264Y006477D01*
X005957Y006477D01*
X005957Y006533D01*
X006264Y006533D01*
X006264Y006659D01*
X006254Y006695D01*
X006244Y006713D01*
X006244Y007065D01*
X006173Y007135D01*
X005684Y007135D01*
X005614Y007065D01*
X005614Y007049D01*
X005418Y007049D01*
X005418Y007106D01*
X005348Y007176D01*
X004855Y007176D01*
X004784Y007106D01*
X004784Y007010D01*
X004659Y007010D01*
X004560Y006910D01*
X004619Y006970D02*
X002223Y006970D01*
X002144Y007048D02*
X004784Y007048D01*
X004805Y007127D02*
X002066Y007127D01*
X001870Y007127D02*
X001790Y007127D01*
X001790Y007048D02*
X001870Y007048D01*
X001870Y006970D02*
X001790Y006970D01*
X001790Y006891D02*
X001870Y006891D01*
X001870Y006813D02*
X001790Y006813D01*
X001790Y006734D02*
X000820Y006734D01*
X000820Y006780D02*
X001220Y006780D01*
X001220Y006922D01*
X000962Y007180D01*
X000820Y007180D01*
X000820Y006780D01*
X000820Y006813D02*
X000740Y006813D01*
X000740Y006891D02*
X000820Y006891D01*
X000820Y006970D02*
X000740Y006970D01*
X000740Y007048D02*
X000820Y007048D01*
X000820Y007127D02*
X000740Y007127D01*
X000544Y007127D02*
X000415Y007127D01*
X000466Y007048D02*
X000336Y007048D01*
X000320Y006970D02*
X000387Y006970D01*
X000340Y006891D02*
X000320Y006891D01*
X000320Y006813D02*
X000340Y006813D01*
X000320Y006734D02*
X000740Y006734D01*
X000740Y006656D02*
X000820Y006656D01*
X000820Y006577D02*
X000740Y006577D01*
X000740Y006499D02*
X000820Y006499D01*
X000820Y006420D02*
X000740Y006420D01*
X000740Y006342D02*
X000820Y006342D01*
X001082Y006420D02*
X001528Y006420D01*
X001449Y006499D02*
X001161Y006499D01*
X001220Y006577D02*
X001390Y006577D01*
X001390Y006656D02*
X001220Y006656D01*
X001220Y006813D02*
X001390Y006813D01*
X001390Y006891D02*
X001220Y006891D01*
X001173Y006970D02*
X001437Y006970D01*
X001516Y007048D02*
X001094Y007048D01*
X001016Y007127D02*
X001594Y007127D01*
X002270Y006656D02*
X004305Y006656D01*
X004106Y006577D02*
X002270Y006577D01*
X002211Y006499D02*
X004049Y006499D01*
X004025Y006420D02*
X002132Y006420D01*
X002054Y006342D02*
X004025Y006342D01*
X004057Y006263D02*
X000320Y006263D01*
X000320Y006185D02*
X004125Y006185D01*
X004435Y006185D02*
X005061Y006185D01*
X005061Y006130D02*
X004764Y006130D01*
X004764Y005935D01*
X004774Y005900D01*
X004792Y005868D01*
X004818Y005842D01*
X004850Y005823D01*
X004886Y005814D01*
X005061Y005814D01*
X005061Y006130D01*
X005061Y006106D02*
X005141Y006106D01*
X005141Y006028D02*
X005061Y006028D01*
X005061Y005949D02*
X005141Y005949D01*
X005141Y005871D02*
X005061Y005871D01*
X004791Y005871D02*
X002250Y005871D01*
X002250Y005792D02*
X005675Y005792D01*
X005673Y005871D02*
X005412Y005871D01*
X005438Y005949D02*
X005614Y005949D01*
X005614Y006028D02*
X005438Y006028D01*
X005438Y006106D02*
X005614Y006106D01*
X005614Y006185D02*
X005141Y006185D01*
X005384Y006499D02*
X005901Y006499D01*
X005957Y006499D02*
X006336Y006499D01*
X006342Y006484D02*
X006414Y006412D01*
X006507Y006373D01*
X006609Y006373D01*
X006702Y006412D01*
X006774Y006484D01*
X006813Y006577D01*
X007492Y006577D01*
X007492Y006573D02*
X007552Y006514D01*
X007526Y006499D01*
X007500Y006473D01*
X007481Y006441D01*
X007472Y006405D01*
X007472Y006210D01*
X007769Y006210D01*
X007769Y006130D01*
X007849Y006130D01*
X007849Y005814D01*
X008024Y005814D01*
X008060Y005823D01*
X008092Y005842D01*
X008118Y005868D01*
X008136Y005900D01*
X008146Y005935D01*
X008146Y006130D01*
X007849Y006130D01*
X007849Y006210D01*
X008146Y006210D01*
X008146Y006405D01*
X008136Y006441D01*
X008118Y006473D01*
X008092Y006499D01*
X008066Y006514D01*
X008126Y006573D01*
X008126Y007106D01*
X008055Y007176D01*
X007562Y007176D01*
X007492Y007106D01*
X007492Y007049D01*
X007267Y007049D01*
X007267Y007065D01*
X007197Y007135D01*
X006708Y007135D01*
X006638Y007065D01*
X006638Y007050D01*
X006620Y007050D01*
X006520Y006950D01*
X006414Y006845D01*
X006414Y006844D01*
X006342Y006773D01*
X006303Y006679D01*
X006303Y006577D01*
X006264Y006577D01*
X006303Y006577D02*
X006342Y006484D01*
X006405Y006420D02*
X006264Y006420D01*
X006261Y006342D02*
X006663Y006342D01*
X006638Y006316D02*
X006708Y006387D01*
X007197Y006387D01*
X007267Y006316D01*
X007267Y005945D01*
X007197Y005875D01*
X006708Y005875D01*
X006638Y005945D01*
X006638Y006316D01*
X006638Y006263D02*
X006244Y006263D01*
X006244Y006185D02*
X006638Y006185D01*
X006638Y006106D02*
X006244Y006106D01*
X006244Y006028D02*
X006638Y006028D01*
X006638Y005949D02*
X006244Y005949D01*
X006183Y005871D02*
X007498Y005871D01*
X007500Y005868D02*
X007526Y005842D01*
X007558Y005823D01*
X007593Y005814D01*
X007769Y005814D01*
X007769Y006130D01*
X007472Y006130D01*
X007472Y005935D01*
X007481Y005900D01*
X007500Y005868D01*
X007472Y005949D02*
X007267Y005949D01*
X007267Y006028D02*
X007472Y006028D01*
X007472Y006106D02*
X007267Y006106D01*
X007267Y006185D02*
X007769Y006185D01*
X007769Y006106D02*
X007849Y006106D01*
X007849Y006028D02*
X007769Y006028D01*
X007769Y005949D02*
X007849Y005949D01*
X007849Y005871D02*
X007769Y005871D01*
X007849Y006185D02*
X008756Y006185D01*
X008756Y006210D02*
X008756Y005907D01*
X009092Y005907D01*
X009092Y005827D01*
X008756Y005827D01*
X008756Y005524D01*
X008766Y005488D01*
X008784Y005456D01*
X008810Y005430D01*
X008842Y005412D01*
X008878Y005402D01*
X009092Y005402D01*
X009092Y005827D01*
X009172Y005827D01*
X009172Y005402D01*
X009387Y005402D01*
X009423Y005412D01*
X009455Y005430D01*
X009481Y005456D01*
X009499Y005488D01*
X009509Y005524D01*
X009509Y005579D01*
X009566Y005579D01*
X009566Y005936D01*
X009604Y005936D01*
X009604Y005579D01*
X009660Y005579D01*
X009660Y005270D01*
X009760Y005170D01*
X009860Y005170D01*
X009860Y005010D01*
X009811Y004962D01*
X009731Y004995D01*
X009629Y004995D01*
X009536Y004956D01*
X009464Y004884D01*
X009425Y004791D01*
X009425Y004689D01*
X009464Y004596D01*
X009536Y004524D01*
X009629Y004485D01*
X009731Y004485D01*
X009824Y004524D01*
X009871Y004570D01*
X009900Y004570D01*
X010200Y004870D01*
X010200Y005170D01*
X010500Y005170D01*
X010600Y005270D01*
X010600Y006710D01*
X010500Y006810D01*
X009760Y006810D01*
X009660Y006710D01*
X009660Y006332D01*
X009604Y006332D01*
X009604Y005974D01*
X009566Y005974D01*
X009566Y006332D01*
X009449Y006332D01*
X009418Y006323D01*
X009387Y006332D01*
X009172Y006332D01*
X009172Y005907D01*
X009092Y005907D01*
X009092Y006332D01*
X008878Y006332D01*
X008842Y006322D01*
X008810Y006304D01*
X008784Y006278D01*
X008766Y006246D01*
X008756Y006210D01*
X008776Y006263D02*
X008146Y006263D01*
X008146Y006342D02*
X009660Y006342D01*
X009660Y006420D02*
X008142Y006420D01*
X008092Y006499D02*
X009660Y006499D01*
X009660Y006577D02*
X008126Y006577D01*
X008126Y006656D02*
X009660Y006656D01*
X009684Y006734D02*
X008126Y006734D01*
X008126Y006813D02*
X010990Y006813D01*
X010990Y006891D02*
X008126Y006891D01*
X008126Y006970D02*
X010990Y006970D01*
X010974Y007048D02*
X008126Y007048D01*
X008105Y007127D02*
X010895Y007127D01*
X010990Y006734D02*
X010576Y006734D01*
X010600Y006656D02*
X010990Y006656D01*
X010990Y006577D02*
X010600Y006577D01*
X010600Y006499D02*
X010990Y006499D01*
X010990Y006420D02*
X010600Y006420D01*
X010600Y006342D02*
X010990Y006342D01*
X010990Y006263D02*
X010600Y006263D01*
X010600Y006185D02*
X010990Y006185D01*
X010990Y006106D02*
X010600Y006106D01*
X010600Y006028D02*
X010990Y006028D01*
X010990Y005949D02*
X010600Y005949D01*
X010600Y005871D02*
X010990Y005871D01*
X010990Y005792D02*
X010600Y005792D01*
X010600Y005714D02*
X010990Y005714D01*
X010990Y005635D02*
X010600Y005635D01*
X010600Y005557D02*
X010990Y005557D01*
X010990Y005478D02*
X010600Y005478D01*
X010600Y005400D02*
X010990Y005400D01*
X010990Y005321D02*
X010600Y005321D01*
X010573Y005243D02*
X010990Y005243D01*
X010990Y005164D02*
X010200Y005164D01*
X010200Y005086D02*
X010990Y005086D01*
X010990Y005007D02*
X010200Y005007D01*
X010200Y004929D02*
X010990Y004929D01*
X010990Y004850D02*
X010180Y004850D01*
X010102Y004772D02*
X010990Y004772D01*
X010990Y004693D02*
X010023Y004693D01*
X009945Y004615D02*
X010990Y004615D01*
X010990Y004536D02*
X009837Y004536D01*
X009523Y004536D02*
X008836Y004536D01*
X008863Y004458D02*
X010990Y004458D01*
X010990Y004379D02*
X008863Y004379D01*
X008863Y004301D02*
X010990Y004301D01*
X010990Y004222D02*
X008863Y004222D01*
X008863Y004144D02*
X010990Y004144D01*
X010990Y004065D02*
X008863Y004065D01*
X008863Y003987D02*
X010990Y003987D01*
X010990Y003908D02*
X008863Y003908D01*
X008863Y003830D02*
X010990Y003830D01*
X010990Y003751D02*
X008863Y003751D01*
X008834Y003673D02*
X010990Y003673D01*
X010990Y003594D02*
X008863Y003594D01*
X008863Y003516D02*
X010990Y003516D01*
X010990Y003437D02*
X008863Y003437D01*
X008863Y003359D02*
X010990Y003359D01*
X010990Y003280D02*
X008863Y003280D01*
X008876Y003202D02*
X010990Y003202D01*
X010990Y003123D02*
X008883Y003123D01*
X008150Y003280D02*
X008060Y003280D01*
X008136Y003202D02*
X007982Y003202D01*
X007903Y003123D02*
X008130Y003123D01*
X007815Y003516D02*
X007409Y003516D01*
X007405Y003520D02*
X007373Y003539D01*
X007337Y003548D01*
X007101Y003548D01*
X007101Y003309D01*
X007459Y003309D01*
X007459Y003427D01*
X007449Y003462D01*
X007431Y003494D01*
X007405Y003520D01*
X007410Y003594D02*
X007894Y003594D01*
X007987Y003673D02*
X007439Y003673D01*
X007439Y003751D02*
X007865Y003751D01*
X007818Y003830D02*
X007439Y003830D01*
X007588Y003908D02*
X007802Y003908D01*
X007809Y003987D02*
X007667Y003987D01*
X007745Y004065D02*
X007842Y004065D01*
X007824Y004144D02*
X007932Y004144D01*
X007657Y004458D02*
X007439Y004458D01*
X007439Y004379D02*
X007579Y004379D01*
X007500Y004301D02*
X007439Y004301D01*
X006766Y004536D02*
X008177Y004536D01*
X008150Y004929D02*
X005893Y004929D01*
X005893Y005007D02*
X008150Y005007D01*
X008150Y005086D02*
X005577Y005086D01*
X005577Y005091D02*
X005893Y005091D01*
X005893Y005266D01*
X005884Y005302D01*
X005865Y005333D01*
X005839Y005360D01*
X005807Y005378D01*
X005772Y005387D01*
X005577Y005387D01*
X005577Y005091D01*
X005577Y005011D01*
X005893Y005011D01*
X005893Y004835D01*
X005884Y004800D01*
X005865Y004768D01*
X005839Y004742D01*
X005807Y004723D01*
X005772Y004714D01*
X005577Y004714D01*
X005577Y005011D01*
X005497Y005011D01*
X005497Y004714D01*
X005302Y004714D01*
X005266Y004723D01*
X005234Y004742D01*
X005208Y004768D01*
X005193Y004793D01*
X005134Y004734D01*
X005048Y004734D01*
X005048Y004528D01*
X005164Y004528D01*
X005234Y004458D01*
X005234Y004444D01*
X005383Y004444D01*
X005429Y004490D01*
X005523Y004529D01*
X005624Y004529D01*
X005718Y004490D01*
X005790Y004418D01*
X005829Y004325D01*
X005829Y004223D01*
X005790Y004129D01*
X005718Y004058D01*
X005624Y004019D01*
X005523Y004019D01*
X005429Y004058D01*
X005383Y004104D01*
X005216Y004104D01*
X005164Y004052D01*
X004592Y004052D01*
X004521Y004122D01*
X004521Y004458D01*
X004592Y004528D01*
X004708Y004528D01*
X004708Y004734D01*
X004601Y004734D01*
X004531Y004804D01*
X004531Y005297D01*
X004576Y005343D01*
X004576Y005344D01*
X004576Y005445D01*
X004615Y005539D01*
X004687Y005611D01*
X004780Y005649D01*
X004882Y005649D01*
X004976Y005611D01*
X005047Y005539D01*
X005086Y005445D01*
X005086Y005367D01*
X005134Y005367D01*
X005193Y005308D01*
X005208Y005333D01*
X005234Y005360D01*
X005266Y005378D01*
X005302Y005387D01*
X005497Y005387D01*
X005497Y005091D01*
X005577Y005091D01*
X005577Y005164D02*
X005497Y005164D01*
X005497Y005243D02*
X005577Y005243D01*
X005577Y005321D02*
X005497Y005321D01*
X005201Y005321D02*
X005180Y005321D01*
X005086Y005400D02*
X008175Y005400D01*
X008150Y005321D02*
X005872Y005321D01*
X005893Y005243D02*
X008150Y005243D01*
X008150Y005164D02*
X005893Y005164D01*
X005893Y004850D02*
X006600Y004850D01*
X006575Y004825D02*
X006575Y004825D01*
X006521Y004772D02*
X005867Y004772D01*
X005577Y004772D02*
X005497Y004772D01*
X005497Y004850D02*
X005577Y004850D01*
X005577Y004929D02*
X005497Y004929D01*
X005497Y005007D02*
X005577Y005007D01*
X005206Y004772D02*
X005171Y004772D01*
X005048Y004693D02*
X006443Y004693D01*
X006364Y004615D02*
X005048Y004615D01*
X005048Y004536D02*
X006286Y004536D01*
X006207Y004458D02*
X005751Y004458D01*
X005806Y004379D02*
X006129Y004379D01*
X006050Y004301D02*
X005829Y004301D01*
X005828Y004222D02*
X005972Y004222D01*
X005893Y004144D02*
X005796Y004144D01*
X005815Y004065D02*
X005725Y004065D01*
X005736Y003987D02*
X005205Y003987D01*
X005177Y004065D02*
X005422Y004065D01*
X005397Y004458D02*
X005234Y004458D01*
X004708Y004536D02*
X004337Y004536D01*
X004404Y004615D02*
X004708Y004615D01*
X004708Y004693D02*
X004435Y004693D01*
X004435Y004772D02*
X004563Y004772D01*
X004531Y004850D02*
X004410Y004850D01*
X004352Y004929D02*
X004531Y004929D01*
X004531Y005007D02*
X002157Y005007D01*
X002235Y004929D02*
X004008Y004929D01*
X004023Y004536D02*
X002220Y004536D01*
X002141Y004458D02*
X004521Y004458D01*
X004521Y004379D02*
X002063Y004379D01*
X002020Y004144D02*
X004521Y004144D01*
X004521Y004222D02*
X000320Y004222D01*
X000320Y004144D02*
X000590Y004144D01*
X000511Y004065D02*
X000320Y004065D01*
X000320Y003987D02*
X000433Y003987D01*
X000360Y003908D02*
X000320Y003908D01*
X000320Y003830D02*
X000360Y003830D01*
X000360Y003751D02*
X000320Y003751D01*
X000320Y003673D02*
X000360Y003673D01*
X000360Y003594D02*
X000320Y003594D01*
X000320Y003516D02*
X000411Y003516D01*
X000489Y003437D02*
X000320Y003437D01*
X000320Y003359D02*
X000568Y003359D01*
X000569Y003123D02*
X000320Y003123D01*
X000320Y003045D02*
X000491Y003045D01*
X000412Y002966D02*
X000320Y002966D01*
X000320Y002888D02*
X000360Y002888D01*
X000360Y002809D02*
X000320Y002809D01*
X000320Y002731D02*
X000360Y002731D01*
X000360Y002652D02*
X000320Y002652D01*
X000320Y002574D02*
X000360Y002574D01*
X000320Y002495D02*
X000431Y002495D01*
X000510Y002417D02*
X000320Y002417D01*
X000320Y002338D02*
X000588Y002338D01*
X000320Y002260D02*
X002070Y002260D01*
X001423Y001553D02*
X001187Y001553D01*
X001108Y001475D02*
X001502Y001475D01*
X001580Y001396D02*
X001030Y001396D01*
X001032Y001082D02*
X001578Y001082D01*
X001500Y001004D02*
X001110Y001004D01*
X001189Y000925D02*
X001421Y000925D01*
X001444Y000533D02*
X001166Y000533D01*
X001088Y000454D02*
X001522Y000454D01*
X001601Y000376D02*
X001009Y000376D01*
X000471Y000297D02*
X010839Y000297D01*
X010918Y000376D02*
X002059Y000376D01*
X004859Y000533D02*
X004897Y000533D01*
X004897Y000611D02*
X004859Y000611D01*
X004859Y000690D02*
X004897Y000690D01*
X004897Y000768D02*
X004859Y000768D01*
X004859Y000847D02*
X004897Y000847D01*
X004897Y000925D02*
X004859Y000925D01*
X004859Y001004D02*
X004897Y001004D01*
X005168Y002024D02*
X005824Y002024D01*
X005902Y002103D02*
X005214Y002103D01*
X005234Y002181D02*
X005981Y002181D01*
X006059Y002260D02*
X005234Y002260D01*
X005234Y002338D02*
X006138Y002338D01*
X006216Y002417D02*
X005234Y002417D01*
X005197Y002495D02*
X006295Y002495D01*
X006373Y002574D02*
X005185Y002574D01*
X004579Y003516D02*
X002295Y003516D01*
X002250Y003594D02*
X004550Y003594D01*
X004521Y003673D02*
X002250Y003673D01*
X002250Y003751D02*
X004521Y003751D01*
X004521Y003830D02*
X002250Y003830D01*
X002250Y003908D02*
X004521Y003908D01*
X004550Y003987D02*
X002177Y003987D01*
X002099Y004065D02*
X004579Y004065D01*
X004521Y004301D02*
X000320Y004301D01*
X000320Y004379D02*
X000547Y004379D01*
X000469Y004458D02*
X000320Y004458D01*
X000320Y004536D02*
X000390Y004536D01*
X000360Y004615D02*
X000320Y004615D01*
X000320Y004693D02*
X000360Y004693D01*
X000360Y004772D02*
X000320Y004772D01*
X000320Y004850D02*
X000360Y004850D01*
X000375Y004929D02*
X000320Y004929D01*
X000320Y005007D02*
X000453Y005007D01*
X000532Y005086D02*
X000320Y005086D01*
X000320Y005164D02*
X004531Y005164D01*
X004531Y005086D02*
X002078Y005086D01*
X002005Y005321D02*
X004555Y005321D01*
X004576Y005400D02*
X002083Y005400D01*
X002162Y005478D02*
X004590Y005478D01*
X004633Y005557D02*
X002240Y005557D01*
X002250Y005635D02*
X004746Y005635D01*
X004916Y005635D02*
X005781Y005635D01*
X005708Y005714D02*
X002250Y005714D01*
X002215Y005949D02*
X004764Y005949D01*
X004764Y006028D02*
X002136Y006028D01*
X002058Y006106D02*
X004764Y006106D01*
X004764Y006263D02*
X004503Y006263D01*
X004535Y006342D02*
X004764Y006342D01*
X004768Y006420D02*
X004550Y006420D01*
X004629Y006499D02*
X004818Y006499D01*
X004784Y006577D02*
X004707Y006577D01*
X005397Y007127D02*
X005676Y007127D01*
X005594Y006656D02*
X005418Y006656D01*
X005418Y006577D02*
X005594Y006577D01*
X005594Y006420D02*
X005434Y006420D01*
X005438Y006342D02*
X005596Y006342D01*
X005614Y006263D02*
X005438Y006263D01*
X005030Y005557D02*
X008756Y005557D01*
X008756Y005635D02*
X006075Y005635D01*
X006148Y005714D02*
X008756Y005714D01*
X008756Y005792D02*
X006181Y005792D01*
X006710Y006420D02*
X007476Y006420D01*
X007472Y006342D02*
X007242Y006342D01*
X007267Y006263D02*
X007472Y006263D01*
X007526Y006499D02*
X006780Y006499D01*
X006813Y006577D02*
X006813Y006623D01*
X007197Y006623D01*
X007267Y006693D01*
X007267Y006709D01*
X007492Y006709D01*
X007492Y006573D01*
X007492Y006656D02*
X007229Y006656D01*
X007205Y007127D02*
X007513Y007127D01*
X006700Y007127D02*
X006182Y007127D01*
X006244Y007048D02*
X006618Y007048D01*
X006539Y006970D02*
X006244Y006970D01*
X006244Y006891D02*
X006461Y006891D01*
X006520Y006950D02*
X006520Y006950D01*
X006382Y006813D02*
X006244Y006813D01*
X006244Y006734D02*
X006326Y006734D01*
X006303Y006656D02*
X006264Y006656D01*
X005073Y005478D02*
X008771Y005478D01*
X008838Y005400D02*
X009660Y005400D01*
X009660Y005478D02*
X009493Y005478D01*
X009509Y005557D02*
X009660Y005557D01*
X009604Y005635D02*
X009566Y005635D01*
X009566Y005714D02*
X009604Y005714D01*
X009604Y005792D02*
X009566Y005792D01*
X009566Y005871D02*
X009604Y005871D01*
X009604Y006028D02*
X009566Y006028D01*
X009566Y006106D02*
X009604Y006106D01*
X009604Y006185D02*
X009566Y006185D01*
X009566Y006263D02*
X009604Y006263D01*
X009172Y006263D02*
X009092Y006263D01*
X009092Y006185D02*
X009172Y006185D01*
X009172Y006106D02*
X009092Y006106D01*
X009092Y006028D02*
X009172Y006028D01*
X009172Y005949D02*
X009092Y005949D01*
X009092Y005871D02*
X008119Y005871D01*
X008146Y005949D02*
X008756Y005949D01*
X008756Y006028D02*
X008146Y006028D01*
X008146Y006106D02*
X008756Y006106D01*
X009092Y005792D02*
X009172Y005792D01*
X009172Y005714D02*
X009092Y005714D01*
X009092Y005635D02*
X009172Y005635D01*
X009172Y005557D02*
X009092Y005557D01*
X009092Y005478D02*
X009172Y005478D01*
X008863Y005321D02*
X009660Y005321D01*
X009687Y005243D02*
X008863Y005243D01*
X008863Y005164D02*
X009860Y005164D01*
X009860Y005086D02*
X008863Y005086D01*
X008863Y005007D02*
X009857Y005007D01*
X009508Y004929D02*
X008863Y004929D01*
X008863Y004850D02*
X009450Y004850D01*
X009425Y004772D02*
X008863Y004772D01*
X008863Y004693D02*
X009425Y004693D01*
X009456Y004615D02*
X008863Y004615D01*
X008179Y003673D02*
X008127Y003673D01*
X007737Y003437D02*
X007456Y003437D01*
X007459Y003359D02*
X007658Y003359D01*
X007580Y003280D02*
X007101Y003280D01*
X007063Y003280D02*
X006160Y003280D01*
X006374Y004144D02*
X006543Y004144D01*
X006452Y004222D02*
X006726Y004222D01*
X006726Y004301D02*
X006531Y004301D01*
X006609Y004379D02*
X006726Y004379D01*
X006726Y004458D02*
X006688Y004458D01*
X007063Y003516D02*
X007101Y003516D01*
X007101Y003437D02*
X007063Y003437D01*
X007063Y003359D02*
X007101Y003359D01*
X007101Y003202D02*
X007063Y003202D01*
X007063Y003123D02*
X007101Y003123D01*
X007101Y003045D02*
X007063Y003045D01*
X007378Y003045D02*
X007510Y003045D01*
X007510Y003123D02*
X007450Y003123D01*
X007459Y003202D02*
X007510Y003202D01*
X007510Y002966D02*
X007430Y002966D01*
X007439Y002888D02*
X007487Y002888D01*
X008919Y001553D02*
X008999Y001553D01*
X008999Y001475D02*
X008919Y001475D01*
X008919Y001396D02*
X008999Y001396D01*
X008999Y001318D02*
X008919Y001318D01*
X004531Y005243D02*
X000320Y005243D01*
X000320Y005321D02*
X000605Y005321D01*
X000527Y005400D02*
X000320Y005400D01*
X000320Y005478D02*
X000448Y005478D01*
X000370Y005557D02*
X000320Y005557D01*
X000320Y005635D02*
X000360Y005635D01*
X000360Y005714D02*
X000320Y005714D01*
X000320Y005792D02*
X000360Y005792D01*
X000360Y005871D02*
X000320Y005871D01*
X000320Y005949D02*
X000395Y005949D01*
X000320Y006028D02*
X000474Y006028D01*
X000552Y006106D02*
X000320Y006106D01*
X000320Y006342D02*
X000556Y006342D01*
X000478Y006420D02*
X000320Y006420D01*
X000320Y006499D02*
X000399Y006499D01*
X000340Y006577D02*
X000320Y006577D01*
X000320Y006656D02*
X000340Y006656D01*
M02*
