G75*
%MOIN*%
%OFA0B0*%
%FSLAX24Y24*%
%IPPOS*%
%LPD*%
%AMOC8*
5,1,8,0,0,1.08239X$1,22.5*
%
%ADD10C,0.0040*%
%ADD11C,0.0030*%
%ADD12C,0.0060*%
%ADD13C,0.0050*%
%ADD14R,0.0295X0.0295*%
%ADD15C,0.0020*%
%ADD16C,0.0080*%
D10*
X002450Y002510D02*
X002450Y002970D01*
X002603Y002817D01*
X002757Y002970D01*
X002757Y002510D01*
X002910Y002587D02*
X002987Y002510D01*
X003141Y002510D01*
X003217Y002587D01*
X003217Y002894D01*
X003141Y002970D01*
X002987Y002970D01*
X002910Y002894D01*
X002910Y002587D01*
X003371Y002587D02*
X003448Y002510D01*
X003601Y002510D01*
X003678Y002587D01*
X003678Y002663D01*
X003601Y002740D01*
X003448Y002740D01*
X003371Y002817D01*
X003371Y002894D01*
X003448Y002970D01*
X003601Y002970D01*
X003678Y002894D01*
X003831Y002970D02*
X003985Y002970D01*
X003908Y002970D02*
X003908Y002510D01*
X003831Y002510D02*
X003985Y002510D01*
X003958Y001970D02*
X003804Y001970D01*
X003728Y001894D01*
X003728Y001587D01*
X003804Y001510D01*
X003958Y001510D01*
X004035Y001587D01*
X004035Y001894D01*
X003958Y001970D01*
X003574Y001894D02*
X003498Y001970D01*
X003344Y001970D01*
X003267Y001894D01*
X003267Y001817D01*
X003344Y001740D01*
X003498Y001740D01*
X003574Y001663D01*
X003574Y001587D01*
X003498Y001510D01*
X003344Y001510D01*
X003267Y001587D01*
X003114Y001510D02*
X002960Y001510D01*
X003037Y001510D02*
X003037Y001970D01*
X002960Y001970D02*
X003114Y001970D01*
X002807Y001970D02*
X002807Y001510D01*
X002500Y001510D02*
X002500Y001970D01*
X002653Y001817D01*
X002807Y001970D01*
X002730Y000970D02*
X002577Y000970D01*
X002500Y000894D01*
X002500Y000817D01*
X002577Y000740D01*
X002730Y000740D01*
X002807Y000663D01*
X002807Y000587D01*
X002730Y000510D01*
X002577Y000510D01*
X002500Y000587D01*
X002807Y000894D02*
X002730Y000970D01*
X002960Y000894D02*
X002960Y000587D01*
X003037Y000510D01*
X003191Y000510D01*
X003267Y000587D01*
X003421Y000663D02*
X003728Y000970D01*
X003498Y000740D02*
X003728Y000510D01*
X003421Y000510D02*
X003421Y000970D01*
X003267Y000894D02*
X003191Y000970D01*
X003037Y000970D01*
X002960Y000894D01*
X003037Y003510D02*
X002960Y003587D01*
X003037Y003510D02*
X003191Y003510D01*
X003267Y003587D01*
X003267Y003663D01*
X003191Y003740D01*
X003037Y003740D01*
X002960Y003817D01*
X002960Y003894D01*
X003037Y003970D01*
X003191Y003970D01*
X003267Y003894D01*
X003401Y004050D02*
X002480Y004050D01*
X002577Y003970D02*
X002500Y003894D01*
X002500Y003587D01*
X002577Y003510D01*
X002730Y003510D01*
X002807Y003587D01*
X002807Y003894D02*
X002730Y003970D01*
X002577Y003970D01*
X002577Y004510D02*
X002730Y004510D01*
X002807Y004587D01*
X002960Y004510D02*
X003191Y004510D01*
X003267Y004587D01*
X003267Y004894D01*
X003191Y004970D01*
X002960Y004970D01*
X002960Y004510D01*
X002807Y004894D02*
X002730Y004970D01*
X002577Y004970D01*
X002500Y004894D01*
X002500Y004587D01*
X002577Y004510D01*
X002480Y005050D02*
X003401Y005050D01*
X003267Y005510D02*
X003267Y005970D01*
X003574Y005510D01*
X003574Y005970D01*
X003114Y005970D02*
X002960Y005970D01*
X003037Y005970D02*
X003037Y005510D01*
X002960Y005510D02*
X003114Y005510D01*
X002807Y005663D02*
X002807Y005970D01*
X002500Y005970D02*
X002500Y005663D01*
X002653Y005510D01*
X002807Y005663D01*
X002730Y006510D02*
X002577Y006510D01*
X002500Y006587D01*
X002500Y006894D01*
X002577Y006970D01*
X002730Y006970D01*
X002807Y006894D01*
X002807Y006740D02*
X002653Y006740D01*
X002807Y006740D02*
X002807Y006587D01*
X002730Y006510D01*
X002960Y006510D02*
X002960Y006970D01*
X003267Y006510D01*
X003267Y006970D01*
X003421Y006970D02*
X003651Y006970D01*
X003728Y006894D01*
X003728Y006587D01*
X003651Y006510D01*
X003421Y006510D01*
X003421Y006970D01*
D11*
X008729Y006958D02*
X008874Y006958D01*
X008923Y007007D01*
X008923Y007104D01*
X008874Y007152D01*
X008729Y007152D01*
X008729Y006862D01*
X008826Y006958D02*
X008923Y006862D01*
X009024Y006910D02*
X009217Y007104D01*
X009217Y006910D01*
X009169Y006862D01*
X009072Y006862D01*
X009024Y006910D01*
X009024Y007104D01*
X009072Y007152D01*
X009169Y007152D01*
X009217Y007104D01*
X009319Y006910D02*
X009367Y006910D01*
X009367Y006862D01*
X009319Y006862D01*
X009319Y006910D01*
X009466Y006910D02*
X009514Y006862D01*
X009611Y006862D01*
X009659Y006910D01*
X009659Y007007D01*
X009611Y007055D01*
X009563Y007055D01*
X009466Y007007D01*
X009466Y007152D01*
X009659Y007152D01*
X010546Y005751D02*
X010484Y005690D01*
X010484Y005504D01*
X010854Y005504D01*
X010854Y005690D01*
X010793Y005751D01*
X010546Y005751D01*
X010546Y005383D02*
X010484Y005321D01*
X010484Y005198D01*
X010546Y005136D01*
X010607Y005136D01*
X010669Y005198D01*
X010669Y005321D01*
X010731Y005383D01*
X010793Y005383D01*
X010854Y005321D01*
X010854Y005198D01*
X010793Y005136D01*
X010793Y005015D02*
X010669Y005015D01*
X010607Y004953D01*
X010607Y004830D01*
X010669Y004768D01*
X010793Y004768D01*
X010854Y004830D01*
X010854Y004953D01*
X010793Y005015D01*
X010607Y004646D02*
X010607Y004584D01*
X010731Y004461D01*
X010854Y004461D02*
X010607Y004461D01*
X010607Y004339D02*
X010607Y004154D01*
X010669Y004093D01*
X010793Y004093D01*
X010854Y004154D01*
X010854Y004339D01*
X010854Y003971D02*
X010854Y003847D01*
X010854Y003909D02*
X010607Y003909D01*
X010607Y003847D01*
X010484Y003909D02*
X010422Y003909D01*
X010484Y003726D02*
X010854Y003726D01*
X010854Y003479D02*
X010484Y003479D01*
X010607Y003602D01*
X010484Y003726D01*
X010669Y003357D02*
X010731Y003357D01*
X010731Y003110D01*
X010793Y003110D02*
X010669Y003110D01*
X010607Y003172D01*
X010607Y003296D01*
X010669Y003357D01*
X010854Y003296D02*
X010854Y003172D01*
X010793Y003110D01*
X010731Y002989D02*
X010669Y002989D01*
X010607Y002927D01*
X010607Y002804D01*
X010669Y002742D01*
X010793Y002742D01*
X010854Y002804D01*
X010854Y002927D01*
X010731Y002989D02*
X010731Y002742D01*
X010854Y002621D02*
X010854Y002374D01*
X010793Y002374D01*
X010546Y002621D01*
X010484Y002621D01*
X010484Y002374D01*
X010607Y002191D02*
X010669Y002252D01*
X010731Y002252D01*
X010731Y002006D01*
X010793Y002006D02*
X010669Y002006D01*
X010607Y002067D01*
X010607Y002191D01*
X010854Y002191D02*
X010854Y002067D01*
X010793Y002006D01*
X010731Y001884D02*
X010669Y001884D01*
X010607Y001822D01*
X010607Y001699D01*
X010669Y001637D01*
X010793Y001637D01*
X010854Y001699D01*
X010854Y001822D01*
X010731Y001884D02*
X010731Y001637D01*
X010336Y001088D02*
X010143Y001088D01*
X010143Y000798D01*
X010336Y000798D01*
X010240Y000943D02*
X010143Y000943D01*
X010042Y001088D02*
X009848Y001088D01*
X009848Y000798D01*
X009747Y000798D02*
X009747Y000991D01*
X009650Y001088D01*
X009554Y000991D01*
X009554Y000798D01*
X009452Y000846D02*
X009404Y000798D01*
X009307Y000798D01*
X009259Y000846D01*
X009307Y000943D02*
X009404Y000943D01*
X009452Y000894D01*
X009452Y000846D01*
X009554Y000943D02*
X009747Y000943D01*
X009848Y000943D02*
X009945Y000943D01*
X009452Y001039D02*
X009404Y001088D01*
X009307Y001088D01*
X009259Y001039D01*
X009259Y000991D01*
X009307Y000943D01*
X008863Y000894D02*
X008863Y001088D01*
X008670Y001088D02*
X008670Y000894D01*
X008766Y000798D01*
X008863Y000894D01*
X008568Y000846D02*
X008520Y000798D01*
X008423Y000798D01*
X008375Y000846D01*
X008375Y000943D02*
X008472Y000991D01*
X008520Y000991D01*
X008568Y000943D01*
X008568Y000846D01*
X008375Y000943D02*
X008375Y001088D01*
X008568Y001088D01*
D12*
X000530Y000240D02*
X000280Y000490D01*
X000280Y000990D01*
X000530Y001240D01*
X000280Y001490D01*
X000280Y001990D01*
X000530Y002240D01*
X001030Y002240D01*
X001280Y001990D01*
X001280Y001490D01*
X001030Y001240D01*
X001280Y000990D01*
X001280Y000490D01*
X001030Y000240D01*
X000530Y000240D01*
X001330Y000490D02*
X001330Y000990D01*
X001580Y001240D01*
X001330Y001490D01*
X001330Y001990D01*
X001580Y002240D01*
X002080Y002240D01*
X002330Y001990D01*
X002330Y001490D01*
X002080Y001240D01*
X002330Y000990D01*
X002330Y000490D01*
X002080Y000240D01*
X001580Y000240D01*
X001330Y000490D01*
X001580Y001240D02*
X002080Y001240D01*
X002080Y002240D02*
X002330Y002490D01*
X002330Y002990D01*
X002080Y003240D01*
X002330Y003490D01*
X002330Y003990D01*
X002080Y004240D01*
X002330Y004490D01*
X002330Y004990D01*
X002080Y005240D01*
X001580Y005240D01*
X001330Y004990D01*
X001330Y004490D01*
X001580Y004240D01*
X002080Y004240D01*
X001580Y004240D02*
X001330Y003990D01*
X001330Y003490D01*
X001580Y003240D01*
X002080Y003240D01*
X001580Y003240D02*
X001330Y002990D01*
X001330Y002490D01*
X001580Y002240D01*
X001280Y002490D02*
X001030Y002240D01*
X001280Y002490D02*
X001280Y002990D01*
X001030Y003240D01*
X001280Y003490D01*
X001280Y003990D01*
X001030Y004240D01*
X001280Y004490D01*
X001280Y004990D01*
X001030Y005240D01*
X000530Y005240D01*
X000280Y004990D01*
X000280Y004490D01*
X000530Y004240D01*
X001030Y004240D01*
X000530Y004240D02*
X000280Y003990D01*
X000280Y003490D01*
X000530Y003240D01*
X001030Y003240D01*
X000530Y003240D02*
X000280Y002990D01*
X000280Y002490D01*
X000530Y002240D01*
X000530Y001240D02*
X001030Y001240D01*
X001030Y005240D02*
X000530Y005240D01*
X000280Y005490D01*
X000280Y005990D01*
X000530Y006240D01*
X000280Y006490D01*
X000280Y006990D01*
X000530Y007240D01*
X001030Y007240D01*
X001280Y006990D01*
X001280Y006490D01*
X001030Y006240D01*
X001280Y005990D01*
X001280Y005490D01*
X001030Y005240D01*
X001330Y005490D02*
X001580Y005240D01*
X002080Y005240D01*
X002330Y005490D01*
X002330Y005990D01*
X002080Y006240D01*
X002330Y006490D01*
X002330Y006990D01*
X002080Y007240D01*
X001580Y007240D01*
X001330Y006990D01*
X001330Y006490D01*
X001580Y006240D01*
X002080Y006240D01*
X001580Y006240D02*
X001330Y005990D01*
X001330Y005490D01*
X001030Y006240D02*
X000530Y006240D01*
D13*
X006126Y005942D02*
X006756Y005942D01*
X006756Y007060D02*
X006126Y007060D01*
X008030Y005227D02*
X008187Y005227D01*
X008030Y005227D02*
X008030Y002353D01*
X008266Y002353D01*
X008365Y001940D02*
X008365Y001546D01*
X008621Y001546D01*
X009290Y001546D02*
X009644Y001546D01*
X010176Y002058D02*
X010176Y005444D01*
X008817Y006034D02*
X008365Y006034D01*
X008365Y005404D01*
D14*
X006293Y006895D03*
D15*
X006303Y005835D02*
X006303Y005725D01*
X006377Y005762D01*
X006413Y005762D01*
X006450Y005725D01*
X006450Y005652D01*
X006413Y005615D01*
X006340Y005615D01*
X006303Y005652D01*
X006229Y005652D02*
X006192Y005615D01*
X006119Y005615D01*
X006082Y005652D01*
X006082Y005799D01*
X006119Y005835D01*
X006192Y005835D01*
X006229Y005799D01*
X006303Y005835D02*
X006450Y005835D01*
X006524Y005799D02*
X006561Y005835D01*
X006634Y005835D01*
X006671Y005799D01*
X006671Y005762D01*
X006634Y005725D01*
X006671Y005689D01*
X006671Y005652D01*
X006634Y005615D01*
X006561Y005615D01*
X006524Y005652D01*
X006598Y005725D02*
X006634Y005725D01*
X006745Y005762D02*
X006819Y005835D01*
X006819Y005615D01*
X006892Y005615D02*
X006745Y005615D01*
X006966Y005615D02*
X006966Y005652D01*
X007113Y005799D01*
X007113Y005835D01*
X006966Y005835D01*
X006008Y005835D02*
X005935Y005835D01*
X005972Y005835D02*
X005972Y005615D01*
X006008Y005615D02*
X005935Y005615D01*
X005861Y005615D02*
X005861Y005835D01*
X005787Y005762D01*
X005714Y005835D01*
X005714Y005615D01*
D16*
X005720Y004610D02*
X005324Y004610D01*
X005324Y004611D02*
X005304Y004606D01*
X005285Y004598D01*
X005267Y004587D01*
X005251Y004574D01*
X005238Y004558D01*
X005227Y004541D01*
X005219Y004522D01*
X005214Y004502D01*
X005212Y004481D01*
X005213Y004460D01*
X005214Y004460D02*
X005214Y000581D01*
X005213Y000580D02*
X005218Y000560D01*
X005226Y000541D01*
X005237Y000523D01*
X005250Y000507D01*
X005266Y000494D01*
X005283Y000483D01*
X005302Y000475D01*
X005322Y000470D01*
X005343Y000468D01*
X005364Y000469D01*
X005364Y000470D02*
X006596Y000470D01*
X006619Y000472D01*
X006642Y000477D01*
X006664Y000486D01*
X006684Y000499D01*
X006702Y000514D01*
X006717Y000532D01*
X006730Y000552D01*
X006739Y000574D01*
X006744Y000597D01*
X006746Y000620D01*
X006746Y004460D01*
X006747Y004460D02*
X006742Y004484D01*
X006734Y004507D01*
X006723Y004528D01*
X006709Y004548D01*
X006692Y004566D01*
X006673Y004581D01*
X006652Y004594D01*
X006630Y004603D01*
X006606Y004609D01*
X006582Y004611D01*
X006557Y004610D01*
X006552Y004610D02*
X006220Y004610D01*
X006220Y004590D02*
X006218Y004560D01*
X006213Y004530D01*
X006204Y004501D01*
X006191Y004474D01*
X006176Y004448D01*
X006157Y004424D01*
X006136Y004403D01*
X006112Y004384D01*
X006086Y004369D01*
X006059Y004356D01*
X006030Y004347D01*
X006000Y004342D01*
X005970Y004340D01*
X005940Y004342D01*
X005910Y004347D01*
X005881Y004356D01*
X005854Y004369D01*
X005828Y004384D01*
X005804Y004403D01*
X005783Y004424D01*
X005764Y004448D01*
X005749Y004474D01*
X005736Y004501D01*
X005727Y004530D01*
X005722Y004560D01*
X005720Y004590D01*
M02*
